<svg xmlns="http://www.w3.org/2000/svg" width="145.637" height="123.174" viewBox="0 0 145.637 123.174">
  <g id="_01" data-name="01" transform="translate(-320.925 -408.542)">
    <g id="c1" transform="translate(-4.347 -2.497)">
      <path id="Path_6" data-name="Path 6" d="M327.217,479.56c0,3.256,1.311,5.624,4.567,5.624s4.565-2.368,4.565-5.624V464.212c0-3.214-1.311-5.581-4.565-5.581s-4.567,2.368-4.567,5.581V479.56Zm-1.945-15.221c0-4.356,1.988-7.484,6.512-7.484s6.511,3.129,6.511,7.484v15.136c0,4.313-1.988,7.484-6.511,7.484s-6.512-3.171-6.512-7.484V464.339Z" transform="translate(0)" fill="#5dc2ac"/>
      <path id="Path_7" data-name="Path 7" d="M340.833,460.329a6.3,6.3,0,0,1-4.609,2.5v-1.69c2.917-.213,4.271-1.945,5.033-4.145h1.52v29.64h-1.944v-26.3Z" transform="translate(6.301 0.077)" fill="#5dc2ac"/>
    </g>
    <g id="_01-2" data-name="01">
      <path id="Path_1" data-name="Path 1" d="M364.889,442.222v55.814l48.336,27.906,48.337-27.906V442.222l-48.337-27.907-48.336,27.907Z" fill="#fff"/>
      <path id="Path_31" data-name="Path 31" d="M413.225,408.542l-2.5,1.443-48.336,27.907-2.5,1.443v61.587l2.5,1.444,48.336,27.906,2.5,1.444,2.5-1.444,48.337-27.906,2.5-1.444V439.335l-2.5-1.443-48.337-27.907-2.5-1.443Zm0,5.773,48.337,27.907v55.814l-48.337,27.906-48.336-27.906V442.222l48.336-27.907" fill="#5dc2ac"/>
      <path id="Path_76" data-name="Path 76" d="M407.819,457.447h0Z" fill="#00a4ce"/>
      <path id="Path_77" data-name="Path 77" d="M412.35,458.984h0Z" fill="#00a4ce"/>
      <path id="Path_78" data-name="Path 78" d="M398.194,460.694h0Z" fill="#00a4ce"/>
      <path id="Path_79" data-name="Path 79" d="M401.909,450.1h0v0Z" fill="#00a4ce"/>
      <g id="Group_9" data-name="Group 9">
        <path id="Path_122" data-name="Path 122" d="M422.757,449.43H403.186a.888.888,0,0,0,0,1.776h19.571a.888.888,0,1,0,0-1.776Z" fill="#00a4ce"/>
        <path id="Path_123" data-name="Path 123" d="M422.757,443.9H403.186a.889.889,0,0,0,0,1.777h19.571a.889.889,0,0,0,0-1.777Z" fill="#00a4ce"/>
        <path id="Path_124" data-name="Path 124" d="M397.666,482.2a.889.889,0,0,0,.889.889h28.833a.888.888,0,0,0,0-1.777H398.555a.889.889,0,0,0-.889.888Z" fill="#00a4ce"/>
        <g id="Group_8" data-name="Group 8">
          <path id="Path_125" data-name="Path 125" d="M413.279,463.44a1.226,1.226,0,0,1-.434-.673h0l-1.15-4.711a2,2,0,0,0-1.942-1.524H397V440.754a.188.188,0,0,1,.013-.065.173.173,0,0,1,.062-.075.165.165,0,0,1,.094-.028H428.8a.145.145,0,0,1,.065.013.162.162,0,0,1,.075.062.165.165,0,0,1,.029.093V463.7H414.036a1.219,1.219,0,0,1-.757-.262Zm24.015.6a2,2,0,0,0-1.119-.342H430.75V440.754a1.945,1.945,0,0,0-1.945-1.945H397.169a1.945,1.945,0,0,0-1.945,1.945v15.778H389.8a1.984,1.984,0,0,0-.778.157,2,2,0,0,0-1.221,1.842v12.522a.888.888,0,1,0,1.776,0h0V458.531a.215.215,0,0,1,.017-.087.238.238,0,0,1,.082-.1.216.216,0,0,1,.124-.037h19.954a.224.224,0,0,1,.217.17l1.15,4.71h0a3,3,0,0,0,2.916,2.29h22.139a.213.213,0,0,1,.086.017.232.232,0,0,1,.1.082.225.225,0,0,1,.038.125v24.331H389.576V476.974a.888.888,0,1,0-1.776,0v13.254a1.581,1.581,0,0,0,1.582,1.581h47.21a1.572,1.572,0,0,0,.616-.124,1.579,1.579,0,0,0,.966-1.457V465.7a2,2,0,0,0-.88-1.658Z" fill="#00a4ce"/>
          <text id="CMMC" transform="translate(412.206 478.518)" fill="#00a99d" font-size="8.64" font-family="MicroExtendFLF-Bold, MicroExtendFLF" font-weight="700"><tspan x="-18.377" y="0">CMMC</tspan></text>
        </g>
      </g>
    </g>
  </g>
</svg>
