<svg xmlns="http://www.w3.org/2000/svg" width="151.434" height="124.37" viewBox="0 0 151.434 124.37">
  <g id="_02" data-name="02" transform="translate(-240.756 -522.609)">
    <g id="c2" transform="translate(-8.851 -6.997)">
      <path id="Path_8" data-name="Path 8" d="M251.357,598.1c0,2.932,1.181,5.063,4.113,5.063s4.11-2.132,4.11-5.063V584.281c0-2.893-1.18-5.025-4.11-5.025s-4.113,2.132-4.113,5.025V598.1Zm-1.75-13.7c0-3.922,1.79-6.738,5.863-6.738s5.862,2.817,5.862,6.738v13.627c0,3.883-1.79,6.738-5.862,6.738s-5.863-2.855-5.863-6.738V584.4Z" transform="translate(0 0)" fill="#00a4ce"/>
      <path id="Path_9" data-name="Path 9" d="M271.412,584.433c0,7.69-9.632,10.355-9.745,18.2v.3h9.517v1.6H259.915v-1.295c0-9.4,9.745-11.42,9.745-18.729,0-3.083-1.028-5.253-4.072-5.253-2.933,0-4,2.284-4,5.14v1.827h-1.675V584.51c0-3.845,1.637-6.852,5.748-6.852,4.149,0,5.748,2.893,5.748,6.775Z" transform="translate(4.312 0)" fill="#00a4ce"/>
    </g>
    <g id="_02-2" data-name="02">
      <path id="Path_2" data-name="Path 2" d="M289.482,556.588V613l48.854,28.206L387.19,613V556.588l-48.854-28.206-48.854,28.206Z" fill="#fff"/>
      <path id="Path_32" data-name="Path 32" d="M338.336,522.609l-2.5,1.443-48.854,28.206-2.5,1.444v62.185l2.5,1.443,48.854,28.206,2.5,1.443,2.5-1.443L389.69,617.33l2.5-1.443V553.7l-2.5-1.444-48.854-28.206-2.5-1.443Zm0,5.773,48.854,28.206V613l-48.854,28.206L289.482,613V556.588l48.854-28.206" fill="#00a4ce"/>
      <g id="NewGroupe1">
        <g id="NewGroup0-8">
          <g id="Group_1" data-name="Group 1">
            <path id="Path_80" data-name="Path 80" d="M339.588,566.109a1.739,1.739,0,0,1-.63.765,1.744,1.744,0,0,1-1.647.16,1.745,1.745,0,0,1-.765-.63,1.738,1.738,0,1,1,3.042-.295Zm.36-3.583a3.5,3.5,0,1,0,1.27,1.542,3.5,3.5,0,0,0-1.27-1.542Z" fill="#00a4ce"/>
            <path id="Path_81" data-name="Path 81" d="M326.046,566.909a11.5,11.5,0,0,1,10.593-7.021h2.7a11.46,11.46,0,0,1,8.129,3.367h0a11.444,11.444,0,0,1,3.365,8.018H325.145a11.437,11.437,0,0,1,.9-4.364Zm-13.609,41.222a2.143,2.143,0,0,0,1.207.369h48.685a2.156,2.156,0,0,0,2.158-2.157V573.43a2.158,2.158,0,0,0-2.158-2.157H352.6A13.224,13.224,0,0,0,348.715,562h0a13.233,13.233,0,0,0-9.38-3.885h-2.7a13.259,13.259,0,0,0-13.264,13.154h-9.731a2.156,2.156,0,0,0-2.157,2.157v8.42a.885.885,0,0,0,1.769,0v-8.42a.387.387,0,0,1,.03-.151.393.393,0,0,1,.142-.171.378.378,0,0,1,.216-.066h48.685a.387.387,0,0,1,.151.03.4.4,0,0,1,.172.142.385.385,0,0,1,.066.216v32.913a.387.387,0,0,1-.03.151.393.393,0,0,1-.142.171.379.379,0,0,1-.217.066H313.644a.388.388,0,0,1-.151-.03.393.393,0,0,1-.171-.142.378.378,0,0,1-.066-.216v-18.6a.885.885,0,0,0-1.769,0h0v18.6a2.156,2.156,0,0,0,.95,1.788Z" fill="#00a4ce"/>
            <path id="Path_82" data-name="Path 82" d="M357.725,583.134a.247.247,0,0,1-.019.1.256.256,0,0,1-.091.11.241.241,0,0,1-.139.042H336.835a.247.247,0,0,1-.1-.019.245.245,0,0,1-.11-.091.241.241,0,0,1-.042-.139v-4.22a.25.25,0,0,1,.019-.1.255.255,0,0,1,.091-.11.246.246,0,0,1,.139-.042h20.641a.246.246,0,0,1,.1.019.262.262,0,0,1,.11.091.248.248,0,0,1,.042.139v4.22Zm1.424,1.129a2.012,2.012,0,0,0,.345-1.129v-4.22a2.017,2.017,0,0,0-2.018-2.018H336.835a2.017,2.017,0,0,0-2.019,2.018v4.22a2.017,2.017,0,0,0,2.019,2.018h20.641a1.988,1.988,0,0,0,.786-.159,2.011,2.011,0,0,0,.887-.73Z" fill="#00a4ce"/>
            <path id="Path_83" data-name="Path 83" d="M318.784,591.31a1.965,1.965,0,0,1,1.11-.339h5.96a1.987,1.987,0,0,1,1.988,1.987v6.1h-9.935v-6.1a1.983,1.983,0,0,1,.877-1.648Zm-2-.453a3.74,3.74,0,0,0-.642,2.1v6.99a.884.884,0,0,0,.884.884h11.7a.884.884,0,0,0,.885-.884v-6.99a3.756,3.756,0,0,0-3.757-3.756h-5.96a3.749,3.749,0,0,0-3.114,1.655Z" fill="#00a4ce"/>
            <path id="Path_84" data-name="Path 84" d="M320.6,583.84a2.481,2.481,0,0,1,.9-1.086,2.467,2.467,0,0,1,3.65,3,2.487,2.487,0,0,1-.895,1.086,2.474,2.474,0,0,1-2.337.227,2.49,2.49,0,0,1-1.086-.894,2.474,2.474,0,0,1-.227-2.337Zm-.1,4.47a4.228,4.228,0,1,0-1.533-1.862,4.23,4.23,0,0,0,1.533,1.862Z" fill="#00a4ce"/>
            <path id="Path_85" data-name="Path 85" d="M357.5,590.049h-20.7a.885.885,0,1,0,0,1.77h20.7a.885.885,0,0,0,0-1.77Z" fill="#00a4ce"/>
            <path id="Path_86" data-name="Path 86" d="M357.5,596.716h-20.7a.884.884,0,1,0,0,1.769h20.7a.884.884,0,0,0,0-1.769Z" fill="#00a4ce"/>
          </g>
        </g>
      </g>
    </g>
  </g>
</svg>
