<svg xmlns="http://www.w3.org/2000/svg" width="149.785" height="123.175" viewBox="0 0 149.785 123.175">
  <g id="_03" data-name="03" transform="translate(-316.301 -638)">
    <g id="c3" transform="translate(316.301 686.515)">
      <path id="Path_10" data-name="Path 10" d="M325.7,694.951c0-2.893,1.165-5,4.058-5s4.058,2.105,4.058,5v13.637c0,2.854-1.165,4.959-4.058,4.959s-4.058-2.105-4.058-4.959V694.951Zm-1.729,13.524c0,3.869,1.766,6.65,5.786,6.65s5.785-2.781,5.785-6.65v-13.45c0-3.832-1.766-6.65-5.785-6.65s-5.786,2.818-5.786,6.65v13.45Z" transform="translate(-323.97 -688.375)" fill="#0265ae"/>
      <path id="Path_11" data-name="Path 11" d="M345.571,708.475v-.638a5.4,5.4,0,0,0-3.494-5.448c2.366-.714,3.494-2.743,3.494-5.336v-2.028c0-3.832-1.654-6.65-5.673-6.65s-5.674,2.818-5.674,6.65v1.5h1.654v-1.576c0-2.857,1.089-5,3.982-5s3.981,2.105,3.981,5.11v2.028c0,2.743-1.351,4.321-3.907,4.434H338.17V703.1h1.841c2.368.15,3.831,1.878,3.831,4.4v.939c0,3.005-1.089,5.11-3.981,5.11s-3.982-2.105-3.982-4.959v-1.053h-1.654v.939c0,3.832,1.654,6.65,5.674,6.65s5.673-2.818,5.673-6.65Z" transform="translate(-319.871 -688.375)" fill="#0265ae"/>
    </g>
    <g id="_03-2" data-name="03" transform="translate(0 -0.399)">
      <path id="Path_3" data-name="Path 3" d="M364.414,672.08v55.813L412.75,755.8l48.336-27.907V672.08L412.75,644.173,364.414,672.08Z" fill="#fff"/>
      <path id="Path_33" data-name="Path 33" d="M412.75,638.4l-2.5,1.443-48.336,27.907-2.5,1.444V730.78l2.5,1.443L410.25,760.13l2.5,1.444,2.5-1.444,48.336-27.907,2.5-1.443V669.193l-2.5-1.444L415.25,639.842l-2.5-1.443Zm0,5.774,48.336,27.907v55.813L412.75,755.8l-48.336-27.907V672.08l48.336-27.907" fill="#0265ae"/>
      <g id="NewGroupe2">
        <g id="NewGroup0-7">
          <g id="Group_2" data-name="Group 2">
            <path id="Path_87" data-name="Path 87" d="M409.836,697.581a3.382,3.382,0,0,1-.158-2.026v0a3.38,3.38,0,0,1,.539-1.2,3.489,3.489,0,0,1,.753-.767,3.374,3.374,0,0,1,2.018-.663c.048,0,.1,0,.146,0a3.361,3.361,0,0,1,1.864.661h0a3.474,3.474,0,0,1,.754.767,3.329,3.329,0,0,1,.542,1.2v0a3.317,3.317,0,0,1,.08.544c.005.073.007.146.007.218a3.382,3.382,0,0,1-.244,1.264.918.918,0,0,0-.05.513l1.225,6.43a1.325,1.325,0,0,1-.078.761,1.35,1.35,0,0,1-.48.59,1.32,1.32,0,0,1-.348.169,1.338,1.338,0,0,1-.4.061h-6.036a1.311,1.311,0,0,1-.524-.106,1.345,1.345,0,0,1-.585-.488,1.325,1.325,0,0,1-.2-.987l1.225-6.43a.921.921,0,0,0-.05-.514Zm-3.032,7.2a3.139,3.139,0,0,0,.245,1.216,3.179,3.179,0,0,0,1.135,1.392,3.145,3.145,0,0,0,.833.406,3.185,3.185,0,0,0,.952.145h6.036a3.162,3.162,0,0,0,3.108-3.755h0L417.935,698a5.205,5.205,0,0,0,.279-1.682c0-.111,0-.222-.01-.333h0a5.127,5.127,0,0,0-.123-.843,5.2,5.2,0,0,0-.838-1.853h0a5.306,5.306,0,0,0-1.154-1.173h0a5.2,5.2,0,0,0-2.878-1.019c-.075,0-.149,0-.222,0a5.212,5.212,0,0,0-3.109,1.023h0a5.263,5.263,0,0,0-1.153,1.174h0a5.218,5.218,0,0,0-.686,4.711l-1.178,6.181a3.2,3.2,0,0,0-.057.6Z" fill="#00a4ce"/>
            <path id="Path_88" data-name="Path 88" d="M418.079,695.139v0h0v0Z" fill="#00a4ce"/>
            <path id="Path_89" data-name="Path 89" d="M407.893,695.142h0v0Z" fill="#00a4ce"/>
            <path id="Path_90" data-name="Path 90" d="M397.483,715.343a.29.29,0,0,1,.023-.117.3.3,0,0,1,.279-.186h30.4a.305.305,0,0,1,.251.134.293.293,0,0,1,.051.169v9.331a.3.3,0,0,1-.023.118.308.308,0,0,1-.111.134.29.29,0,0,1-.168.051h-30.4a.29.29,0,0,1-.117-.023.307.307,0,0,1-.134-.111.291.291,0,0,1-.051-.169v-9.331Zm26.741-28.792H401.75V683.2a3.707,3.707,0,0,1,.294-1.452A3.759,3.759,0,0,1,403.4,680.1a3.71,3.71,0,0,1,2.086-.639h15a3.743,3.743,0,0,1,3.738,3.738v3.355ZM397.933,683.2a7.515,7.515,0,0,1,.594-2.937,7.61,7.61,0,0,1,2.741-3.326,7.5,7.5,0,0,1,4.219-1.291h15a7.494,7.494,0,0,1,2.937.594,7.6,7.6,0,0,1,3.326,2.74,7.512,7.512,0,0,1,1.292,4.22v3.355h-1.985V683.2a5.574,5.574,0,0,0-5.57-5.57h-15a5.574,5.574,0,0,0-5.569,5.57v3.355h-1.985V683.2Zm-6.3,36.09a3.726,3.726,0,0,0,2.085.637h1.933v4.751a2.106,2.106,0,0,0,.168.832,2.134,2.134,0,0,0,1.966,1.3h30.4a2.106,2.106,0,0,0,.831-.168,2.134,2.134,0,0,0,1.3-1.967v-4.751h1.933a3.729,3.729,0,0,0,3.729-3.728V690.279a3.728,3.728,0,0,0-3.729-3.728h-2.383V683.2a9.342,9.342,0,0,0-.739-3.651,9.439,9.439,0,0,0-3.4-4.13,9.341,9.341,0,0,0-5.246-1.606h-15a9.342,9.342,0,0,0-3.651.74,9.439,9.439,0,0,0-4.129,3.4A9.341,9.341,0,0,0,396.1,683.2v3.355h-2.383a3.729,3.729,0,0,0-3.729,3.728V700a.916.916,0,0,0,1.832,0h0v-9.725a1.9,1.9,0,0,1,.837-1.573,1.885,1.885,0,0,1,1.06-.323h38.538a1.881,1.881,0,0,1,.738.149,1.909,1.909,0,0,1,.835.688,1.885,1.885,0,0,1,.324,1.059V716.2a1.893,1.893,0,0,1-.837,1.572,1.886,1.886,0,0,1-1.06.324h-1.933v-2.748a2.105,2.105,0,0,0-.168-.831,2.137,2.137,0,0,0-1.966-1.3h-30.4a2.135,2.135,0,0,0-2.134,2.135v2.748h-1.933a1.874,1.874,0,0,1-.738-.149,1.909,1.909,0,0,1-.835-.688,1.885,1.885,0,0,1-.324-1.059V706.111a.916.916,0,1,0-1.832,0h0V716.2a3.728,3.728,0,0,0,1.644,3.091Z" fill="#00a4ce"/>
            <path id="Path_91" data-name="Path 91" d="M403.208,718.361h19.558a.916.916,0,0,0,0-1.832H403.208a.916.916,0,0,0,0,1.832Z" fill="#00a4ce"/>
            <path id="Path_92" data-name="Path 92" d="M403.208,722.719h19.558a.916.916,0,1,0,0-1.832H403.208a.916.916,0,1,0,0,1.832Z" fill="#00a4ce"/>
          </g>
        </g>
      </g>
    </g>
  </g>
</svg>
