<svg xmlns="http://www.w3.org/2000/svg" width="150.456" height="124.37" viewBox="0 0 150.456 124.37">
  <g id="_04" data-name="04" transform="translate(-241.258 -753)">
    <g id="c4" transform="translate(-8 -6)">
      <path id="Path_14" data-name="Path 14" d="M251.005,829.571c0,2.925,1.177,5.053,4.1,5.053s4.1-2.128,4.1-5.053V815.786c0-2.885-1.177-5.013-4.1-5.013s-4.1,2.128-4.1,5.013v13.785ZM249.258,815.9c0-3.912,1.786-6.722,5.849-6.722s5.848,2.81,5.848,6.722v13.6c0,3.874-1.786,6.721-5.848,6.721s-5.849-2.847-5.849-6.721V815.9Z" transform="translate(0 0)" fill="#7f87c2"/>
      <path id="Path_15" data-name="Path 15" d="M260.92,828.453H268.4V812.579l-7.482,15.874Zm9.191,1.595v5.886H268.4v-5.886h-9.077v-1.633l8.809-19.1h1.977v19.141h2.24v1.595Z" transform="translate(4.177 0.056)" fill="#7f87c2"/>
    </g>
    <g id="_04-2" data-name="04" transform="translate(0 -0.386)">
      <path id="Path_5" data-name="Path 5" d="M289.006,787.366v56.411l48.854,28.206,48.854-28.206V787.366L337.86,759.16l-48.854,28.206Z" fill="#fff"/>
      <path id="Path_35" data-name="Path 35" d="M337.86,753.386l-2.5,1.444-48.854,28.206-2.5,1.443v62.184l2.5,1.445,48.854,28.205,2.5,1.443,2.5-1.443,48.854-28.205,2.5-1.445V784.479l-2.5-1.443L340.36,754.83l-2.5-1.444Zm0,5.774,48.854,28.206v56.411L337.86,871.983l-48.854-28.206V787.366L337.86,759.16" fill="#7f87c2"/>
      <g id="NewGroupe5">
        <g id="NewGroup0-4">
          <g id="Group_4" data-name="Group 4">
            <path id="Path_103" data-name="Path 103" d="M316.663,809.9c-.2-.882-.43-1.917-.641-2.87-.14-.632-.27-1.229-.373-1.718-.052-.244-.1-.462-.132-.643-.028-.141-.05-.26-.065-.347a39.01,39.01,0,0,0,6.95-2.373l.432,5.889a42.4,42.4,0,0,1-6.171,2.062Zm9.09-1.419a50.463,50.463,0,0,0,7-4.106,49.4,49.4,0,0,0,5.1-4.081h0a.208.208,0,0,1,.062-.039.2.2,0,0,1,.142,0,.208.208,0,0,1,.062.039h0a49.4,49.4,0,0,0,5.1,4.081h0a50.463,50.463,0,0,0,7,4.106,45.209,45.209,0,0,0,8.748,3.175,77.677,77.677,0,0,1-2.361,7.551,58.224,58.224,0,0,1-3.017,6.816A34.6,34.6,0,0,1,347.052,835a21.138,21.138,0,0,1-4.259,3.173A17.518,17.518,0,0,1,337.987,840a17.4,17.4,0,0,1-4.289-1.553,22.28,22.28,0,0,1-6.452-5.2,42.254,42.254,0,0,1-6.745-11.2,74.106,74.106,0,0,1-3.5-10.4,45.209,45.209,0,0,0,8.748-3.175Zm27.836-6.524a39.06,39.06,0,0,0,6.933,2.365c-.015.09-.036.208-.062.348-.114.617-.321,1.64-.547,2.721-.179.859-.37,1.756-.538,2.526a42.519,42.519,0,0,1-6.139-2.039l.353-5.921Zm6.944,2.3Zm.05.08h0Zm-45.192,0Zm-1.626.678c.066.335.158.771.265,1.266.3,1.387.72,3.24,1.01,4.546a.875.875,0,0,0,.009.384,80.7,80.7,0,0,0,2.643,8.619,60,60,0,0,0,3.111,7.025,36.371,36.371,0,0,0,6.888,9.44,22.929,22.929,0,0,0,4.62,3.438,19.247,19.247,0,0,0,5.494,2.06.859.859,0,0,0,.364,0,19.172,19.172,0,0,0,4.928-1.755,24.034,24.034,0,0,0,6.973-5.608,43.946,43.946,0,0,0,7.045-11.673,76.985,76.985,0,0,0,3.81-11.546.9.9,0,0,0,.025-.2.782.782,0,0,0,.043-.137h0c.222-1.006.512-2.364.764-3.581.126-.608.242-1.182.336-1.66.047-.239.089-.454.123-.639s.061-.338.081-.46h0a1.718,1.718,0,0,0-1.3-1.935h0a37.816,37.816,0,0,1-7.8-2.8,71.818,71.818,0,0,1-8.722-5.9c-1.276-1-2.406-1.935-3.3-2.724-.449-.394-.84-.751-1.162-1.057s-.575-.561-.738-.743h0a1.715,1.715,0,0,0-2.546,0h0c-.147.163-.367.388-.644.653-.416.4-.961.894-1.606,1.451s-1.391,1.178-2.211,1.833a.893.893,0,0,0,1.114,1.4h0c1.118-.892,2.1-1.723,2.9-2.43.4-.353.747-.676,1.045-.961.271-.261.5-.489.68-.688.2.223.464.483.781.784.6.57,1.4,1.28,2.349,2.077,1.426,1.2,3.192,2.584,5.121,3.965,1.778,1.272,3.694,2.538,5.613,3.639l-.358,6.011q-.251-.117-.5-.236a48.757,48.757,0,0,1-6.755-3.96l-.512.732.512-.732a47.378,47.378,0,0,1-4.91-3.932h0a1.983,1.983,0,0,0-2.69,0h0a47.378,47.378,0,0,1-4.91,3.932,48.757,48.757,0,0,1-6.755,3.96l-.41.2-.438-5.975c1.082-.62,2.163-1.293,3.219-1.991a.893.893,0,1,0-.985-1.49h0c-1.178.778-2.384,1.522-3.576,2.19a37.846,37.846,0,0,1-7.806,2.8h0a1.717,1.717,0,0,0-1.325,1.669,1.67,1.67,0,0,0,.022.269c.02.128.049.286.087.478Z" fill="#00a4ce"/>
            <path id="Path_104" data-name="Path 104" d="M313.678,804.534h0v0Z" fill="#00a4ce"/>
            <path id="Path_105" data-name="Path 105" d="M333.766,818.541a4.6,4.6,0,0,1,1.66-2.016,4.593,4.593,0,0,1,4.344-.423,4.611,4.611,0,0,1,2.016,1.661,4.58,4.58,0,1,1-8.02.778Zm.661,7.061a6.358,6.358,0,1,0-2.306-2.8,6.333,6.333,0,0,0,2.306,2.8Z" fill="#00a4ce"/>
            <path id="Path_106" data-name="Path 106" d="M327.375,819.148l1.878-.366a.892.892,0,0,0,.691-.644,8.293,8.293,0,0,1,1.077-2.388.894.894,0,0,0-.005-.99l-.995-1.477,1.294-1.294,1.586,1.068a.891.891,0,0,0,.944.034,8.288,8.288,0,0,1,2.451-.929.89.89,0,0,0,.7-.7l.341-1.746h1.83l.366,1.877a.9.9,0,0,0,.643.691,8.274,8.274,0,0,1,2.389,1.077.89.89,0,0,0,.989-.006l1.477-.995,1.295,1.295-1.069,1.586a.89.89,0,0,0-.034.943,8.274,8.274,0,0,1,.929,2.451.892.892,0,0,0,.7.7l1.747.34V821.5l-1.878.365a.892.892,0,0,0-.691.644,8.286,8.286,0,0,1-1.077,2.389.894.894,0,0,0,.005.99l.995,1.477-1.294,1.294-1.586-1.069a.891.891,0,0,0-.944-.034,8.275,8.275,0,0,1-2.45.929.891.891,0,0,0-.7.7l-.341,1.747h-1.83l-.366-1.877a.89.89,0,0,0-.643-.692,8.266,8.266,0,0,1-2.388-1.076.89.89,0,0,0-.99.005l-1.477.995L329.652,827l1.069-1.587a.889.889,0,0,0,.034-.943,8.254,8.254,0,0,1-.929-2.451.89.89,0,0,0-.7-.7l-1.747-.341v-1.83Zm-1.064,3.442,1.907.372a10.022,10.022,0,0,0,.722,1.894l-1.18,1.752a.89.89,0,0,0,.109,1.13l2.335,2.335a.89.89,0,0,0,1.13.109l1.612-1.086a10.056,10.056,0,0,0,1.849.83l.4,2.073a.89.89,0,0,0,.876.722h3.3a.89.89,0,0,0,.876-.722l.372-1.906a10.056,10.056,0,0,0,1.895-.722l1.751,1.18a.892.892,0,0,0,1.131-.109l2.334-2.335a.9.9,0,0,0,.109-1.13l-1.085-1.612a10.051,10.051,0,0,0,.829-1.849l2.074-.4a.892.892,0,0,0,.722-.877v-3.3a.892.892,0,0,0-.722-.877l-1.907-.372a10.074,10.074,0,0,0-.722-1.894l1.18-1.752a.89.89,0,0,0-.109-1.13l-2.335-2.335a.9.9,0,0,0-1.13-.109l-1.612,1.086a10.053,10.053,0,0,0-1.849-.829l-.4-2.073a.89.89,0,0,0-.876-.722h-3.3a.894.894,0,0,0-.876.722l-.372,1.906a10.056,10.056,0,0,0-1.895.722L331.7,810.1a.891.891,0,0,0-1.131.11l-2.334,2.335a.9.9,0,0,0-.109,1.13l1.085,1.612a10.11,10.11,0,0,0-.829,1.848l-2.074.4a.892.892,0,0,0-.722.877v3.3a.9.9,0,0,0,.722.876Z" fill="#00a4ce"/>
          </g>
        </g>
      </g>
    </g>
  </g>
</svg>
