<svg xmlns="http://www.w3.org/2000/svg" width="148.714" height="123.174" viewBox="0 0 148.714 123.174">
  <g id="_05" data-name="05" transform="translate(-316.97 -869.394)">
    <g id="c5" transform="translate(-7 -3)">
      <path id="Path_12" data-name="Path 12" d="M325.743,942.421c0,2.965,1.194,5.124,4.161,5.124s4.161-2.159,4.161-5.124V928.438c0-2.926-1.194-5.085-4.161-5.085s-4.161,2.159-4.161,5.085v13.984Zm-1.772-13.867c0-3.968,1.811-6.819,5.933-6.819s5.932,2.851,5.932,6.819v13.79c0,3.93-1.811,6.819-5.932,6.819s-5.933-2.889-5.933-6.819v-13.79Z" transform="translate(0)" fill="#24395a"/>
      <path id="Path_13" data-name="Path 13" d="M336.307,933.156a4.664,4.664,0,0,1,4.352-2.08c3.736,0,5.239,2.85,5.239,6.586v4.623c0,3.891-1.734,6.819-5.854,6.819-4.085,0-5.819-2.928-5.819-6.819v-1.463h1.7v1.54c0,2.889,1.155,5.085,4.083,5.085,2.965,0,4.122-2.2,4.122-5.085v-4.545c0-2.889-1.157-5.085-4.122-5.085a3.764,3.764,0,0,0-3.852,3.082v.464H334.5l.693-14.408H345.32v1.656h-8.514l-.5,9.631Z" transform="translate(4.463 0.058)" fill="#24395a"/>
    </g>
    <g id="_05-2" data-name="05">
      <path id="Path_4" data-name="Path 4" d="M364.012,903.074v55.813l48.336,27.907,48.336-27.907V903.074l-48.336-27.907-48.336,27.907Z" fill="#fff"/>
      <path id="Path_34" data-name="Path 34" d="M412.348,869.394l-2.5,1.443-48.336,27.907-2.5,1.443v61.587l2.5,1.443,48.336,27.907,2.5,1.444,2.5-1.444,48.336-27.907,2.5-1.443V900.187l-2.5-1.443-48.336-27.907-2.5-1.443Zm0,5.773,48.336,27.907v55.813l-48.336,27.907-48.336-27.907V903.074l48.336-27.907" fill="#24395a"/>
      <g id="Group_7" data-name="Group 7">
        <path id="Path_121" data-name="Path 121" d="M391.044,917.4v-12.53h50.565V917.4H402.486v-4.047a2.321,2.321,0,0,0-.336-1.189,3.554,3.554,0,0,0-1.54-1.343,5.474,5.474,0,0,0-2.381-.523,5.71,5.71,0,0,0-1.659.241,4.61,4.61,0,0,0-1.351.654,3.213,3.213,0,0,0-.913.971,2.33,2.33,0,0,0-.335,1.189V917.4Zm6.813,34.323h21.2v10.018h-21.2V951.727ZM382.126,927.7l.031.046,9.139,12.593a1.751,1.751,0,0,0,1.941.439c.7-.263.979-.887.612-1.393h0l-9.119-12.565a2.971,2.971,0,0,1-.282-.543,1.15,1.15,0,0,1-.083-.393.539.539,0,0,1,.03-.187.591.591,0,0,1,.168-.235,2.034,2.034,0,0,1,.5-.315,3.135,3.135,0,0,1,1.334-.289,3.182,3.182,0,0,1,1.311.274h0a2.114,2.114,0,0,1,.5.319,1.952,1.952,0,0,1,.383.444l.041.059,5.505,7.432a1.691,1.691,0,0,0,1.619.518c.641-.115,1.091-.528,1.091-1V913.357a.743.743,0,0,1,.108-.385,1.053,1.053,0,0,1,.3-.314l0,0a1.505,1.505,0,0,1,.437-.212,1.9,1.9,0,0,1,1.072,0,1.4,1.4,0,0,1,.609.36.805.805,0,0,1,.235.553v16.758c0,.571.644,1.033,1.439,1.033s1.439-.462,1.439-1.033V923.8a.818.818,0,0,0,.184-.5,1.221,1.221,0,0,1,.164-.6,1.812,1.812,0,0,1,.76-.694,2.411,2.411,0,0,1,.536-.2,2.748,2.748,0,0,1,.608-.075h.029a2.83,2.83,0,0,1,.815.118,2.3,2.3,0,0,1,.667.323,1.582,1.582,0,0,1,.451.479,1.139,1.139,0,0,1,.164.586v1.737c-.007.083-.012.166-.012.251a.781.781,0,0,0,.012.129v5.742c0,.57.645,1.033,1.439,1.033s1.439-.463,1.439-1.033h0v-6.041a1.333,1.333,0,0,1,.17-.478,2.073,2.073,0,0,1,.852-.775,2.722,2.722,0,0,1,.593-.221,2.823,2.823,0,0,1,.649-.081h.032a3.141,3.141,0,0,1,.9.13,2.528,2.528,0,0,1,.734.355,1.764,1.764,0,0,1,.5.527,1.27,1.27,0,0,1,.181.645V930.9c0,.57.644,1.033,1.439,1.033s1.439-.463,1.439-1.033h0v-3.077a.811.811,0,0,0,.171-.488,1.057,1.057,0,0,1,.1-.459.977.977,0,0,1,.531-.5,1.349,1.349,0,0,1,.49-.087h.015c.055,0,.141,0,.242.008.179.009.406.028.642.056a9.452,9.452,0,0,1,1.011.166,3.144,3.144,0,0,1,.309.086l.012.005a1.019,1.019,0,0,1,.256.284.741.741,0,0,1,.108.386v12.309a3.649,3.649,0,0,1-.769,2.2.856.856,0,0,0-.152.32l-.989,4.294a2.168,2.168,0,0,0-.09.2,4.114,4.114,0,0,0-.14.47c-.071.292-.135.627-.195.978-.091.526-.174,1.087-.249,1.547l-.01.057H398.283l-.78-3.1a1.475,1.475,0,0,0-1.671-.833c-.783.1-1.3.639-1.161,1.2l.885,3.518c-.038.036-.076.074-.111.112a1.659,1.659,0,0,0-.466,1.12V961.79a1.556,1.556,0,0,0,.214.777,2.306,2.306,0,0,0,.995.889,3.287,3.287,0,0,0,.733.26,3.69,3.69,0,0,0,.836.093h21.4a3.667,3.667,0,0,0,1.1-.163,2.759,2.759,0,0,0,1.218-.737,1.651,1.651,0,0,0,.465-1.119V951.682a1.549,1.549,0,0,0-.213-.778,2.025,2.025,0,0,0-.431-.515l0-.015c.053-.277.106-.608.162-.961.083-.527.172-1.1.262-1.564.045-.23.091-.432.132-.572.02-.069.039-.123.049-.149l0-.007a.83.83,0,0,0,.114-.264l.979-4.248a5.233,5.233,0,0,0,1-3.015V927.285a2.331,2.331,0,0,0-.335-1.19,3.238,3.238,0,0,0-.91-.971h0a2.7,2.7,0,0,0-.56-.3,4.727,4.727,0,0,0-.469-.16c-.272-.079-.549-.141-.83-.194-.421-.079-.849-.137-1.249-.177q-.3-.03-.578-.047c-.183-.01-.356-.017-.525-.017h-.048a5.368,5.368,0,0,0-1.362.184,2.931,2.931,0,0,0-.307-.716,3.945,3.945,0,0,0-1.111-1.183,5.647,5.647,0,0,0-1.648-.8,6.973,6.973,0,0,0-2.019-.292h-.073a6.656,6.656,0,0,0-2.015.329c-.184.06-.36.131-.532.206-.022-.042-.044-.083-.067-.123a3.769,3.769,0,0,0-1.067-1.135,5.353,5.353,0,0,0-1.581-.764,6.656,6.656,0,0,0-1.936-.282H404.7a6.474,6.474,0,0,0-1.94.31c-.093.03-.183.063-.272.1v-.6H441.7a3.771,3.771,0,0,0,1.084-.157,2.784,2.784,0,0,0,1.222-.723,1.631,1.631,0,0,0,.476-1.117V904.806a1.532,1.532,0,0,0-.219-.778,2.322,2.322,0,0,0-1.007-.877,3.6,3.6,0,0,0-1.556-.342H390.948a3.726,3.726,0,0,0-1.083.158,2.783,2.783,0,0,0-1.223.722,1.626,1.626,0,0,0-.476,1.117v12.666a1.526,1.526,0,0,0,.219.777,2.321,2.321,0,0,0,1.006.878,3.587,3.587,0,0,0,1.557.342h3.023v9.293l-2.8-3.774a4.1,4.1,0,0,0-.753-.856,4.918,4.918,0,0,0-1.164-.738,7.1,7.1,0,0,0-5.778.033h0a5.472,5.472,0,0,0-.835.484,3.038,3.038,0,0,0-.871.921,2.081,2.081,0,0,0-.286,1.055,2.629,2.629,0,0,0,.182.929,4.7,4.7,0,0,0,.457.887Z" fill="#00a4ce"/>
        <text id="CMMC" transform="translate(421.405 914.279)" fill="#00a99d" font-size="8.64" font-family="MicroExtendFLF-Bold, MicroExtendFLF" font-weight="700"><tspan x="-18.377" y="0">CMMC</tspan></text>
      </g>
    </g>
  </g>
</svg>
