<svg xmlns="http://www.w3.org/2000/svg" width="147.971" height="123.174" viewBox="0 0 147.971 123.174">
  <g id="_06" data-name="06" transform="translate(-1001.867 -409)" opacity="0.6">
    <g id="Group_12" data-name="Group 12" transform="translate(-4.111 0.145)">
      <path id="Path_16" data-name="Path 16" d="M1129.256,477.767c0,3,1.188,5.18,4.141,5.18s4.142-2.181,4.142-5.18V463.631c0-2.96-1.19-5.141-4.142-5.141s-4.141,2.181-4.141,5.141v14.136Zm-1.764-14.019c0-4.012,1.8-6.893,5.905-6.893s5.912,2.881,5.912,6.893v13.94c0,3.973-1.814,6.893-5.912,6.893s-5.905-2.921-5.905-6.893v-13.94Z" fill="#24395a"/>
      <path id="Path_17" data-name="Path 17" d="M1139.327,474.457v3.31c0,3,1.19,5.141,4.179,5.141,2.96,0,4.135-2.142,4.135-5.141v-3.31c0-2.921-1.175-5.1-4.135-5.1-2.989,0-4.179,2.181-4.179,5.1Zm9.968-10.827v.312h-1.683v-.428c0-2.921-1.117-5.025-4.062-5.025-3.032,0-4.222,2.181-4.222,5.374v6.309a5.091,5.091,0,0,1,4.788-2.493c3.758,0,5.3,2.844,5.3,6.66v3.349c0,3.973-1.8,6.893-5.905,6.893-4.135,0-5.949-2.921-5.949-6.893V463.825c0-4.089,1.77-6.97,5.949-6.97,4.106,0,5.789,2.8,5.789,6.776Z" transform="translate(4.539)" fill="#24395a"/>
    </g>
    <path id="Path_26" data-name="Path 26" d="M1103.539,442.222v55.814L1055.2,525.942l-48.336-27.906V442.222l48.336-27.907,48.336,27.907Z" fill="#fff"/>
    <path id="Path_36" data-name="Path 36" d="M1055.2,408.542l-2.5,1.443-48.336,27.907-2.5,1.443v61.587l2.5,1.444,48.336,27.906,2.5,1.444,2.5-1.444,48.336-27.906,2.5-1.444V439.335l-2.5-1.443L1057.7,409.985l-2.5-1.443Zm0,5.773,48.336,27.907v55.814L1055.2,525.942l-48.336-27.906V442.222l48.336-27.907" transform="translate(0 0.458)" fill="#24395a"/>
    <path id="Path_126" data-name="Path 126" d="M1065.5,447.5h-19.57a.888.888,0,1,0,0,1.776h19.57a.888.888,0,1,0,0-1.776Z" fill="#00a4ce"/>
    <path id="Path_127" data-name="Path 127" d="M1065.5,441.972h-19.57a.889.889,0,0,0,0,1.777h19.57a.889.889,0,0,0,0-1.777Z" fill="#00a4ce"/>
    <path id="Path_128" data-name="Path 128" d="M1040.406,480.273a.889.889,0,0,0,.888.889h28.834a.888.888,0,0,0,0-1.777h-28.834a.888.888,0,0,0-.888.888Z" fill="#00a4ce"/>
    <path id="Path_129" data-name="Path 129" d="M1056.019,461.513a1.221,1.221,0,0,1-.434-.673h0l-1.15-4.711a2,2,0,0,0-1.943-1.524H1039.74V438.827a.166.166,0,0,1,.013-.065.173.173,0,0,1,.062-.075.163.163,0,0,1,.094-.028h31.635a.153.153,0,0,1,.066.013.167.167,0,0,1,.075.062.158.158,0,0,1,.028.093v22.948h-14.937a1.217,1.217,0,0,1-.757-.262Zm24.014.6a2,2,0,0,0-1.118-.342h-5.425V438.827a1.945,1.945,0,0,0-1.946-1.945h-31.635a1.946,1.946,0,0,0-1.945,1.945v15.778h-5.425a1.992,1.992,0,0,0-.779.157,2,2,0,0,0-1.22,1.842v12.522a.888.888,0,1,0,1.776,0h0V456.6a.215.215,0,0,1,.017-.087.231.231,0,0,1,.082-.1.211.211,0,0,1,.124-.037h19.953a.217.217,0,0,1,.138.048.211.211,0,0,1,.079.122l1.15,4.71h0a3,3,0,0,0,2.917,2.29h22.139a.213.213,0,0,1,.086.017.245.245,0,0,1,.1.082.217.217,0,0,1,.037.125v24.331h-46.821V475.047a.888.888,0,1,0-1.776,0V488.3a1.579,1.579,0,0,0,1.581,1.581h47.211a1.581,1.581,0,0,0,1.582-1.581V463.775a2,2,0,0,0-.881-1.658Z" fill="#00a4ce"/>
    <text id="POAM" transform="translate(1054.946 476.591)" fill="#00a99d" font-size="8.64" font-family="MicroExtendFLF-Bold, MicroExtendFLF" font-weight="700"><tspan x="-16.809" y="0">POAM</tspan></text>
  </g>
</svg>
