<svg xmlns="http://www.w3.org/2000/svg" width="145.672" height="123.174" viewBox="0 0 145.672 123.174">
  <g id="_06M" data-name="06M" transform="translate(-2)">
    <path id="Path_135" data-name="Path 135" d="M3.764,68.912c0,3,1.188,5.18,4.141,5.18s4.142-2.181,4.142-5.18V54.776c0-2.96-1.19-5.141-4.142-5.141s-4.141,2.181-4.141,5.141ZM2,54.893C2,50.881,3.8,48,7.905,48s5.912,2.881,5.912,6.893v13.94c0,3.973-1.814,6.893-5.912,6.893S2,72.805,2,68.833Z" fill="#24395a"/>
    <path id="Path_136" data-name="Path 136" d="M18.374,65.6v3.31c0,3,1.19,5.141,4.179,5.141,2.96,0,4.135-2.142,4.135-5.141V65.6c0-2.921-1.175-5.1-4.135-5.1C19.564,60.5,18.374,62.683,18.374,65.6Zm9.968-10.827v.312H26.659v-.428c0-2.921-1.117-5.025-4.062-5.025-3.032,0-4.222,2.181-4.222,5.374v6.309a5.09,5.09,0,0,1,4.788-2.493c3.758,0,5.3,2.844,5.3,6.66v3.349c0,3.973-1.8,6.893-5.905,6.893-4.135,0-5.949-2.921-5.949-6.893V54.97c0-4.089,1.77-6.97,5.949-6.97,4.106,0,5.789,2.8,5.789,6.776Z" fill="#24395a"/>
    <path id="Path_137" data-name="Path 137" d="M142.675,33.222V89.036L94.336,116.942,46,89.036V33.222L94.336,5.315l48.336,27.907Z" fill="#fff" opacity="0.6"/>
    <path id="Path_138" data-name="Path 138" d="M94.336,0l-2.5,1.443L43.5,29.35,41,30.793V92.38l2.5,1.444L91.836,121.73l2.5,1.444,2.5-1.444,48.336-27.906,2.5-1.444V30.793l-2.5-1.443L96.836,1.443Zm0,5.773L142.672,33.68V89.494L94.336,117.4,46,89.494V33.68Z" fill="#24395a"/>
    <path id="Path_139" data-name="Path 139" d="M104.636,38.5H85.066a.888.888,0,0,0,0,1.776h19.57a.888.888,0,1,0,0-1.776Z" fill="#00a4ce" opacity="0.6"/>
    <path id="Path_140" data-name="Path 140" d="M104.636,32.972H85.066a.889.889,0,0,0,0,1.777h19.57a.889.889,0,0,0,0-1.777Z" fill="#00a4ce" opacity="0.6"/>
    <path id="Path_141" data-name="Path 141" d="M79.543,71.273a.889.889,0,0,0,.888.889h28.834a.888.888,0,0,0,0-1.777H80.431a.888.888,0,0,0-.888.888Z" fill="#00a4ce"/>
    <path id="Path_142" data-name="Path 142" d="M95.155,52.513a1.221,1.221,0,0,1-.434-.673l-1.15-4.711A2,2,0,0,0,91.628,45.6H78.876V29.827a.167.167,0,0,1,.013-.065.173.173,0,0,1,.062-.075.163.163,0,0,1,.094-.028H110.68a.157.157,0,0,1,.066.013.169.169,0,0,1,.075.062.161.161,0,0,1,.028.093V52.775H95.912A1.216,1.216,0,0,1,95.155,52.513Zm24.014.6a2,2,0,0,0-1.118-.342h-5.425V29.827a1.946,1.946,0,0,0-1.946-1.945H79.045A1.946,1.946,0,0,0,77.1,29.827V45.6H71.675a2,2,0,0,0-2,2V60.126a.888.888,0,0,0,1.776,0V47.6a.214.214,0,0,1,.017-.087.231.231,0,0,1,.082-.1.21.21,0,0,1,.124-.037H91.628a.216.216,0,0,1,.138.048.21.21,0,0,1,.079.122l1.15,4.71a3,3,0,0,0,2.917,2.29h22.139a.216.216,0,0,1,.086.017.25.25,0,0,1,.1.082.222.222,0,0,1,.037.125V79.1H71.453V66.047a.888.888,0,0,0-1.776,0V79.3a1.579,1.579,0,0,0,1.581,1.581h47.211a1.583,1.583,0,0,0,1.582-1.581V54.775a2,2,0,0,0-.881-1.658Z" fill="#00a4ce"/>
    <path id="Path_143" data-name="Path 143" d="M83.943,62.493a1.4,1.4,0,0,0-.484-1.132,2.353,2.353,0,0,0-1.538-.406H77.766v6h.665V64.377h3.491a2.353,2.353,0,0,0,1.538-.406,1.4,1.4,0,0,0,.484-1.132Zm-5.512-.916h3.456a3.133,3.133,0,0,1,.674.061,1.068,1.068,0,0,1,.423.181.633.633,0,0,1,.216.294,1.089,1.089,0,0,1,.069.406v.294a1.09,1.09,0,0,1-.069.406.633.633,0,0,1-.216.294,1.068,1.068,0,0,1-.423.181,3.133,3.133,0,0,1-.674.06H78.431ZM91.119,64.2a6.607,6.607,0,0,1-.078,1.14,1.061,1.061,0,0,1-.32.639A1.354,1.354,0,0,1,90,66.26a10.725,10.725,0,0,1-1.287.061h-.942a10.955,10.955,0,0,1-1.3-.061,1.354,1.354,0,0,1-.726-.276,1.1,1.1,0,0,1-.328-.639,7.423,7.423,0,0,1-.069-1.14v-.518a7.5,7.5,0,0,1,.069-1.149,1.065,1.065,0,0,1,.328-.639,1.311,1.311,0,0,1,.726-.285,10.934,10.934,0,0,1,1.3-.06h.942q.536,0,.924.026a3.138,3.138,0,0,1,.657.1,1.017,1.017,0,0,1,.432.216.863.863,0,0,1,.251.38,2.149,2.149,0,0,1,.112.579q.034.346.035.829Zm-3.352,2.747h.95a9.121,9.121,0,0,0,1.529-.1,1.828,1.828,0,0,0,.916-.415,1.547,1.547,0,0,0,.458-.838,6.52,6.52,0,0,0,.121-1.391v-.518a6.52,6.52,0,0,0-.121-1.391,1.552,1.552,0,0,0-.458-.847,1.735,1.735,0,0,0-.916-.415,8.43,8.43,0,0,0-1.529-.112h-.95a8.639,8.639,0,0,0-1.547.112,1.787,1.787,0,0,0-.924.415,1.58,1.58,0,0,0-.449.847,6.519,6.519,0,0,0-.121,1.391V64.2a6.519,6.519,0,0,0,.121,1.391,1.575,1.575,0,0,0,.449.838,1.884,1.884,0,0,0,.924.415A9.348,9.348,0,0,0,87.767,66.952Zm7.3-6-3.11,6h.7l.743-1.443h4.268l.743,1.443h.726l-3.11-6Zm.475.441,1.806,3.49H93.736Zm4.119-.441v6h.622V61.431h.337l3.163,5.521h.432l3.222-5.521h.337v5.521h.622v-6h-1.339l-3.033,5.115-2.954-5.115Z" fill="#00a99d"/>
  </g>
</svg>
