<svg xmlns="http://www.w3.org/2000/svg" width="146.217" height="124.37" viewBox="0 0 146.217 124.37">
  <g id="_07" data-name="07" transform="translate(-1076.239 -522.609)" opacity="0.7">
    <g id="Group_13" data-name="Group 13" transform="translate(-4.151 -4.232)">
      <path id="Path_18" data-name="Path 18" d="M1203.35,596.945c0,2.766,1.124,4.777,3.934,4.777s3.934-2.011,3.934-4.777V583.909c0-2.731-1.137-4.741-3.934-4.741s-3.934,2.01-3.934,4.741v13.036Zm-1.673-12.929c0-3.7,1.713-6.358,5.607-6.358s5.607,2.658,5.607,6.358v12.857c0,3.664-1.713,6.358-5.607,6.358s-5.607-2.694-5.607-6.358V584.016Z" fill="#0265ae"/>
      <path id="Path_19" data-name="Path 19" d="M1221.4,579.338h-9.367v-1.546H1223.1v1.51l-7.173,23.668h-1.7l7.173-23.632Z" transform="translate(3.503 0.046)" fill="#0265ae"/>
    </g>
    <path id="Path_27" data-name="Path 27" d="M1178.947,556.588V613l-48.855,28.206L1081.239,613V556.588l48.853-28.206,48.855,28.206Z" fill="#fff"/>
    <path id="Path_37" data-name="Path 37" d="M1130.092,522.609l-2.5,1.443-48.853,28.206-2.5,1.444v62.185l2.5,1.443,48.853,28.206,2.5,1.443,2.5-1.443,48.855-28.206,2.5-1.443V553.7l-2.5-1.444-48.855-28.206-2.5-1.443Zm0,5.773,48.855,28.206V613l-48.855,28.206L1081.239,613V556.588l48.853-28.206" fill="#0265ae"/>
    <path id="Path_130" data-name="Path 130" d="M1143.021,557.461h0Zm3.568,8.9Zm.074-.116Zm-5.438,6.408Zm10.471,18.13a.583.583,0,0,1,.254.209.574.574,0,0,1,.1.321v13.637a.564.564,0,0,1-.045.224.578.578,0,0,1-.21.254.568.568,0,0,1-.32.1h-26.064a1.528,1.528,0,0,1-.143-.075,5.03,5.03,0,0,1-.506-.354,9.35,9.35,0,0,1-.814-.72c-.064-.065-.123-.126-.175-.183a14.154,14.154,0,0,0,5.585-13.456h22.117a.559.559,0,0,1,.223.045Zm1.821-35.052a1.617,1.617,0,0,0-.921-.285h-.05l-2.494.073-7.082.208h0a1.636,1.636,0,0,0-1.1.476h0l-21.782,21.782a3.02,3.02,0,0,1-2.133.886,2.981,2.981,0,0,1-.45-.034h0a14.17,14.17,0,0,0-4.008-.036.869.869,0,1,0,.231,1.723,12.276,12.276,0,0,1,1.648-.11,12.452,12.452,0,0,1,1.869.141h0a4.742,4.742,0,0,0,4.073-1.341l21.751-21.752,4.853-.143-23.421,23.422a.869.869,0,0,0,1.229,1.229l24.724-24.725,2.011-.059-1.429,6-4.949,1.514h0a1.632,1.632,0,0,0-1.154,1.56,1.6,1.6,0,0,0,.013.205h0l.31,2.453-4.813,2.227h0a1.635,1.635,0,0,0-.89,1.052h0l-1.535,5.637-9.043,9.043h0a4.728,4.728,0,0,0-1.034,1.559,4.826,4.826,0,0,0-.355,1.819,4.9,4.9,0,0,0,.054.723h0a12.382,12.382,0,0,1-3.766,10.876,12.308,12.308,0,0,1-3.993,2.522,12.506,12.506,0,0,1-8.968.019,12.284,12.284,0,0,1-3.962-2.467,12.4,12.4,0,0,1-.349-17.878,12.58,12.58,0,0,1,1.712-1.431.869.869,0,1,0-.99-1.428h0a14.144,14.144,0,0,0,14.979,23.959c.036.044.074.088.113.133.168.19.368.391.588.6a10.159,10.159,0,0,0,1.067.867,4.273,4.273,0,0,0,.554.331,2.246,2.246,0,0,0,.307.123,1.365,1.365,0,0,0,.406.065h26.14a2.279,2.279,0,0,0,.9-.182,2.312,2.312,0,0,0,1.412-2.131V591.309a2.314,2.314,0,0,0-2.312-2.313h-21.889a3,3,0,0,1,.615-.9h0l9.062-9.062,0,0a1.645,1.645,0,0,0,.423-.723v0l1.53-5.618,4.838-2.239a1.629,1.629,0,0,0,.947-1.48,1.521,1.521,0,0,0-.013-.2v0l-.309-2.441,4.92-1.505a1.633,1.633,0,0,0,1.111-1.182h0l1.476-6.192a1.657,1.657,0,0,0,.045-.381,1.637,1.637,0,0,0-.71-1.344Z" fill="#00a4ce"/>
    <path id="Path_132" data-name="Path 132" d="M1110.315,593.181a3.557,3.557,0,0,1,.849-1.213,3.513,3.513,0,0,1,1.144-.719,3.629,3.629,0,0,1,2.6,0,3.512,3.512,0,0,1,1.144.719,3.569,3.569,0,0,1-1.144,5.937,3.63,3.63,0,0,1-2.6,0,3.528,3.528,0,0,1-1.144-.718h0a3.578,3.578,0,0,1-.849-4.006Zm-1.6,3.47a5.3,5.3,0,0,0,1.26,1.8l.594-.634-.594.634a5.252,5.252,0,0,0,1.708,1.073,5.372,5.372,0,0,0,3.846,0,5.307,5.307,0,0,0,2.968-2.876,5.307,5.307,0,0,0-1.26-5.95,5.238,5.238,0,0,0-1.708-1.073,5.358,5.358,0,0,0-3.846,0,5.237,5.237,0,0,0-1.708,1.073,5.312,5.312,0,0,0-1.26,5.95Z" fill="#00a4ce"/>
    <path id="Path_133" data-name="Path 133" d="M1135.018,601.32h13.575a.869.869,0,0,0,0-1.738h-13.575a.869.869,0,0,0,0,1.738Z" fill="#00a4ce"/>
    <path id="Path_134" data-name="Path 134" d="M1135.018,595.795h13.575a.869.869,0,1,0,0-1.738h-13.575a.869.869,0,0,0,0,1.738Z" fill="#00a4ce"/>
  </g>
</svg>
