<svg width="147" height="125" viewBox="0 0 147 125" fill="none" xmlns="http://www.w3.org/2000/svg">
<g clip-path="url(#clip0)">
<path opacity="0.7" d="M1.67297 70.1044C1.67297 72.8704 2.79706 74.8813 5.60706 74.8813C8.41706 74.8813 9.54102 72.8704 9.54102 70.1044V57.0684C9.54102 54.3374 8.40406 52.3274 5.60706 52.3274C2.81006 52.3274 1.67297 54.3374 1.67297 57.0684V70.1044ZM0 57.1754C0 53.4754 1.71306 50.8174 5.60706 50.8174C9.50106 50.8174 11.214 53.4754 11.214 57.1754V70.0323C11.214 73.6963 9.50106 76.3904 5.60706 76.3904C1.71306 76.3904 0 73.6963 0 70.0323V57.1754Z" fill="#0265AE"/>
<path opacity="0.7" d="M23.2264 52.5431H13.8594V50.9971H24.9264V52.5071L17.7534 76.175H16.0535L23.2264 52.5431Z" fill="#0265AE"/>
<path opacity="0.7" d="M140.708 33.9794V90.3914L91.853 118.597L43 90.3914V33.9794L91.853 5.77344L140.708 33.9794Z" fill="white"/>
<path opacity="0.7" d="M91.853 6.10303e-05L89.353 1.44305L40.5 29.649L38 31.0931V93.2781L40.5 94.7211L89.353 122.927L91.853 124.37L94.353 122.927L143.208 94.7211L145.708 93.2781V31.0911L143.208 29.647L94.353 1.44104L91.853 -0.00195312V6.10303e-05ZM91.853 5.77307L140.708 33.9791V90.3911L91.853 118.597L43 90.3911V33.9791L91.853 5.77307Z" fill="#0265AE"/>
<path opacity="0.7" d="M113.457 68.174C113.56 68.2178 113.648 68.2903 113.711 68.3829C113.775 68.4776 113.81 68.5893 113.811 68.7039V82.3409C113.811 82.4179 113.796 82.4941 113.766 82.5649C113.722 82.6682 113.649 82.7564 113.556 82.8189C113.461 82.8837 113.35 82.9186 113.236 82.9189H87.1716C87.1227 82.8965 87.0749 82.8714 87.0286 82.8439C86.8528 82.7364 86.6838 82.6182 86.5226 82.4899C86.2375 82.2659 85.9658 82.0255 85.7086 81.77C85.6446 81.705 85.5856 81.6439 85.5336 81.5869C87.5969 80.061 89.2065 78.0029 90.1903 75.6327C91.1741 73.2625 91.495 70.6694 91.1187 68.1309H113.236C113.312 68.1305 113.388 68.1458 113.459 68.1759L113.457 68.174ZM115.278 33.122C115.007 32.9355 114.685 32.8361 114.357 32.8369H114.307L111.813 32.9099L104.731 33.1179C104.317 33.1317 103.924 33.3018 103.631 33.5939L81.8486 55.3759C81.2831 55.9422 80.5159 56.2609 79.7156 56.2619C79.5649 56.262 79.4146 56.2506 79.2656 56.2279C77.9381 56.0261 76.5885 56.014 75.2576 56.192C75.1444 56.2071 75.0355 56.2444 74.9368 56.3017C74.8381 56.359 74.7515 56.4352 74.6823 56.5259C74.613 56.6167 74.5622 56.7201 74.533 56.8305C74.5037 56.9408 74.4964 57.0558 74.5116 57.169C74.5268 57.2821 74.564 57.3911 74.6213 57.4898C74.6787 57.5885 74.7549 57.675 74.8456 57.7443C74.9363 57.8135 75.0398 57.8643 75.1502 57.8936C75.2605 57.9228 75.3755 57.9301 75.4887 57.9149C76.0349 57.8413 76.5854 57.8046 77.1366 57.8049C77.7623 57.8049 78.387 57.852 79.0056 57.9459C79.7421 58.0581 80.4948 57.9951 81.2024 57.7621C81.91 57.5291 82.5528 57.1327 83.0786 56.6049L104.83 34.8529L109.683 34.7099L86.2616 58.132C86.0986 58.2949 86.0071 58.516 86.0071 58.7465C86.0071 58.9769 86.0986 59.1979 86.2616 59.3609C86.4246 59.5239 86.6456 59.6155 86.8761 59.6155C87.1066 59.6155 87.3276 59.5239 87.4906 59.3609L112.215 34.6359L114.226 34.5769L112.797 40.5769L107.848 42.0909C107.514 42.1933 107.221 42.4 107.014 42.6808C106.806 42.9616 106.694 43.3017 106.694 43.6509C106.694 43.7195 106.698 43.788 106.707 43.856L107.017 46.309L102.204 48.536C101.988 48.636 101.796 48.7819 101.642 48.9636C101.489 49.1453 101.376 49.3584 101.314 49.588L99.7786 55.2249L90.7356 64.268C90.2905 64.7136 89.9391 65.2436 89.7017 65.8269C89.4669 66.4046 89.3464 67.0224 89.3467 67.6459C89.3468 67.8879 89.3648 68.1296 89.4006 68.369C89.7003 70.3513 89.5141 72.3767 88.8582 74.2711C88.2022 76.1656 87.096 77.8724 85.6346 79.2449C84.4789 80.3355 83.1229 81.1919 81.6416 81.7669C78.7574 82.8817 75.5625 82.8885 72.6736 81.786C71.2074 81.2244 69.8625 80.3869 68.7117 79.3189C67.4853 78.1856 66.5004 76.8162 65.8162 75.2929C65.132 73.7696 64.7626 72.1238 64.73 70.4542C64.6974 68.7847 65.0024 67.1257 65.6266 65.5769C66.2508 64.0281 67.1815 62.6213 68.3627 61.4409C68.8898 60.9142 69.4627 60.4353 70.0746 60.01C70.171 59.9461 70.2537 59.8636 70.3179 59.7673C70.382 59.6711 70.4263 59.563 70.4481 59.4494C70.4699 59.3358 70.469 59.219 70.4451 59.1058C70.4212 58.9927 70.3749 58.8853 70.309 58.7903C70.2431 58.6952 70.1588 58.6143 70.0612 58.5523C69.9636 58.4902 69.8546 58.4482 69.7406 58.4288C69.6266 58.4094 69.5097 58.4129 69.3971 58.4392C69.2845 58.4655 69.1782 58.514 69.0846 58.5819C66.0976 60.6531 64.0226 63.7948 63.2902 67.3551C62.5577 70.9154 63.2241 74.621 65.151 77.7031C67.0779 80.7852 70.1174 83.0072 73.6389 83.908C77.1604 84.8088 80.8934 84.3192 84.0636 82.541C84.0996 82.585 84.1376 82.629 84.1766 82.674C84.3446 82.864 84.5447 83.0649 84.7647 83.2739C85.1003 83.5867 85.4568 83.8764 85.8317 84.1409C86.0077 84.2651 86.1929 84.3757 86.3856 84.4719C86.4848 84.5204 86.5874 84.5615 86.6926 84.5949C86.8239 84.637 86.9608 84.6589 87.0986 84.6599H113.239C113.548 84.6609 113.854 84.599 114.139 84.4779C114.558 84.3009 114.915 84.0043 115.166 83.6253C115.417 83.2463 115.551 82.8016 115.551 82.3469V68.7C115.55 68.0868 115.307 67.4988 114.873 67.0651C114.44 66.6314 113.852 66.3874 113.239 66.3869H91.3496C91.4979 66.0519 91.7064 65.7469 91.9646 65.4869L101.027 56.4249C101.228 56.2245 101.373 55.9754 101.45 55.7019L102.98 50.0839L107.818 47.8449C108.1 47.7145 108.34 47.5058 108.508 47.2435C108.676 46.9812 108.765 46.6763 108.765 46.3649C108.765 46.2981 108.76 46.2312 108.752 46.1649L108.443 43.7239L113.363 42.2189C113.635 42.1358 113.88 41.983 114.075 41.7756C114.27 41.5683 114.407 41.3137 114.474 41.0369L115.95 34.8449C115.979 34.7201 115.994 34.5922 115.995 34.4639C115.994 34.1992 115.929 33.9386 115.805 33.7045C115.681 33.4705 115.503 33.2699 115.285 33.1199L115.278 33.122Z" fill="#00A4CE"/>
<path opacity="0.7" d="M72.0757 70.5722C72.2705 70.1128 72.5598 69.6995 72.9247 69.3592C73.2559 69.0477 73.6445 68.8036 74.0687 68.6402C74.9057 68.3191 75.8318 68.3191 76.6687 68.6402C77.093 68.8035 77.4816 69.0477 77.8128 69.3592C78.2546 69.7714 78.5845 70.289 78.7716 70.8635C78.9587 71.438 78.9969 72.0507 78.8826 72.644C78.7683 73.2373 78.5051 73.7919 78.1179 74.2558C77.7307 74.7197 77.2321 75.0777 76.6687 75.2962C75.8318 75.6172 74.9057 75.6172 74.0687 75.2962C73.6447 75.1328 73.2562 74.8889 72.9247 74.5782C72.3903 74.0776 72.0223 73.425 71.8705 72.7086C71.7187 71.9922 71.7903 71.2466 72.0757 70.5722ZM70.4757 74.0422C70.7654 74.7236 71.1946 75.3367 71.7357 75.8421L72.3297 75.2082L71.7357 75.8421C72.2304 76.3068 72.8104 76.6712 73.4437 76.9151C74.6818 77.3898 76.0517 77.3898 77.2898 76.9151C77.9517 76.6586 78.5554 76.2719 79.0652 75.7779C79.575 75.2839 79.9805 74.6927 80.2577 74.0392C80.6828 73.0378 80.79 71.93 80.5646 70.8658C80.3392 69.8015 79.7924 68.8322 78.9978 68.0892C78.5034 67.6242 77.9233 67.2598 77.2898 67.0162C76.052 66.5402 74.6816 66.5402 73.4437 67.0162C72.8103 67.2598 72.2302 67.6242 71.7357 68.0892C70.9418 68.8326 70.3953 69.8019 70.1699 70.866C69.9446 71.9301 70.0513 73.0377 70.4757 74.0392V74.0422Z" fill="#00A4CE"/>
<path opacity="0.7" d="M96.7791 78.7107H110.354C110.585 78.7107 110.806 78.6191 110.969 78.4562C111.132 78.2932 111.223 78.0721 111.223 77.8417C111.223 77.6112 111.132 77.3902 110.969 77.2272C110.806 77.0643 110.585 76.9727 110.354 76.9727H96.7791C96.5486 76.9727 96.3276 77.0643 96.1647 77.2272C96.0017 77.3902 95.9102 77.6112 95.9102 77.8417C95.9102 78.0721 96.0017 78.2932 96.1647 78.4562C96.3276 78.6191 96.5486 78.7107 96.7791 78.7107Z" fill="#00A4CE"/>
<path opacity="0.7" d="M96.7791 73.1862H110.354C110.585 73.1862 110.806 73.0947 110.969 72.9317C111.132 72.7687 111.223 72.5477 111.223 72.3173C111.223 72.0868 111.132 71.8657 110.969 71.7028C110.806 71.5398 110.585 71.4482 110.354 71.4482H96.7791C96.5486 71.4482 96.3276 71.5398 96.1647 71.7028C96.0017 71.8657 95.9102 72.0868 95.9102 72.3173C95.9102 72.5477 96.0017 72.7687 96.1647 72.9317C96.3276 73.0947 96.5486 73.1862 96.7791 73.1862Z" fill="#00A4CE"/>
</g>
<defs>
<clipPath id="clip0">
<rect width="147" height="125" fill="white"/>
</clipPath>
</defs>
</svg>
