<svg xmlns="http://www.w3.org/2000/svg" width="147.12" height="123.175" viewBox="0 0 147.12 123.175">
  <g id="_08" data-name="08" transform="translate(-1002.342 -638.399)">
    <g id="Group_14" data-name="Group 14" transform="translate(-3.555 -3.662)">
      <path id="Path_20" data-name="Path 20" d="M1129.049,708.312c0,2.859,1.14,4.94,3.975,4.94s3.975-2.08,3.975-4.94V694.835c0-2.82-1.148-4.9-3.975-4.9s-3.975,2.08-3.975,4.9v13.477Zm-1.695-13.365c0-3.823,1.73-6.572,5.67-6.572s5.663,2.748,5.663,6.572v13.292c0,3.787-1.729,6.572-5.663,6.572s-5.67-2.784-5.67-6.572V694.947Z" fill="#7f87c2"/>
      <path id="Path_21" data-name="Path 21" d="M1139.138,706.382v1.968c0,3.007,1.355,4.9,4.164,4.9s4.122-1.894,4.15-4.9v-1.968c0-3.044-1.355-4.567-4.15-4.567-2.836,0-4.164,1.523-4.164,4.567Zm0-11.658V695.8c0,2.932,1.439,4.454,4.164,4.454s4.15-1.522,4.15-4.454v-1.078c0-3.045-1.439-4.79-4.15-4.79-2.767,0-4.164,1.746-4.164,4.79Zm10.015-.037v.818c0,2.672-1,4.79-3.43,5.457,2.5.743,3.43,2.859,3.43,5.569v1.856c0,3.825-1.923,6.424-5.851,6.424-3.984,0-5.865-2.6-5.865-6.424V706.53c0-2.747.885-4.789,3.472-5.569-2.5-.705-3.472-2.71-3.472-5.457v-.818c0-3.861,1.95-6.312,5.865-6.312,3.859,0,5.851,2.451,5.851,6.312Z" transform="translate(3.864)" fill="#7f87c2"/>
    </g>
    <path id="Path_28" data-name="Path 28" d="M1104.014,672.08v55.813L1055.678,755.8l-48.336-27.907V672.08l48.336-27.907,48.336,27.907Z" fill="#fff"/>
    <path id="Path_38" data-name="Path 38" d="M1055.678,638.4l-2.5,1.443-48.336,27.907-2.5,1.444V730.78l2.5,1.443,48.336,27.907,2.5,1.444,2.5-1.444,48.336-27.907,2.5-1.443V669.193l-2.5-1.444-48.336-27.907-2.5-1.443Zm0,5.774,48.336,27.907v55.813L1055.678,755.8l-48.336-27.907V672.08l48.336-27.907" fill="#7f87c2"/>
    <g id="NewGroupe7">
      <g id="NewGroup0-2">
        <g id="Group_5" data-name="Group 5">
          <path id="Path_107" data-name="Path 107" d="M1071.282,676.42Zm3.568,8.9Zm.074-.116Zm-5.439,6.408Zm10.472,18.13a.58.58,0,0,1,.253.209.559.559,0,0,1,.1.321v13.637a.566.566,0,0,1-.045.224.582.582,0,0,1-.209.254.574.574,0,0,1-.321.1H1053.67a1.614,1.614,0,0,1-.143-.076,4.744,4.744,0,0,1-.506-.353,9.358,9.358,0,0,1-.814-.72c-.065-.065-.124-.127-.176-.183a13.917,13.917,0,0,0,1.29-1.078,14.139,14.139,0,0,0,4.295-12.378h22.117a.568.568,0,0,1,.224.045Zm1.82-35.052a1.617,1.617,0,0,0-.921-.285h-.049l-2.494.073-7.082.209h0a1.637,1.637,0,0,0-1.1.475l0,0-21.781,21.782a3.02,3.02,0,0,1-2.133.886,2.977,2.977,0,0,1-.451-.034h0a14.177,14.177,0,0,0-4.009-.036.869.869,0,0,0,.231,1.723,12.289,12.289,0,0,1,1.648-.11,12.452,12.452,0,0,1,1.869.141h0a4.758,4.758,0,0,0,4.073-1.341l21.752-21.752,4.853-.143L1052.755,699.7a.869.869,0,0,0,1.229,1.229l24.724-24.726,2.012-.059-1.43,6-4.949,1.514h0a1.632,1.632,0,0,0-1.154,1.56,1.569,1.569,0,0,0,.013.2h0l.311,2.453L1068.7,690.1h0a1.63,1.63,0,0,0-.89,1.052h0l-1.536,5.636-9.042,9.043h0a4.719,4.719,0,0,0-1.034,1.559,4.827,4.827,0,0,0-.355,1.819,4.884,4.884,0,0,0,.054.722h0a12.375,12.375,0,0,1-3.766,10.876,12.268,12.268,0,0,1-3.993,2.521,12.5,12.5,0,0,1-8.968.02,12.379,12.379,0,0,1-7.943-11.563,12.433,12.433,0,0,1,5.344-10.213.869.869,0,1,0-.99-1.428h0a14.132,14.132,0,0,0-1.553,22.011,14.01,14.01,0,0,0,4.521,2.815,14.227,14.227,0,0,0,10.218-.022,13.792,13.792,0,0,0,1.793-.846c.036.045.074.089.114.134a8.347,8.347,0,0,0,.588.595,9.711,9.711,0,0,0,1.067.867,4.477,4.477,0,0,0,.553.332,2.261,2.261,0,0,0,.307.123,1.375,1.375,0,0,0,.406.065h26.14a2.313,2.313,0,0,0,2.313-2.313V710.268a2.313,2.313,0,0,0-2.313-2.313h-21.888a2.975,2.975,0,0,1,.614-.9h0l9.062-9.062,0,0a1.631,1.631,0,0,0,.422-.724v0l1.53-5.618,4.839-2.239a1.63,1.63,0,0,0,.946-1.481,1.7,1.7,0,0,0-.012-.2v0l-.31-2.442,4.92-1.505a1.628,1.628,0,0,0,1.111-1.181h0l1.475-6.192a1.627,1.627,0,0,0-.665-1.724Z" fill="#00a4ce"/>
          <path id="Path_108" data-name="Path 108" d="M1079.856,683.784h0Z" fill="#00a4ce"/>
          <path id="Path_109" data-name="Path 109" d="M1038.575,712.14a3.555,3.555,0,0,1,.849-1.213,3.513,3.513,0,0,1,1.144-.719,3.633,3.633,0,0,1,2.6,0,3.512,3.512,0,0,1,1.144.719,3.57,3.57,0,0,1,0,5.218,3.513,3.513,0,0,1-1.144.719,3.633,3.633,0,0,1-2.6,0,3.514,3.514,0,0,1-1.144-.719h0a3.577,3.577,0,0,1-.849-4.005Zm-1.6,3.47a5.312,5.312,0,0,0,1.26,1.8l.594-.634-.594.634a5.272,5.272,0,0,0,1.708,1.072,5.358,5.358,0,0,0,3.846,0,5.3,5.3,0,0,0,2.969-2.875,5.31,5.31,0,0,0-1.26-5.951,5.265,5.265,0,0,0-1.709-1.072,5.358,5.358,0,0,0-3.846,0,5.3,5.3,0,0,0-2.968,2.875,5.332,5.332,0,0,0,0,4.148Z" fill="#00a4ce"/>
          <path id="Path_110" data-name="Path 110" d="M1063.279,720.279h13.575a.869.869,0,1,0,0-1.738h-13.575a.869.869,0,1,0,0,1.738Z" fill="#00a4ce"/>
          <path id="Path_111" data-name="Path 111" d="M1063.279,714.754h13.575a.869.869,0,1,0,0-1.738h-13.575a.869.869,0,1,0,0,1.738Z" fill="#00a4ce"/>
        </g>
      </g>
    </g>
  </g>
</svg>
