<svg width="148" height="124" viewBox="0 0 148 124" fill="none" xmlns="http://www.w3.org/2000/svg">
<g clip-path="url(#clip0)">
<path d="M2.69495 66.2515C2.69495 69.1105 3.83504 71.1915 6.67004 71.1915C9.50504 71.1915 10.645 69.1115 10.645 66.2515V52.7745C10.645 49.9545 9.49704 47.8745 6.67004 47.8745C3.84304 47.8745 2.69495 49.9545 2.69495 52.7745V66.2515ZM1 52.8865C1 49.0635 2.73004 46.3145 6.67004 46.3145C10.61 46.3145 12.333 49.0625 12.333 52.8865V66.1785C12.333 69.9655 10.604 72.7504 6.67004 72.7504C2.73604 72.7504 1 69.9665 1 66.1785V52.8865Z" fill="#7F87C2"/>
<path d="M16.6482 64.3215V66.2894C16.6482 69.2964 18.0033 71.1895 20.8123 71.1895C23.6213 71.1895 24.9343 69.2954 24.9623 66.2894V64.3215C24.9623 61.2775 23.6073 59.7545 20.8123 59.7545C17.9763 59.7545 16.6482 61.2775 16.6482 64.3215ZM16.6482 52.6635V53.7394C16.6482 56.6714 18.0873 58.1935 20.8123 58.1935C23.5373 58.1935 24.9623 56.6714 24.9623 53.7394V52.6614C24.9623 49.6164 23.5233 47.8715 20.8123 47.8715C18.0453 47.8715 16.6482 49.6174 16.6482 52.6614V52.6635ZM26.6632 52.6265V53.4445C26.6632 56.1165 25.6633 58.2344 23.2333 58.9014C25.7333 59.6444 26.6632 61.7605 26.6632 64.4705V66.3265C26.6632 70.1515 24.7403 72.7504 20.8123 72.7504C16.8283 72.7504 14.9473 70.1505 14.9473 66.3265V64.4695C14.9473 61.7225 15.8323 59.6805 18.4193 58.9005C15.9193 58.1955 14.9473 56.1905 14.9473 53.4435V52.6254C14.9473 48.7644 16.8973 46.3135 20.8123 46.3135C24.6713 46.3135 26.6632 48.7644 26.6632 52.6254V52.6265Z" fill="#7F87C2"/>
<path d="M141.215 33.6815V89.4944L92.879 117.401L44.543 89.4944V33.6815L92.879 5.77441L141.215 33.6815V33.6815Z" fill="white"/>
<path d="M92.879 0.0010376L90.379 1.44403L42.043 29.351L39.543 30.795V92.381L42.043 93.824L90.379 121.731L92.879 123.175L95.379 121.731L143.715 93.824L146.215 92.381V30.794L143.715 29.35L95.379 1.44299L92.879 0V0.0010376ZM92.879 5.77502L141.215 33.682V89.495L92.879 117.401L44.543 89.494V33.681L92.879 5.77399" fill="#7F87C2"/>
<path d="M117.159 71.3428C117.262 71.3867 117.349 71.4593 117.412 71.5518C117.477 71.646 117.512 71.7581 117.512 71.8728V85.5098C117.512 85.5868 117.497 85.663 117.467 85.7338C117.423 85.8368 117.35 85.925 117.258 85.9879C117.163 86.0525 117.051 86.0873 116.937 86.0878H90.8718C90.8229 86.0649 90.7751 86.0396 90.7288 86.0118C90.5526 85.9053 90.3836 85.7873 90.2228 85.6588C89.9377 85.4348 89.666 85.1944 89.4088 84.9388C89.3438 84.8738 89.2848 84.8119 89.2328 84.7559C89.6841 84.4229 90.115 84.0629 90.5228 83.6779C92.1843 82.1143 93.4427 80.1718 94.1906 78.0164C94.9385 75.8609 95.1537 73.5565 94.8178 71.2998H116.935C117.012 71.2995 117.088 71.3148 117.159 71.3449V71.3428ZM118.979 36.2908C118.708 36.1044 118.387 36.005 118.058 36.0059H118.009L115.515 36.0789L108.433 36.2878C108.019 36.3015 107.626 36.4712 107.333 36.7628V36.7628L85.5518 58.5448C84.9863 59.1111 84.2191 59.4298 83.4188 59.4309C83.2679 59.431 83.117 59.4196 82.9678 59.3969V59.3969C81.6399 59.195 80.29 59.1829 78.9588 59.3608C78.7303 59.3915 78.5233 59.5116 78.3834 59.6948C78.2435 59.8781 78.1822 60.1094 78.2128 60.3378C78.2434 60.5663 78.3635 60.7733 78.5468 60.9132C78.73 61.0531 78.9614 61.1144 79.1898 61.0838C79.7361 61.0102 80.2866 60.9735 80.8378 60.9738C81.4634 60.9738 82.0882 61.0209 82.7068 61.1148C83.4433 61.2257 84.1955 61.1621 84.903 60.9292C85.6104 60.6963 86.2532 60.3005 86.7798 59.7738L108.532 38.0219L113.385 37.8789L89.9568 61.3008C89.8761 61.3815 89.8121 61.4773 89.7684 61.5828C89.7248 61.6882 89.7023 61.8012 89.7023 61.9153C89.7023 62.0295 89.7248 62.1425 89.7684 62.2479C89.8121 62.3534 89.8761 62.4492 89.9568 62.5299C90.0375 62.6105 90.1333 62.6745 90.2388 62.7182C90.3442 62.7619 90.4572 62.7844 90.5713 62.7844C90.6854 62.7844 90.7984 62.7619 90.9038 62.7182C91.0093 62.6745 91.1051 62.6105 91.1858 62.5299L115.91 37.8038L117.922 37.7448L116.492 43.7448L111.543 45.2589C111.209 45.3612 110.916 45.5679 110.709 45.8487C110.501 46.1295 110.389 46.4696 110.389 46.8189C110.389 46.8857 110.393 46.9525 110.402 47.0189V47.0189L110.713 49.4718L105.902 51.7008C105.686 51.8005 105.494 51.9464 105.34 52.1282C105.186 52.3099 105.074 52.5231 105.012 52.7528V52.7528L103.476 58.3889L94.4339 67.4318C93.9886 67.8773 93.637 68.4074 93.3998 68.9908C93.1651 69.5686 93.0445 70.1862 93.0448 70.8098C93.0449 71.0515 93.0629 71.2929 93.0988 71.5319V71.5319C93.399 73.5142 93.2132 75.5398 92.5571 77.4343C91.9011 79.3289 90.7946 81.0357 89.3328 82.4078C88.1776 83.4988 86.8214 84.355 85.3397 84.9288C82.4558 86.0445 79.2607 86.0517 76.3718 84.9489C74.0335 84.0513 72.0224 82.4655 70.6043 80.4011C69.1861 78.3366 68.4276 75.8905 68.4288 73.3858C68.429 71.3785 68.9151 69.4011 69.8457 67.6226C70.7763 65.8441 72.1238 64.3174 73.7728 63.1729C73.8693 63.109 73.952 63.0265 74.0161 62.9302C74.0803 62.834 74.1246 62.7259 74.1464 62.6123C74.1682 62.4987 74.1671 62.3819 74.1432 62.2687C74.1193 62.1555 74.073 62.0483 74.0071 61.9532C73.9412 61.8581 73.857 61.7772 73.7594 61.7152C73.6618 61.6531 73.5528 61.6111 73.4387 61.5917C73.3247 61.5723 73.208 61.5758 73.0954 61.6021C72.9827 61.6284 72.8765 61.6769 72.7829 61.7448C71.0397 62.9491 69.5895 64.53 68.5398 66.3704C67.4901 68.2109 66.8678 70.2638 66.7186 72.3773C66.5695 74.4907 66.8975 76.6107 67.6784 78.5803C68.4592 80.5499 69.6729 82.3187 71.2298 83.7559C72.5429 84.9746 74.0776 85.9302 75.7507 86.5708C79.042 87.829 82.683 87.8212 85.9688 86.5488C86.586 86.3102 87.1853 86.0275 87.7619 85.7028C87.7979 85.7478 87.8357 85.7919 87.8757 85.8369C88.0617 86.0449 88.2579 86.2434 88.4638 86.4318C88.7985 86.7457 89.1551 87.0354 89.5308 87.2988C89.7069 87.4227 89.8917 87.5336 90.0838 87.6309C90.1829 87.6793 90.2856 87.7204 90.3908 87.7538C90.5221 87.7957 90.6589 87.8177 90.7968 87.8189H116.937C117.55 87.8189 118.139 87.5751 118.572 87.1414C119.006 86.7076 119.25 86.1193 119.25 85.5059V71.8688C119.25 71.2554 119.006 70.6671 118.572 70.2333C118.139 69.7995 117.55 69.5559 116.937 69.5559H95.0488C95.1964 69.2206 95.4045 68.9155 95.6629 68.6558V68.6558L104.725 59.5938C104.926 59.3934 105.072 59.1438 105.147 58.8698V58.8698L106.677 53.2518L111.516 51.0128C111.798 50.8821 112.038 50.6732 112.205 50.4107C112.373 50.1482 112.462 49.8433 112.462 49.5319C112.462 49.465 112.458 49.3982 112.45 49.3319V49.3319L112.14 46.8898L117.06 45.3848C117.332 45.3022 117.578 45.1497 117.773 44.9425C117.968 44.7353 118.105 44.4806 118.171 44.2039L119.646 38.0118C119.723 37.6909 119.701 37.3542 119.582 37.0463C119.463 36.7384 119.253 36.4739 118.981 36.2878L118.979 36.2908Z" fill="#00A4CE"/>
<path d="M75.7777 73.7411C75.9724 73.2817 76.2617 72.8684 76.6267 72.5281C76.9579 72.2167 77.3465 71.9725 77.7708 71.8091C78.6077 71.4884 79.5337 71.4884 80.3707 71.8091C80.795 71.9725 81.1836 72.2167 81.5148 72.5281C81.8724 72.8621 82.1575 73.2661 82.3524 73.7149C82.5474 74.1637 82.6479 74.6478 82.6479 75.1371C82.6479 75.6264 82.5474 76.1106 82.3524 76.5594C82.1575 77.0082 81.8724 77.4121 81.5148 77.7461C81.1836 78.0576 80.795 78.3017 80.3707 78.4651C79.5337 78.7859 78.6077 78.7859 77.7708 78.4651C77.3465 78.3017 76.9579 78.0576 76.6267 77.7461C76.0923 77.2457 75.7245 76.5933 75.5726 75.8771C75.4208 75.1609 75.4924 74.4154 75.7777 73.7411V73.7411ZM74.1777 77.2111C74.4677 77.8924 74.8969 78.5055 75.4377 79.0111L76.0317 78.3771L75.4377 79.0111C75.9328 79.475 76.5127 79.839 77.1458 80.0831C78.3836 80.5591 79.7539 80.5591 80.9917 80.0831C81.6539 79.8272 82.258 79.4408 82.7681 78.9469C83.2781 78.4531 83.6837 77.8618 83.9608 77.2081C84.3857 76.2066 84.4927 75.0987 84.2673 74.0343C84.042 72.97 83.4952 72.0005 82.7008 71.2571C82.2056 70.793 81.6251 70.4289 80.9917 70.1851C79.7539 69.7091 78.3836 69.7091 77.1458 70.1851C76.4837 70.4411 75.8798 70.8276 75.37 71.3215C74.8602 71.8153 74.4547 72.4066 74.1777 73.0601C73.9006 73.7164 73.7578 74.4217 73.7578 75.1341C73.7578 75.8466 73.9006 76.5518 74.1777 77.2081V77.2111Z" fill="#00A4CE"/>
<path d="M100.48 81.8806H114.055C114.286 81.8806 114.507 81.789 114.67 81.626C114.833 81.4631 114.924 81.242 114.924 81.0115C114.924 80.7811 114.833 80.5601 114.67 80.3971C114.507 80.2341 114.286 80.1426 114.055 80.1426H100.48C100.25 80.1426 100.029 80.2341 99.8658 80.3971C99.7029 80.5601 99.6113 80.7811 99.6113 81.0115C99.6113 81.242 99.7029 81.4631 99.8658 81.626C100.029 81.789 100.25 81.8806 100.48 81.8806Z" fill="#00A4CE"/>
<path d="M100.48 76.3552H114.055C114.286 76.3552 114.507 76.2636 114.67 76.1006C114.833 75.9377 114.924 75.7167 114.924 75.4862C114.924 75.2557 114.833 75.0347 114.67 74.8717C114.507 74.7087 114.286 74.6172 114.055 74.6172H100.48C100.25 74.6172 100.029 74.7087 99.8658 74.8717C99.7029 75.0347 99.6113 75.2557 99.6113 75.4862C99.6113 75.7167 99.7029 75.9377 99.8658 76.1006C100.029 76.2636 100.25 76.3552 100.48 76.3552Z" fill="#00A4CE"/>
</g>
<defs>
<clipPath id="clip0">
<rect width="147.12" height="123.175" fill="white"/>
</clipPath>
</defs>
</svg>
