<svg xmlns="http://www.w3.org/2000/svg" width="147.24" height="124.37" viewBox="0 0 147.24 124.37">
  <g id="_09" data-name="09" transform="translate(-1076.715 -753)">
    <g id="Group_15" data-name="Group 15" transform="translate(-3.627 -7.152)">
      <path id="Path_24" data-name="Path 24" d="M1203.362,829.183c0,2.869,1.166,4.956,4.081,4.956s4.067-2.088,4.067-4.956V815.66c0-2.83-1.166-4.918-4.067-4.918s-4.081,2.088-4.081,4.918v13.523Zm-1.735-13.41c0-3.838,1.777-6.594,5.816-6.594s5.8,2.756,5.8,6.594v13.337c0,3.8-1.776,6.593-5.8,6.593s-5.816-2.793-5.816-6.593V815.772Z" transform="translate(0 0.01)" fill="#00a4ce"/>
      <path id="Path_25" data-name="Path 25" d="M1213.692,815.67v3.166c0,2.831,1.166,4.917,4.081,4.917s4.067-2.086,4.067-4.917V815.67c0-2.83-1.166-4.918-4.067-4.918s-4.081,2.088-4.081,4.918Zm9.882.112v13.262c0,3.875-1.693,6.668-5.8,6.668-4.039,0-5.774-2.718-5.774-6.519v-.334h1.652v.409c0,2.831,1.18,4.881,4.08,4.881,2.943,0,4.109-2.088,4.109-5.18v-6.407c-.819,1.936-2.332,2.756-4.677,2.756-3.692,0-5.2-2.682-5.2-6.371v-3.166c0-3.838,1.777-6.63,5.816-6.63,4.067,0,5.8,2.793,5.8,6.63Z" transform="translate(4.008 0)" fill="#00a4ce"/>
    </g>
    <path id="Path_30" data-name="Path 30" d="M1179.427,787.366v56.411l-48.859,28.206-48.853-28.206V787.366l48.853-28.206,48.859,28.206Z" transform="translate(0 -0.16)" fill="#fff"/>
    <path id="Path_40" data-name="Path 40" d="M1130.568,753.386l-2.5,1.444-48.853,28.206-2.5,1.443v62.184l2.5,1.445,48.853,28.205,2.5,1.443,2.5-1.443,48.859-28.205,2.5-1.444V784.479l-2.5-1.443-48.859-28.206-2.5-1.444Zm0,5.774,48.859,28.206v56.411l-48.859,28.206-48.853-28.206V787.366l48.853-28.206" transform="translate(0 -0.386)" fill="#00a4ce"/>
    <g id="NewGroupe8" transform="translate(0 0.834)">
      <g id="NewGroup0-1">
        <g id="Group_6" data-name="Group 6">
          <path id="Path_112" data-name="Path 112" d="M1147.024,825.753a1.54,1.54,0,0,1,.552-.671,1.529,1.529,0,0,1,1.443-.14,1.529,1.529,0,0,1,.671.553,1.507,1.507,0,0,1,.259.85,1.524,1.524,0,0,1-.109.569,1.546,1.546,0,0,1-.3.471.88.88,0,0,0-.227.745l.479,2.976h-2.726l.479-2.976a.88.88,0,0,0-.227-.745,1.546,1.546,0,0,1-.3-.471,1.524,1.524,0,0,1-.109-.569,1.5,1.5,0,0,1,.119-.592Zm-1.288,2.484-.461,2.859a1.533,1.533,0,0,0,.651,1.511,1.482,1.482,0,0,0,.4.2,1.535,1.535,0,0,0,.46.071h3.274a1.537,1.537,0,0,0,1.515-1.778h0l-.461-2.859a3.291,3.291,0,0,0,.34-3.173,3.291,3.291,0,0,0-6.083,2.511,3.262,3.262,0,0,0,.361.662Z" fill="#00a4ce"/>
          <path id="Path_113" data-name="Path 113" d="M1112.412,808.441a2.153,2.153,0,0,1,.778-.943,2.144,2.144,0,0,1,3.172,2.611,2.153,2.153,0,0,1-.778.943,2.149,2.149,0,0,1-2.031.2,2.146,2.146,0,0,1-1.141-2.808Zm-.212,4.076a3.906,3.906,0,1,0-1.416-1.719,3.9,3.9,0,0,0,1.416,1.719Z" fill="#00a4ce"/>
          <path id="Path_114" data-name="Path 114" d="M1110.773,816.046a1.644,1.644,0,0,1,.925-.283h5.377a1.637,1.637,0,0,1,.645.13,1.669,1.669,0,0,1,.73.6,1.644,1.644,0,0,1,.283.925v4.633h-8.692V817.42a1.653,1.653,0,0,1,.13-.644,1.67,1.67,0,0,1,.6-.73Zm-1.914-.541a3.416,3.416,0,0,0-.586,1.915v5.517a.884.884,0,0,0,.884.884h10.46a.884.884,0,0,0,.884-.884V817.42a3.426,3.426,0,0,0-3.426-3.425H1111.7a3.423,3.423,0,0,0-2.839,1.51Z" fill="#00a4ce"/>
          <path id="Path_115" data-name="Path 115" d="M1124.293,810.012h8.137a.884.884,0,0,0,0-1.768h-8.137a.884.884,0,0,0,0,1.768Z" fill="#00a4ce"/>
          <path id="Path_116" data-name="Path 116" d="M1124.293,814.143h8.137a.884.884,0,0,0,0-1.768h-8.137a.884.884,0,0,0,0,1.768Z" fill="#00a4ce"/>
          <path id="Path_117" data-name="Path 117" d="M1124.293,818.273h8.137a.884.884,0,0,0,0-1.767h-8.137a.884.884,0,1,0,0,1.767Z" fill="#00a4ce"/>
          <path id="Path_118" data-name="Path 118" d="M1141.135,822.511a.341.341,0,0,1,.028-.138.361.361,0,0,1,.129-.158.351.351,0,0,1,.2-.06h13.872a.344.344,0,0,1,.139.028.36.36,0,0,1,.157.13.346.346,0,0,1,.06.2v10.818a.358.358,0,0,1-.027.138.362.362,0,0,1-.13.157.352.352,0,0,1-.2.061h-13.872a.344.344,0,0,1-.139-.028.36.36,0,0,1-.157-.13.348.348,0,0,1-.06-.2V822.511Zm2.232-4.855a1.333,1.333,0,0,1,.48-.583,1.307,1.307,0,0,1,.737-.226h7.686a1.3,1.3,0,0,1,.513.1,1.334,1.334,0,0,1,.583.481,1.3,1.3,0,0,1,.225.737v2.218h-10.328v-2.218a1.3,1.3,0,0,1,.1-.513Zm-16.143-15h0l-2.316-4.181h16.224a.341.341,0,0,1,.189.056.354.354,0,0,1,.118.131l1.415,4.275H1127.7a.546.546,0,0,1-.475-.28Zm-21.719,27.129a2.309,2.309,0,0,0,1.292.395h.008l32.562-.091v3.242a2.126,2.126,0,0,0,2.124,2.124h13.872a2.123,2.123,0,0,0,2.124-2.124V822.511a2.123,2.123,0,0,0-2.124-2.124h0v-2.218a3.091,3.091,0,0,0-3.089-3.09h-1.088v-9.834a2.31,2.31,0,0,0-2.311-2.311h-4.154l-1.619-4.887a.729.729,0,0,0-.03-.078,2.115,2.115,0,0,0-1.936-1.265h-17a.9.9,0,0,0-.188.021l-1.311-2.367a2.312,2.312,0,0,0-2.022-1.192H1106.8a2.311,2.311,0,0,0-2.311,2.312v9.506a.884.884,0,1,0,1.768,0h0v-9.506a.533.533,0,0,1,.042-.211.554.554,0,0,1,.2-.241.547.547,0,0,1,.3-.092h13.809a.543.543,0,0,1,.475.28h0l4.595,8.3a2.312,2.312,0,0,0,2.022,1.191h21.172a.524.524,0,0,1,.211.043.545.545,0,0,1,.24.2.53.53,0,0,1,.092.3v9.834h-4.83a3.092,3.092,0,0,0-3.089,3.09v2.218h0a2.123,2.123,0,0,0-2.124,2.124v5.808l-32.567.091h0a.539.539,0,0,1-.211-.042.554.554,0,0,1-.239-.2.526.526,0,0,1-.092-.3v-16.99a.884.884,0,1,0-1.768,0h0v16.99a2.309,2.309,0,0,0,1.018,1.916Z" fill="#00a4ce"/>
          <path id="Path_119" data-name="Path 119" d="M1125.677,803.51h0Z" fill="#00a4ce"/>
          <path id="Path_120" data-name="Path 120" d="M1122.629,794.358h0Z" fill="#00a4ce"/>
        </g>
      </g>
    </g>
  </g>
</svg>
