<svg width="148" height="125" viewBox="0 0 148 125" fill="none" xmlns="http://www.w3.org/2000/svg">
<g clip-path="url(#clip0)">
<path d="M1.73511 69.0411C1.73511 71.9101 2.90104 73.9971 5.81604 73.9971C8.73104 73.9971 9.88306 71.9091 9.88306 69.0411V55.5181C9.88306 52.6881 8.71704 50.6001 5.81604 50.6001C2.91504 50.6001 1.73511 52.6881 1.73511 55.5181V69.0411ZM0 55.6311C0 51.7931 1.77704 49.0371 5.81604 49.0371C9.85504 49.0371 11.6161 51.7931 11.6161 55.6311V68.9681C11.6161 72.7681 9.84004 75.5611 5.81604 75.5611C1.79204 75.5611 0 72.7681 0 68.9681V55.6301V55.6311Z" fill="#00A4CE"/>
<path d="M16.0737 55.519V58.685C16.0737 61.516 17.2397 63.602 20.1547 63.602C23.0697 63.602 24.2217 61.516 24.2217 58.685V55.519C24.2217 52.689 23.0557 50.601 20.1547 50.601C17.2537 50.601 16.0737 52.689 16.0737 55.519ZM25.9557 55.631V68.893C25.9557 72.768 24.2628 75.561 20.1558 75.561C16.1168 75.561 14.3817 72.843 14.3817 69.042V68.708H16.0337V69.117C16.0337 71.948 17.2138 73.998 20.1138 73.998C23.0568 73.998 24.2227 71.91 24.2227 68.818V62.411C23.4037 64.347 21.8907 65.167 19.5457 65.167C15.8537 65.167 14.3457 62.485 14.3457 58.796V55.63C14.3457 51.792 16.1227 49 20.1617 49C24.2287 49 25.9617 51.793 25.9617 55.63L25.9557 55.631Z" fill="#00A4CE"/>
<path d="M142.712 34.2061V90.617L93.853 118.823L45 90.617V34.2061L93.853 6L142.712 34.2061Z" fill="white"/>
<path d="M93.853 0L91.353 1.44403L42.5 29.65L40 31.093V93.277L42.5 94.722L91.353 122.927L93.853 124.37L96.353 122.927L145.212 94.722L147.712 93.278V31.093L145.212 29.65L96.353 1.44403L93.853 0V0ZM93.853 5.77399L142.712 33.98V90.391L93.853 118.597L45 90.391V33.98L93.853 5.77399Z" fill="#00A4CE"/>
<path d="M110.309 73.5863C110.425 73.3143 110.617 73.0813 110.861 72.9153C111.071 72.7744 111.313 72.6878 111.565 72.6634C111.817 72.639 112.071 72.6775 112.304 72.7753C112.577 72.8908 112.81 73.0829 112.975 73.3283C113.145 73.5792 113.235 73.8754 113.234 74.1783C113.234 74.3732 113.197 74.5664 113.125 74.7473C113.054 74.9212 112.953 75.0808 112.825 75.2183C112.733 75.3168 112.664 75.4351 112.625 75.5643C112.585 75.6935 112.576 75.8301 112.598 75.9633L113.077 78.9393H110.351L110.83 75.9633C110.852 75.8301 110.843 75.6935 110.803 75.5643C110.764 75.4351 110.696 75.3168 110.603 75.2183C110.475 75.0808 110.374 74.9212 110.303 74.7473C110.231 74.5664 110.194 74.3732 110.194 74.1783C110.193 73.9749 110.234 73.7735 110.313 73.5863H110.309ZM109.021 76.0703L108.56 78.9293C108.514 79.217 108.55 79.5119 108.666 79.7795C108.781 80.0472 108.97 80.2764 109.211 80.4403C109.334 80.5268 109.468 80.5943 109.611 80.6403C109.76 80.6872 109.915 80.7112 110.071 80.7113H113.345C113.567 80.7109 113.786 80.6624 113.988 80.5692C114.189 80.4759 114.368 80.3401 114.512 80.1712C114.656 80.0022 114.762 79.8041 114.822 79.5904C114.882 79.3767 114.895 79.1525 114.86 78.9333L114.399 76.0743C114.72 75.6177 114.92 75.0869 114.979 74.5318C115.039 73.9767 114.956 73.4156 114.739 72.9013C114.395 72.1104 113.755 71.486 112.956 71.1624C112.156 70.8388 111.262 70.8418 110.465 71.1708C109.668 71.4999 109.032 72.1286 108.694 72.9218C108.355 73.715 108.342 74.6093 108.656 75.4123C108.75 75.6462 108.872 75.8684 109.017 76.0743L109.021 76.0703Z" fill="#00A4CE"/>
<path d="M75.696 56.275C75.8587 55.892 76.1289 55.5645 76.4739 55.332C76.8569 55.0746 77.3128 54.9477 77.7737 54.9701C78.2346 54.9925 78.676 55.163 79.0323 55.4562C79.3885 55.7495 79.6407 56.1499 79.7513 56.5979C79.8618 57.0459 79.825 57.5176 79.646 57.943C79.4833 58.3259 79.213 58.6534 78.868 58.886C78.5725 59.085 78.2323 59.2075 77.8777 59.2424C77.5232 59.2773 77.1655 59.2236 76.837 59.086C76.3138 58.8643 75.8998 58.4442 75.686 57.9178C75.4721 57.3914 75.4757 56.8017 75.696 56.2779V56.275ZM75.4839 60.351C76.2623 60.8752 77.2035 61.1015 78.1352 60.9888C79.0668 60.876 79.9267 60.4315 80.5575 59.7367C81.1884 59.042 81.548 58.1433 81.5706 57.2051C81.5932 56.267 81.2773 55.352 80.6806 54.6277C80.0839 53.9033 79.2463 53.418 78.3212 53.2605C77.3961 53.103 76.4452 53.2838 75.6425 53.7699C74.8398 54.2561 74.2389 55.0149 73.9497 55.9077C73.6606 56.8005 73.7026 57.7676 74.068 58.6319C74.3629 59.3304 74.8549 59.9278 75.4839 60.351Z" fill="#00A4CE"/>
<path d="M74.0566 63.8792C74.3296 63.6942 74.652 63.5956 74.9817 63.5961H80.3586C80.5802 63.5954 80.7997 63.6396 81.0037 63.7261C81.2997 63.8516 81.5532 64.06 81.7336 64.3261C81.9186 64.5991 82.0173 64.9214 82.0167 65.2512V69.8842H73.3247V65.2531C73.3245 65.0319 73.3687 64.8129 73.4547 64.6091C73.5803 64.3131 73.7886 64.0596 74.0547 63.8792H74.0566ZM72.1427 63.3381C71.7604 63.9036 71.5563 64.5706 71.5566 65.2531V70.7701C71.5566 71.0046 71.6498 71.2294 71.8156 71.3952C71.9813 71.561 72.2062 71.6541 72.4407 71.6541H82.9006C83.1351 71.6541 83.36 71.561 83.5258 71.3952C83.6915 71.2294 83.7847 71.0046 83.7847 70.7701V65.2531C83.7844 64.3447 83.4234 63.4735 82.7809 62.8312C82.1384 62.189 81.2671 61.8281 80.3586 61.8281H74.9836C74.423 61.8281 73.8709 61.9657 73.3759 62.229C72.8808 62.4923 72.458 62.8732 72.1447 63.3381H72.1427Z" fill="#00A4CE"/>
<path d="M87.5773 57.8461H95.7144C95.9488 57.8461 96.1736 57.753 96.3394 57.5872C96.5051 57.4214 96.5983 57.1965 96.5983 56.9621C96.5983 56.7276 96.5051 56.5028 96.3394 56.337C96.1736 56.1713 95.9488 56.0781 95.7144 56.0781H87.5773C87.3428 56.0781 87.1181 56.1713 86.9523 56.337C86.7865 56.5028 86.6934 56.7276 86.6934 56.9621C86.6934 57.1965 86.7865 57.4214 86.9523 57.5872C87.1181 57.753 87.3428 57.8461 87.5773 57.8461V57.8461Z" fill="#00A4CE"/>
<path d="M87.5773 61.977H95.7144C95.9488 61.977 96.1736 61.8839 96.3394 61.7181C96.5051 61.5523 96.5983 61.3274 96.5983 61.093C96.5983 60.8585 96.5051 60.6337 96.3394 60.4679C96.1736 60.3021 95.9488 60.209 95.7144 60.209H87.5773C87.3428 60.209 87.1181 60.3021 86.9523 60.4679C86.7865 60.6337 86.6934 60.8585 86.6934 61.093C86.6934 61.3274 86.7865 61.5523 86.9523 61.7181C87.1181 61.8839 87.3428 61.977 87.5773 61.977Z" fill="#00A4CE"/>
<path d="M87.5778 66.1074H95.7148C95.944 66.0997 96.1612 66.0032 96.3206 65.8383C96.4799 65.6735 96.5691 65.4532 96.5691 65.2239C96.5691 64.9946 96.4799 64.7742 96.3206 64.6094C96.1612 64.4445 95.944 64.3481 95.7148 64.3403H87.5778C87.4592 64.3364 87.3411 64.3563 87.2305 64.3989C87.1198 64.4415 87.0188 64.5059 86.9336 64.5883C86.8483 64.6708 86.7806 64.7696 86.7343 64.8787C86.688 64.9879 86.6641 65.1053 86.6641 65.2239C86.6641 65.3425 86.688 65.4598 86.7343 65.569C86.7806 65.6782 86.8483 65.777 86.9336 65.8594C87.0188 65.9418 87.1198 66.0062 87.2305 66.0488C87.3411 66.0914 87.4592 66.1114 87.5778 66.1074V66.1074Z" fill="#00A4CE"/>
<path d="M104.419 70.345C104.419 70.2975 104.429 70.2505 104.447 70.207C104.474 70.143 104.519 70.0882 104.576 70.049C104.635 70.0092 104.705 69.9883 104.776 69.989H118.648C118.696 69.9886 118.744 69.9981 118.787 70.017C118.851 70.0443 118.906 70.0894 118.944 70.147C118.985 70.2059 119.005 70.2757 119.004 70.347V81.165C119.005 81.2123 118.995 81.2592 118.977 81.303C118.95 81.3667 118.905 81.4212 118.847 81.46C118.788 81.5001 118.719 81.5214 118.647 81.521H104.775C104.728 81.5214 104.68 81.5119 104.636 81.493C104.573 81.4657 104.518 81.4205 104.479 81.363C104.439 81.304 104.418 81.2342 104.419 81.163V70.345V70.345ZM106.651 65.49C106.752 65.2535 106.919 65.051 107.131 64.907C107.349 64.7593 107.606 64.6805 107.868 64.681H115.554C115.73 64.6792 115.905 64.7133 116.067 64.781C116.304 64.8818 116.506 65.0488 116.65 65.262C116.798 65.4792 116.877 65.7362 116.875 65.999V68.217H106.547V65.999C106.546 65.823 106.58 65.6484 106.647 65.486L106.651 65.49ZM90.5084 50.49L88.1924 46.309H104.416C104.484 46.3086 104.549 46.3281 104.605 46.365C104.655 46.398 104.696 46.4431 104.723 46.496L106.138 50.771H90.9844C90.8875 50.7707 90.7925 50.7446 90.709 50.6954C90.6255 50.6462 90.5566 50.5756 90.5094 50.491L90.5084 50.49ZM68.7894 77.619C69.1711 77.8765 69.621 78.0141 70.0814 78.014H70.0895L102.651 77.923V81.165C102.652 81.7281 102.876 82.2681 103.274 82.6663C103.672 83.0645 104.212 83.2885 104.775 83.289H118.647C118.926 83.2891 119.203 83.2343 119.46 83.1276C119.718 83.0209 119.952 82.8644 120.15 82.6672C120.347 82.4699 120.503 82.2357 120.61 81.978C120.717 81.7202 120.772 81.4439 120.771 81.165V70.345C120.772 70.066 120.717 69.7897 120.61 69.532C120.503 69.2742 120.347 69.04 120.15 68.8428C119.952 68.6455 119.718 68.4891 119.46 68.3824C119.203 68.2757 118.926 68.2209 118.647 68.221V68.221V66.003C118.647 65.1837 118.322 64.3981 117.742 63.8187C117.163 63.2393 116.378 62.9135 115.558 62.913H114.47V53.079C114.471 52.7755 114.411 52.4749 114.295 52.1945C114.179 51.914 114.008 51.6592 113.794 51.4446C113.579 51.23 113.324 51.0597 113.044 50.9436C112.764 50.8275 112.463 50.7679 112.159 50.768H108.005L106.386 45.881C106.378 45.8544 106.368 45.8284 106.356 45.803C106.191 45.4269 105.92 45.1071 105.577 44.8824C105.233 44.6578 104.831 44.5381 104.42 44.538H87.4204C87.3572 44.5383 87.2942 44.5454 87.2324 44.559L85.9214 42.192C85.7214 41.8309 85.4286 41.5299 85.073 41.3203C84.7174 41.1107 84.3122 41.0001 83.8994 41H70.0845C69.7809 41 69.4803 41.0598 69.1998 41.176C68.9194 41.2922 68.6646 41.4625 68.45 41.6772C68.2353 41.8919 68.0652 42.1468 67.9491 42.4273C67.833 42.7078 67.7733 43.0084 67.7734 43.312V52.818C67.7734 53.0524 67.8666 53.2773 68.0323 53.4431C68.1981 53.6088 68.423 53.702 68.6575 53.702C68.8919 53.702 69.1167 53.6088 69.2825 53.4431C69.4483 53.2773 69.5414 53.0524 69.5414 52.818V43.312C69.5409 43.2396 69.5552 43.1678 69.5834 43.101C69.6255 43.0031 69.695 42.9194 69.7834 42.86C69.8723 42.8007 69.9765 42.7687 70.0834 42.768H83.8925C83.9894 42.768 84.0846 42.794 84.1681 42.8432C84.2516 42.8924 84.3205 42.9631 84.3674 43.048V43.048L88.9624 51.348C89.1625 51.7089 89.4555 52.0097 89.811 52.2191C90.1666 52.4285 90.5717 52.539 90.9844 52.539H112.156C112.229 52.5386 112.301 52.5532 112.367 52.582C112.465 52.6238 112.549 52.6933 112.607 52.782C112.668 52.8704 112.7 52.975 112.699 53.082V62.916H107.869C107.05 62.9167 106.265 63.2426 105.686 63.822C105.107 64.4013 104.781 65.1868 104.78 66.006V68.224C104.501 68.2239 104.225 68.2787 103.967 68.3854C103.71 68.4921 103.475 68.6486 103.278 68.8458C103.081 69.0431 102.925 69.2773 102.818 69.535C102.711 69.7928 102.656 70.069 102.656 70.348V76.156L70.0895 76.247C70.017 76.2473 69.9452 76.233 69.8784 76.205C69.7813 76.1625 69.6983 76.0932 69.6394 76.005C69.5789 75.9167 69.5468 75.812 69.5474 75.705V58.715C69.5474 58.4805 69.4542 58.2557 69.2885 58.0899C69.1227 57.9241 68.8979 57.831 68.6635 57.831C68.429 57.831 68.2041 57.9241 68.0383 58.0899C67.8725 58.2557 67.7794 58.4805 67.7794 58.715V58.715V75.705C67.7792 76.0833 67.8718 76.4559 68.0493 76.79C68.2268 77.1241 68.4837 77.4094 68.7974 77.621L68.7894 77.619Z" fill="#00A4CE"/>
</g>
<defs>
<clipPath id="clip0">
<rect width="147.24" height="124.37" fill="white"/>
</clipPath>
</defs>
</svg>
