<svg xmlns="http://www.w3.org/2000/svg" width="150.191" height="123.174" viewBox="0 0 150.191 123.174">
  <g id="Group_11" data-name="Group 11" transform="translate(-1002.745 -869.394)">
    <g id="Group_10" data-name="Group 10" transform="translate(3.621 -3.039)">
      <path id="Path_22" data-name="Path 22" d="M1133.319,924.665a5.213,5.213,0,0,1-3.822,2.086v-1.416a4.5,4.5,0,0,0,4.174-3.467h1.256v24.8h-1.608v-22Z" transform="translate(-2 0.043)" fill="#5dc2ac" stroke="#5dc2ac" stroke-width="0.2"/>
      <path id="Path_23" data-name="Path 23" d="M1138.036,940.732c0,2.723,1.21,4.706,4.2,4.706s4.184-1.982,4.184-4.706V927.89c0-2.687-1.2-4.67-4.184-4.67s-4.2,1.982-4.2,4.67v12.842ZM1136.257,928c0-3.645,1.822-6.262,5.977-6.262s5.977,2.618,5.977,6.262v12.664c0,3.609-1.837,6.262-5.977,6.262s-5.977-2.653-5.977-6.262V928Z" transform="translate(1.005)" fill="#5dc2ac" stroke="#5dc2ac" stroke-width="0.2"/>
    </g>
    <path id="Path_29" data-name="Path 29" d="M1104.417,903.074v55.813l-48.336,27.907-48.336-27.907V903.074l48.336-27.907,48.336,27.907Z" fill="#fff"/>
    <path id="Path_39" data-name="Path 39" d="M1056.081,869.394l-2.5,1.443-48.336,27.907-2.5,1.443v61.587l2.5,1.443,48.336,27.907,2.5,1.444,2.5-1.444,48.336-27.907,2.5-1.443V900.187l-2.5-1.443-48.336-27.907-2.5-1.443Zm0,5.773,48.336,27.907v55.813l-48.336,27.907-48.336-27.907V903.074l48.336-27.907" fill="#5dc2ac"/>
    <g id="NewGroupe4">
      <g id="NewGroup0-5">
        <g id="Group_3" data-name="Group 3">
          <path id="Path_93" data-name="Path 93" d="M1038.752,928.373a2.75,2.75,0,0,1,.994-1.206,2.745,2.745,0,0,1,2.6-.253,2.74,2.74,0,0,1,1.674,2.526,2.709,2.709,0,0,1-.215,1.066,2.753,2.753,0,0,1-.994,1.207,2.745,2.745,0,0,1-2.6.253,2.766,2.766,0,0,1-1.207-.994,2.75,2.75,0,0,1-.252-2.6Zm0,4.8a4.5,4.5,0,1,0-1.633-1.983,4.487,4.487,0,0,0,1.633,1.983Z" fill="#00a4ce"/>
          <path id="Path_94" data-name="Path 94" d="M1035.993,939.067a2.4,2.4,0,0,1,.19-.941,2.434,2.434,0,0,1,.877-1.065,2.4,2.4,0,0,1,1.351-.412h5.732a2.4,2.4,0,0,1,.941.189,2.435,2.435,0,0,1,1.065.877,2.407,2.407,0,0,1,.413,1.352v6.156h-10.569v-6.156Zm-1.052-2.341a4.176,4.176,0,0,0-.716,2.341v7.04a.884.884,0,0,0,.884.884h12.337a.883.883,0,0,0,.883-.884v-7.04a4.184,4.184,0,0,0-4.186-4.186h-5.732a4.178,4.178,0,0,0-3.47,1.845Z" fill="#00a4ce"/>
          <path id="Path_95" data-name="Path 95" d="M1031.255,918.978v-8.784a.258.258,0,0,1,.021-.107.278.278,0,0,1,.1-.122.264.264,0,0,1,.153-.047h48.914a.275.275,0,0,1,.106.021.289.289,0,0,1,.123.1.274.274,0,0,1,.046.154v8.784Zm44.33,35.315a.393.393,0,0,1-.032.159.413.413,0,0,1-.148.18.4.4,0,0,1-.227.069h-17.241a.406.406,0,0,1-.339-.181.4.4,0,0,1-.069-.227V941.344a.4.4,0,0,1,.031-.158.422.422,0,0,1,.149-.181.407.407,0,0,1,.228-.069h.467a.884.884,0,0,0,.884-.884v-.621a7.22,7.22,0,0,1,.571-2.825,7.317,7.317,0,0,1,2.638-3.2,7.261,7.261,0,0,1,6.886-.67,7.309,7.309,0,0,1,3.2,2.637,7.213,7.213,0,0,1,1.242,4.059v.621a.884.884,0,0,0,.884.884h.468a.4.4,0,0,1,.158.032.412.412,0,0,1,.18.148.4.4,0,0,1,.069.228v12.949Zm6.9-34.431v-9.668a2.044,2.044,0,0,0-2.043-2.044H1031.53a2.045,2.045,0,0,0-2.043,2.044v17.533a.884.884,0,1,0,1.768,0h0v-6.981h49.464v29.261a.275.275,0,0,1-.021.107.285.285,0,0,1-.1.122.272.272,0,0,1-.153.047h-3.091v-8.939a2.172,2.172,0,0,0-1.762-2.135,8.982,8.982,0,0,0-.709-3.293,9.034,9.034,0,0,0-15.816-1.535,8.988,8.988,0,0,0-1.542,4.827,2.127,2.127,0,0,0-.435.132,2.176,2.176,0,0,0-1.328,2v8.939H1031.53a.265.265,0,0,1-.107-.022.282.282,0,0,1-.122-.1.269.269,0,0,1-.046-.154V933.62a.884.884,0,1,0-1.768,0h0v16.387a2.044,2.044,0,0,0,2.043,2.044h24.231v2.242a2.174,2.174,0,0,0,2.176,2.176h17.241a2.176,2.176,0,0,0,2.175-2.176v-2.242h3.091a2.04,2.04,0,0,0,1.693-.9,2.036,2.036,0,0,0,.35-1.143V919.863Z" fill="#00a4ce"/>
          <path id="Path_96" data-name="Path 96" d="M1067.239,915.807a1.69,1.69,0,1,1,1.688-1.689,1.689,1.689,0,0,1-1.688,1.689Zm0-5.146a3.456,3.456,0,1,0,3.456,3.457,3.46,3.46,0,0,0-3.456-3.457Z" fill="#00a4ce"/>
          <path id="Path_97" data-name="Path 97" d="M1075.331,915.807a1.69,1.69,0,1,1,1.689-1.689,1.689,1.689,0,0,1-1.689,1.689Zm0-5.146a3.456,3.456,0,1,0,3.457,3.457,3.46,3.46,0,0,0-3.457-3.457Z" fill="#00a4ce"/>
          <path id="Path_98" data-name="Path 98" d="M1059.145,915.807a1.69,1.69,0,1,1,1.689-1.689,1.69,1.69,0,0,1-1.689,1.689Zm0-5.146a3.456,3.456,0,1,0,3.457,3.457,3.461,3.461,0,0,0-3.457-3.457Z" fill="#00a4ce"/>
          <path id="Path_99" data-name="Path 99" d="M1066.652,942.08h0Z" fill="#00a4ce"/>
          <path id="Path_100" data-name="Path 100" d="M1068.074,946.156a1.661,1.661,0,0,1-.369.531.883.883,0,0,0-.255.793l.565,3.114a.5.5,0,0,1,.007.084.442.442,0,0,1-.034.17.466.466,0,0,1-.165.2.423.423,0,0,1-.117.057.454.454,0,0,1-.137.021h-2.024a.452.452,0,0,1-.178-.036.459.459,0,0,1-.2-.166.442.442,0,0,1-.076-.247.4.4,0,0,1,.008-.083h0l.564-3.115a.883.883,0,0,0-.255-.793,1.671,1.671,0,0,1-.37-.532,1.639,1.639,0,0,1-.135-.656v-.016a1.644,1.644,0,0,1,.59-1.25,1.642,1.642,0,0,1,.486-.283,1.618,1.618,0,0,1,.573-.1h.053a1.6,1.6,0,0,1,.54.109,1.664,1.664,0,0,1,.468.277h0a1.666,1.666,0,0,1,.416.52,1.615,1.615,0,0,1,.177.65h0c0,.029,0,.053,0,.071v.029a1.621,1.621,0,0,1-.135.652Zm1.9-.652v-.029c0-.061,0-.117-.005-.169h0a3.39,3.39,0,0,0-.369-1.359,3.446,3.446,0,0,0-1.817-1.638,3.343,3.343,0,0,0-1.133-.228l-.1,0a3.418,3.418,0,0,0-2.2.8h0a3.425,3.425,0,0,0-1.22,2.587v.032a3.408,3.408,0,0,0,.282,1.359,3.371,3.371,0,0,0,.43.729l-.488,2.693h0a2.278,2.278,0,0,0-.036.4,2.2,2.2,0,0,0,.172.854,2.238,2.238,0,0,0,.8.977,2.266,2.266,0,0,0,.585.284,2.2,2.2,0,0,0,.667.1h2.024a2.22,2.22,0,0,0,2.221-2.217,2.228,2.228,0,0,0-.036-.4h0l-.488-2.693a3.409,3.409,0,0,0,.711-2.083Z" fill="#00a4ce"/>
          <path id="Path_101" data-name="Path 101" d="M1068.75,942.879h0Z" fill="#00a4ce"/>
          <path id="Path_102" data-name="Path 102" d="M1064.336,936.464a3.97,3.97,0,0,1,3.767-.367,4.008,4.008,0,0,1,1.752,1.444,3.957,3.957,0,0,1,.66,1.822H1062.6a3.929,3.929,0,0,1,.292-1.146,4.012,4.012,0,0,1,1.445-1.753Zm5.433-1.464a5.746,5.746,0,0,0-5.448-.531,5.782,5.782,0,0,0-2.527,2.082,5.715,5.715,0,0,0-.983,3.212v.484a.884.884,0,0,0,.884.884h9.724a.884.884,0,0,0,.884-.884v-.484a5.719,5.719,0,0,0-.453-2.236,5.779,5.779,0,0,0-2.081-2.527Z" fill="#00a4ce"/>
        </g>
      </g>
    </g>
  </g>
</svg>
