<svg width="146" height="123" viewBox="0 0 146 123" fill="none" xmlns="http://www.w3.org/2000/svg">
<g clip-path="url(#clip0)">
<path d="M4.90201 52.5065C4.34506 53.2303 3.63311 53.8289 2.81498 54.2611C1.99685 54.6934 1.09182 54.949 0.162109 55.0107V53.3102C3.16299 53.0996 4.55419 51.3569 5.3379 49.1465H6.89482V78.9343H4.89728V52.5043L4.90201 52.5065Z" fill="#5DC2AC"/>
<path d="M14.2044 71.75C14.2044 75.0213 15.5603 77.4014 18.9113 77.4014C22.2624 77.4014 23.6019 75.0201 23.6019 71.75V56.3245C23.6019 53.0965 22.2612 50.7153 18.9113 50.7153C15.5615 50.7153 14.2044 53.0965 14.2044 56.3245V71.75ZM12.207 56.4532C12.207 52.0755 14.2502 48.9316 18.9043 48.9316C23.5584 48.9316 25.6017 52.0755 25.6017 56.4532V71.6646C25.6017 75.999 23.5419 79.1861 18.9043 79.1861C14.2667 79.1861 12.207 75.999 12.207 71.6646V56.4532V56.4532Z" fill="#5DC2AC"/>
<path d="M140.451 33.8597V89.5939L90.6261 117.462L40.8008 89.5939V33.8597L90.6261 5.99219L140.451 33.8597Z" fill="white"/>
<path d="M90.6259 0L88.0489 1.44095L38.2235 29.3086L35.6465 30.7495V92.2495L38.2235 93.6905L88.0489 121.558L90.6259 123L93.2029 121.558L143.028 93.6905L145.605 92.2495V30.7495L143.028 29.3086L93.2029 1.44095L90.6259 0ZM90.6259 5.76485L140.451 33.6324V89.3666L90.6259 117.234L40.8005 89.3666V33.6324L90.6259 5.76485" fill="#5DC2AC"/>
<path d="M72.7633 58.1411C72.9774 57.6522 73.3334 57.2338 73.788 56.9368C74.1779 56.6824 74.627 56.526 75.095 56.4819C75.5629 56.4377 76.0348 56.5073 76.4681 56.6842C76.9799 56.8936 77.4167 57.2446 77.7236 57.6933C78.0305 58.142 78.1941 58.6684 78.1937 59.2066C78.1949 59.5723 78.1195 59.9344 77.9721 60.2711C77.758 60.7604 77.4021 61.1791 76.9475 61.4764C76.5576 61.7309 76.1083 61.8873 75.6403 61.9314C75.1724 61.9755 74.7006 61.906 74.2674 61.7291C73.7627 61.521 73.3307 61.1764 73.0232 60.7365C72.7611 60.3585 72.6 59.9233 72.5547 59.4701C72.5093 59.0169 72.581 58.5599 72.7633 58.1402V58.1411ZM72.7633 62.9343C73.6878 63.5371 74.8054 63.7974 75.9116 63.6675C77.0179 63.5376 78.0388 63.0263 78.7879 62.2271C79.5369 61.4279 79.9639 60.3941 79.9908 59.315C80.0177 58.2358 79.6427 57.1833 78.9343 56.35C78.226 55.5167 77.2316 54.9582 76.1331 54.7768C75.0346 54.5954 73.9054 54.8031 72.9521 55.362C71.9987 55.9209 71.2848 56.7935 70.941 57.8204C70.5973 58.8472 70.6467 59.9597 71.0801 60.9542C71.43 61.7591 72.015 62.4473 72.7633 62.9343Z" fill="#00A4CE"/>
<path d="M69.9202 68.8207C69.9195 68.4979 69.986 68.1783 70.116 67.881C70.3051 67.4495 70.6192 67.0802 71.0201 66.8175C71.4312 66.5482 71.9164 66.4048 72.4127 66.4061H78.3212C78.6544 66.4051 78.9843 66.4694 79.2912 66.5949C79.7367 66.7782 80.118 67.0823 80.3891 67.4707C80.6673 67.8693 80.8156 68.3396 80.8148 68.8207V74.9681H69.9202V68.8207V68.8207ZM68.8358 66.4831C68.3542 67.1734 68.0971 67.9876 68.0977 68.8207V75.8508C68.0977 76.0849 68.1937 76.3094 68.3645 76.475C68.5354 76.6405 68.7673 76.7336 69.0089 76.7336H81.7261C81.8457 76.7336 81.9641 76.7107 82.0746 76.6663C82.1851 76.622 82.2854 76.5569 82.37 76.4749C82.4545 76.3929 82.5216 76.2956 82.5673 76.1885C82.6129 76.0814 82.6364 75.9667 82.6362 75.8508V68.8207C82.6365 68.2717 82.5251 67.728 82.3083 67.2208C82.0916 66.7135 81.7737 66.2526 81.373 65.8644C80.9723 65.4761 80.4965 65.1683 79.9729 64.9583C79.4492 64.7483 78.8879 64.6404 78.3212 64.6406H72.4127C71.7062 64.64 71.0104 64.8077 70.3867 65.129C69.7629 65.4503 69.2303 65.9153 68.8358 66.4831V66.4831Z" fill="#00A4CE"/>
<path d="M65.0353 48.76V39.9883C65.0346 39.9516 65.042 39.9152 65.057 39.8815C65.0784 39.8321 65.1142 39.7898 65.16 39.7597C65.2063 39.7286 65.2615 39.7122 65.3178 39.7128H115.739C115.776 39.7127 115.813 39.7198 115.848 39.7337C115.899 39.7549 115.943 39.7895 115.975 39.8336C116.006 39.8791 116.023 39.9326 116.022 39.9873V48.7589L65.0353 48.76ZM110.731 84.0251C110.732 84.0797 110.72 84.1337 110.698 84.1839C110.666 84.2567 110.613 84.3191 110.546 84.3636C110.477 84.409 110.395 84.433 110.312 84.4325H92.5394C92.4703 84.4326 92.4022 84.4162 92.3412 84.3847C92.2803 84.3531 92.2283 84.3075 92.19 84.2518C92.1432 84.1849 92.1184 84.1059 92.1189 84.0251V71.0943C92.1184 71.0402 92.1293 70.9865 92.1509 70.9365C92.1834 70.8635 92.2366 70.8008 92.3044 70.7558C92.3739 70.7107 92.4557 70.6866 92.5394 70.6869H93.0209C93.1405 70.6869 93.259 70.6641 93.3695 70.6197C93.4801 70.5754 93.5805 70.5103 93.6651 70.4284C93.7497 70.3464 93.8169 70.2491 93.8627 70.142C93.9085 70.0349 93.932 69.9201 93.932 69.8042V69.1841C93.9305 68.215 94.1307 67.2555 94.5206 66.3631C95.09 65.0661 96.0343 63.9564 97.2399 63.1676C98.2722 62.4928 99.462 62.0782 100.701 61.9614C101.941 61.8446 103.191 62.0292 104.338 62.4985C105.677 63.0494 106.823 63.9639 107.637 65.1318C108.473 66.3279 108.919 67.7402 108.917 69.1851V69.8052C108.917 70.0393 109.013 70.2638 109.184 70.4294C109.355 70.5949 109.586 70.6879 109.828 70.6879H110.311C110.367 70.6878 110.422 70.6986 110.473 70.7199C110.549 70.7508 110.613 70.8021 110.659 70.8677C110.706 70.9348 110.731 71.0142 110.73 71.0953V84.0261L110.731 84.0251ZM117.844 49.6427V39.9883C117.844 39.4472 117.622 38.9282 117.227 38.5454C116.832 38.1627 116.296 37.9475 115.738 37.9473H65.3188C64.7603 37.9478 64.2247 38.163 63.8298 38.5457C63.435 38.9284 63.2132 39.4472 63.2129 39.9883V57.4966C63.2129 57.7307 63.3089 57.9553 63.4798 58.1208C63.6507 58.2864 63.8824 58.3794 64.124 58.3794C64.3657 58.3794 64.5975 58.2864 64.7684 58.1208C64.9393 57.9553 65.0353 57.7307 65.0353 57.4966V57.4966V50.5254H116.023V79.7451C116.024 79.7818 116.016 79.8181 116.002 79.852C115.98 79.9012 115.944 79.9434 115.899 79.9738C115.852 80.0044 115.797 80.0208 115.741 80.0207H112.555V71.0943C112.555 70.5898 112.374 70.1009 112.043 69.7117C111.711 69.3226 111.25 69.0576 110.738 68.9623C110.711 67.8314 110.463 66.7157 110.008 65.674C109.355 64.1762 108.297 62.877 106.945 61.9138C105.593 60.9506 103.998 60.3591 102.327 60.2021C100.657 60.0451 98.9738 60.3282 97.4559 61.0216C95.938 61.715 94.6418 62.7928 93.7042 64.1412C92.7082 65.567 92.1564 67.2402 92.1147 68.9614C91.9608 68.9897 91.8105 69.0339 91.6663 69.0932C91.261 69.2593 90.9152 69.5372 90.6718 69.8923C90.4284 70.2474 90.2982 70.6641 90.2974 71.0904V80.0167H65.3188C65.2809 80.0169 65.2432 80.0094 65.2085 79.9948C65.1576 79.9738 65.114 79.9391 65.0827 79.8949C65.0511 79.8495 65.0346 79.7959 65.0353 79.7411V63.3813C65.0353 63.1471 64.9393 62.9226 64.7684 62.7571C64.5975 62.5915 64.3657 62.4985 64.124 62.4985C63.8824 62.4985 63.6507 62.5915 63.4798 62.7571C63.3089 62.9226 63.2129 63.1471 63.2129 63.3813V63.3813V79.7451C63.2129 80.2863 63.4347 80.8053 63.8296 81.188C64.2245 81.5708 64.7602 81.786 65.3188 81.7862H90.2964V84.0251C90.2961 84.3105 90.354 84.5932 90.4666 84.8569C90.5792 85.1207 90.7444 85.3603 90.9527 85.5622C91.161 85.764 91.4085 85.924 91.6808 86.0331C91.953 86.1422 92.2448 86.1982 92.5394 86.198H110.312C110.906 86.1977 111.477 85.9687 111.897 85.5612C112.318 85.1537 112.554 84.6012 112.554 84.0251V81.7862H115.74C116.084 81.7865 116.424 81.7046 116.728 81.5479C117.033 81.3912 117.292 81.1644 117.485 80.8875C117.72 80.5506 117.846 80.153 117.846 79.7461V49.6437L117.844 49.6427Z" fill="#00A4CE"/>
<path d="M102.129 45.5938C101.784 45.5942 101.447 45.4955 101.16 45.3103C100.874 45.125 100.65 44.8616 100.518 44.5532C100.386 44.2448 100.351 43.9053 100.418 43.5778C100.485 43.2503 100.651 42.9494 100.895 42.7132C101.138 42.4771 101.449 42.3162 101.787 42.251C102.125 42.1858 102.475 42.2193 102.794 42.3471C103.112 42.4749 103.384 42.6914 103.576 42.9691C103.767 43.2468 103.869 43.5733 103.869 43.9072C103.869 44.3543 103.686 44.7832 103.359 45.0994C103.033 45.4157 102.59 45.5935 102.129 45.5938V45.5938ZM102.129 40.4551C101.424 40.4551 100.736 40.6574 100.15 41.0366C99.564 41.4158 99.1073 41.9547 98.8376 42.5852C98.568 43.2158 98.4974 43.9097 98.6348 44.5791C98.7722 45.2486 99.1114 45.8635 99.6095 46.3462C100.108 46.8288 100.742 47.1576 101.433 47.2909C102.124 47.4241 102.841 47.356 103.492 47.0949C104.143 46.8339 104.699 46.3917 105.09 45.8243C105.482 45.2569 105.691 44.5897 105.691 43.9072C105.69 42.992 105.315 42.1146 104.647 41.4674C103.979 40.8202 103.074 40.4561 102.129 40.4551V40.4551Z" fill="#00A4CE"/>
<path d="M110.47 45.5938C110.125 45.594 109.788 45.4951 109.501 45.3098C109.215 45.1244 108.991 44.8609 108.859 44.5525C108.727 44.2441 108.693 43.9046 108.76 43.5772C108.827 43.2497 108.993 42.9489 109.237 42.7129C109.48 42.4768 109.791 42.316 110.129 42.2509C110.467 42.1859 110.817 42.2194 111.136 42.3472C111.454 42.4751 111.726 42.6915 111.917 42.9692C112.109 43.2469 112.211 43.5733 112.211 43.9072C112.211 44.3545 112.027 44.7835 111.701 45.0998C111.374 45.4161 110.931 45.5938 110.47 45.5938V45.5938ZM110.47 40.4551C109.765 40.4553 109.077 40.6578 108.491 41.0371C107.905 41.4164 107.449 41.9554 107.179 42.586C106.91 43.2165 106.839 43.9104 106.977 44.5797C107.114 45.2491 107.453 45.8639 107.952 46.3465C108.45 46.8291 109.084 47.1577 109.775 47.2909C110.466 47.4241 111.183 47.3559 111.833 47.0948C112.484 46.8337 113.041 46.3915 113.432 45.8241C113.824 45.2568 114.033 44.5896 114.033 43.9072C114.032 42.9919 113.657 42.1143 112.988 41.4671C112.32 40.8198 111.415 40.4559 110.47 40.4551V40.4551Z" fill="#00A4CE"/>
<path d="M93.7841 45.5938C93.4395 45.594 93.1025 45.4951 92.8158 45.3098C92.5292 45.1244 92.3058 44.8609 92.1739 44.5525C92.0419 44.2441 92.0073 43.9046 92.0744 43.5772C92.1416 43.2497 92.3075 42.9489 92.5512 42.7129C92.7949 42.4768 93.1055 42.316 93.4435 42.2509C93.7815 42.1859 94.1318 42.2194 94.4501 42.3472C94.7685 42.4751 95.0406 42.6915 95.2319 42.9692C95.4233 43.2469 95.5253 43.5733 95.5251 43.9072C95.5248 44.3544 95.3413 44.7833 95.0149 45.0995C94.6884 45.4158 94.2458 45.5935 93.7841 45.5938V45.5938ZM93.7841 40.4551C93.0796 40.4553 92.391 40.6578 91.8053 41.0371C91.2196 41.4164 90.7631 41.9554 90.4936 42.586C90.2241 43.2165 90.1537 43.9104 90.2912 44.5797C90.4287 45.2491 90.7679 45.8639 91.2661 46.3465C91.7643 46.8291 92.3989 47.1577 93.0899 47.2909C93.7809 47.4241 94.4971 47.3559 95.148 47.0948C95.7989 46.8337 96.3553 46.3915 96.7468 45.8241C97.1383 45.2568 97.3475 44.5896 97.3477 43.9072C97.3466 42.9919 96.9707 42.1145 96.3026 41.4673C95.6346 40.8201 94.7289 40.4561 93.7841 40.4551V40.4551Z" fill="#00A4CE"/>
<path d="M102.989 75.8993C102.899 76.0985 102.77 76.2787 102.608 76.4296C102.501 76.5304 102.421 76.6554 102.375 76.7936C102.329 76.9317 102.319 77.0787 102.346 77.2214L102.928 80.3311C102.933 80.3588 102.935 80.3868 102.935 80.4149C102.935 80.4732 102.923 80.5309 102.9 80.5847C102.864 80.6655 102.805 80.7348 102.73 80.7844C102.693 80.8093 102.653 80.8285 102.61 80.8413C102.564 80.8553 102.516 80.8623 102.468 80.8623H100.382C100.319 80.8625 100.256 80.8503 100.198 80.8264C100.115 80.7915 100.043 80.734 99.9923 80.6606C99.9414 80.5878 99.9141 80.5019 99.9139 80.4139C99.9137 80.3861 99.9165 80.3583 99.9222 80.3311V80.3311L100.504 77.2205C100.53 77.0777 100.52 76.9307 100.475 76.7926C100.429 76.6545 100.348 76.5294 100.241 76.4286C100.079 76.2773 99.9495 76.0968 99.8593 75.8973C99.7669 75.6906 99.7195 75.4676 99.7202 75.2422V75.2263C99.7219 74.9879 99.7773 74.7528 99.8824 74.5372C99.9874 74.3217 100.14 74.1309 100.328 73.978C100.477 73.8566 100.647 73.761 100.829 73.6954C101.018 73.6278 101.219 73.594 101.42 73.5956H101.475C101.665 73.6004 101.854 73.6373 102.031 73.7044C102.207 73.7704 102.37 73.8638 102.514 73.981V73.981C102.691 74.1244 102.837 74.301 102.943 74.5003C103.05 74.7018 103.112 74.923 103.125 75.1494V75.1494C103.125 75.1784 103.125 75.2023 103.125 75.2203V75.2493C103.126 75.4733 103.078 75.695 102.986 75.9003L102.989 75.8993ZM104.947 75.2483V75.2193C104.947 75.1584 104.947 75.1025 104.942 75.0506C104.915 74.5774 104.785 74.1151 104.562 73.6935C104.165 72.9447 103.499 72.3628 102.689 72.0578C102.316 71.9168 101.921 71.8397 101.521 71.8301H101.418C100.589 71.8295 99.7854 72.1124 99.1501 72.6289C98.7607 72.9463 98.4467 73.3415 98.2297 73.7874C98.0126 74.2333 97.8976 74.7194 97.8926 75.2123V75.2443C97.8924 75.7111 97.9913 76.1731 98.1832 76.6013C98.2988 76.8611 98.4478 77.1057 98.6266 77.3293L98.1235 80.0185C98.099 80.1503 98.0866 80.284 98.0864 80.418C98.0862 80.7108 98.1465 81.0007 98.2637 81.2707C98.4362 81.6659 98.7225 82.0046 99.0884 82.2464C99.2742 82.3685 99.4773 82.464 99.6913 82.53C99.9139 82.5973 100.146 82.631 100.379 82.6298H102.465C103.072 82.6301 103.654 82.397 104.083 81.9819C104.512 81.5668 104.754 81.0036 104.755 80.416C104.755 80.282 104.742 80.1483 104.718 80.0165V80.0165L104.214 77.3273C104.689 76.7315 104.947 76 104.947 75.2472V75.2483Z" fill="#00A4CE"/>
<path d="M99.1356 66.2209C99.7002 65.8515 100.351 65.6245 101.029 65.5605C101.707 65.4965 102.391 65.5976 103.019 65.8544C103.751 66.1564 104.379 66.6572 104.825 67.2964C105.203 67.8389 105.437 68.4641 105.505 69.1158H97.346C97.3862 68.7218 97.4876 68.336 97.647 67.9714C97.959 67.2611 98.4764 66.6532 99.1366 66.2209H99.1356ZM104.736 64.759C103.919 64.2251 102.978 63.897 101.997 63.8044C101.017 63.7118 100.028 63.8577 99.1201 64.2287C98.0632 64.6641 97.1585 65.3861 96.5152 66.3078C95.8534 67.2545 95.5004 68.3719 95.502 69.5153V69.9986C95.502 70.2327 95.598 70.4572 95.7688 70.6228C95.9397 70.7883 96.1714 70.8813 96.4131 70.8813H106.437C106.678 70.8813 106.91 70.7883 107.081 70.6228C107.252 70.4572 107.348 70.2327 107.348 69.9986V69.5153C107.349 68.7482 107.19 67.9887 106.881 67.2824C106.432 66.2585 105.687 65.3823 104.736 64.759V64.759Z" fill="#00A4CE"/>
</g>
<defs>
<clipPath id="clip0">
<rect width="146" height="123" fill="white"/>
</clipPath>
</defs>
</svg>
