<svg xmlns="http://www.w3.org/2000/svg" width="129.869" height="474.571" viewBox="0 0 129.869 474.571">
  <g id="line" transform="translate(-449.181 -462.833)">
    <path id="Path_42" data-name="Path 42" d="M579.038,700.226h0a.5.5,0,1,0-.383.595.5.5,0,0,0,.383-.595Zm-.634-2.932h0a.5.5,0,1,0-.383.595.5.5,0,0,0,.383-.595Zm-.634-2.932h0a.5.5,0,1,0-.384.594.5.5,0,0,0,.384-.594Zm-.635-2.932h0a.5.5,0,1,0-.383.594.5.5,0,0,0,.383-.594ZM576.5,688.5h0a.5.5,0,1,0-.383.595.5.5,0,0,0,.383-.595Zm-.634-2.932h0a.5.5,0,1,0-.383.595.5.5,0,0,0,.383-.595Zm-.634-2.932h0a.5.5,0,1,0-.384.594.5.5,0,0,0,.384-.594ZM574.6,679.7h0a.5.5,0,1,0-.383.594.5.5,0,0,0,.383-.594Zm-.634-2.932h0a.5.5,0,1,0-.383.594.5.5,0,0,0,.383-.594Zm-.634-2.933h0a.5.5,0,1,0-.384.6.5.5,0,0,0,.384-.6ZM572.7,670.9h0a.5.5,0,1,0-.383.6.5.5,0,0,0,.383-.6Zm-.634-2.932h0a.5.5,0,1,0-.383.6.5.5,0,0,0,.383-.6Zm-.635-2.932h0a.5.5,0,1,0-.382.594.5.5,0,0,0,.382-.594Zm-.633-2.932h0a.5.5,0,1,0-.384.594.5.5,0,0,0,.384-.594Zm-.635-2.932h0a.5.5,0,1,0-.383.594.5.5,0,0,0,.383-.594Zm-.634-2.932h0a.5.5,0,1,0-.383.594.5.5,0,0,0,.383-.594Zm-.635-2.933h0a.5.5,0,1,0-.382.6.5.5,0,0,0,.382-.6Zm-.634-2.932h0a.5.5,0,1,0-.383.595.5.5,0,0,0,.383-.595Zm-.634-2.932h0a.5.5,0,1,0-.383.594.5.5,0,0,0,.383-.594Zm-.634-2.932h0a.5.5,0,1,0-.383.594.5.5,0,0,0,.383-.594Zm-.635-2.933h0a.5.5,0,1,0-.383.6.5.5,0,0,0,.383-.6Zm-.634-2.932h0a.5.5,0,1,0-.383.595.5.5,0,0,0,.383-.595Zm-.634-2.932h0a.5.5,0,1,0-.383.595.5.5,0,0,0,.383-.595Zm-.635-2.932h0a.5.5,0,1,0-.382.594.5.5,0,0,0,.382-.594Zm-.634-2.932h0a.5.5,0,1,0-.383.594.5.5,0,0,0,.383-.594Zm-.634-2.932h0a.5.5,0,1,0-.383.594.5.5,0,0,0,.383-.594Zm-.634-2.932h0a.5.5,0,1,0-.383.594.5.5,0,0,0,.383-.594Zm-.635-2.932h0a.5.5,0,1,0-.383.594.5.5,0,0,0,.383-.594Zm-.634-2.933h0a.5.5,0,1,0-.383.595.5.5,0,0,0,.383-.595Zm-.634-2.932h0a.5.5,0,1,0-.383.6.5.5,0,0,0,.383-.6Zm-.635-2.932h0a.5.5,0,1,0-.382.594.5.5,0,0,0,.382-.594Zm-.634-2.932h0a.5.5,0,1,0-.383.594.5.5,0,0,0,.383-.594Zm-.634-2.933h0a.5.5,0,1,0-.383.6.5.5,0,0,0,.383-.6Zm-.634-2.932h0a.5.5,0,1,0-.383.6.5.5,0,0,0,.383-.6Zm-.635-2.932h0a.5.5,0,1,0-.382.594.5.5,0,0,0,.382-.594Zm-.634-2.932h0a.5.5,0,1,0-.383.594.5.5,0,0,0,.383-.594Zm-.634-2.932h0a.5.5,0,1,0-.383.594.5.5,0,0,0,.383-.594Zm-.634-2.932h0a.5.5,0,1,0-.383.594.5.5,0,0,0,.383-.594Zm-.635-2.932h0a.5.5,0,1,0-.383.594.5.5,0,0,0,.383-.594Zm-.634-2.932h0a.5.5,0,1,0-.383.594.5.5,0,0,0,.383-.594Zm-.634-2.933h0a.5.5,0,1,0-.383.595.5.5,0,0,0,.383-.595Zm-.635-2.932h0a.5.5,0,1,0-.382.594.5.5,0,0,0,.382-.594Zm-.634-2.932h0a.5.5,0,1,0-.383.594.5.5,0,0,0,.383-.594Zm-.634-2.933h0a.5.5,0,1,0-.383.595.5.5,0,0,0,.383-.595Zm-.634-2.932h0a.5.5,0,1,0-.383.595.5.5,0,0,0,.383-.595Zm-.635-2.932h0a.5.5,0,1,0-.383.594.5.5,0,0,0,.383-.594Zm-.634-2.932h0a.5.5,0,1,0-.383.594.5.5,0,0,0,.383-.594Zm-.634-2.932h0a.5.5,0,1,0-.384.594.5.5,0,0,0,.384-.594Zm-.635-2.932h0a.5.5,0,1,0-.382.594.5.5,0,0,0,.382-.594Zm-.634-2.932h0a.5.5,0,1,0-.383.594.5.5,0,0,0,.383-.594Zm-.634-2.932h0a.5.5,0,1,0-.383.594.5.5,0,0,0,.383-.594Zm-.634-2.933h0a.5.5,0,1,0-.384.6.5.5,0,0,0,.384-.6Zm-.635-2.932h0a.5.5,0,1,0-.383.6.5.5,0,0,0,.383-.6Zm-.634-2.932h0a.5.5,0,1,0-.383.594.5.5,0,0,0,.383-.594Zm-.634-2.932h0a.5.5,0,1,0-.383.594.5.5,0,0,0,.383-.594Zm-.634-2.933h0a.5.5,0,1,0-.384.6.5.5,0,0,0,.384-.6Zm-.635-2.932h0a.5.5,0,1,0-.383.6.5.5,0,0,0,.383-.6Zm-.634-2.932h0a.5.5,0,1,0-.383.594.5.5,0,0,0,.383-.594Zm-.634-2.932h0a.5.5,0,1,0-.384.594.5.5,0,0,0,.384-.594Zm-.635-2.932h0a.5.5,0,1,0-.383.594.5.5,0,0,0,.383-.594Zm-.634-2.932h0a.5.5,0,1,0-.383.594.5.5,0,0,0,.383-.594Zm-.634-2.932h0a.5.5,0,1,0-.383.594.5.5,0,0,0,.383-.594Zm-.634-2.932h0a.5.5,0,1,0-.384.594.5.5,0,0,0,.384-.594Zm-.635-2.933h0a.5.5,0,1,0-.383.595.5.5,0,0,0,.383-.595Zm-.634-2.932h0a.5.5,0,1,0-.383.595.5.5,0,0,0,.383-.595Zm-.635-2.932h0a.5.5,0,1,0-.383.594.5.5,0,0,0,.383-.594Zm-.634-2.932h0a.5.5,0,1,0-.383.594.5.5,0,0,0,.383-.594Zm-.634-2.933h0a.5.5,0,1,0-.383.6.5.5,0,0,0,.383-.6Zm-.635-2.932h0a.5.5,0,1,0-.382.6.5.5,0,0,0,.382-.6Zm-.634-2.932h0a.5.5,0,1,0-.383.594.5.5,0,0,0,.383-.594Zm-.634-2.932h0a.5.5,0,1,0-.383.594.5.5,0,0,0,.383-.594ZM534,492.042h0a.5.5,0,1,0-.383.594.5.5,0,0,0,.383-.594Zm-.635-2.932h0a.5.5,0,1,0-.382.594.5.5,0,0,0,.382-.594Zm-.634-2.932h0a.5.5,0,1,0-.383.594.5.5,0,0,0,.383-.594Zm-.634-2.932h0a.5.5,0,1,0-.383.594.5.5,0,0,0,.383-.594Zm-.635-2.933h0a.5.5,0,1,0-.382.6.5.5,0,0,0,.382-.6Zm-.634-2.932h0a.5.5,0,1,0-.383.6.5.5,0,0,0,.383-.6Zm-.634-2.932h0a.5.5,0,1,0-.383.594.5.5,0,0,0,.383-.594Zm-.634-2.932h0a.5.5,0,1,0-.383.594.5.5,0,0,0,.383-.594Zm-.635-2.933h0a.5.5,0,1,0-.382.595.5.5,0,0,0,.382-.595Z" fill="#869096"/>
    <path id="Path_43" data-name="Path 43" d="M527.878,465.589h0a.5.5,0,1,0,.5.5.5.5,0,0,0-.5-.5Zm-3,0h0a.5.5,0,1,0,.5.5.5.5,0,0,0-.5-.5Zm-3,0h0a.5.5,0,1,0,.5.5.5.5,0,0,0-.5-.5Zm-3,0h0a.5.5,0,1,0,.5.5.5.5,0,0,0-.5-.5Zm-3,0h0a.5.5,0,1,0,.5.5.5.5,0,0,0-.5-.5Zm-3,0h0a.5.5,0,1,0,.5.5.5.5,0,0,0-.5-.5Zm-3,0h0a.5.5,0,1,0,.5.5.5.5,0,0,0-.5-.5Z" fill="#869096"/>
    <path id="Path_44" data-name="Path 44" d="M504.482,463.333v.5a2.256,2.256,0,1,1-2.255,2.256,2.258,2.258,0,0,1,2.255-2.256v-1a3.256,3.256,0,1,0,3.256,3.256,3.255,3.255,0,0,0-3.256-3.256v.5Z" fill="#869096"/>
    <path id="Path_45" data-name="Path 45" d="M578.061,700.226h0a.5.5,0,1,0,.594-.383.5.5,0,0,0-.594.383Zm-.636,2.932h0a.5.5,0,1,0,.6-.383.5.5,0,0,0-.6.383Zm-.635,2.932h0a.5.5,0,1,0,.594-.383.5.5,0,0,0-.594.383Zm-.636,2.932h0a.5.5,0,1,0,.6-.383.5.5,0,0,0-.6.383Zm-.635,2.932h0a.5.5,0,1,0,.6-.383.5.5,0,0,0-.6.383Zm-.636,2.932h0a.5.5,0,1,0,.6-.383.5.5,0,0,0-.6.383Zm-.635,2.932h0a.5.5,0,1,0,.6-.383.5.5,0,0,0-.6.383Zm-.635,2.931h0a.5.5,0,1,0,.594-.382.5.5,0,0,0-.594.382Zm-.636,2.932h0a.5.5,0,1,0,.6-.383.5.5,0,0,0-.6.383Zm-.635,2.933h0a.5.5,0,1,0,.6-.383.5.5,0,0,0-.6.383Zm-.635,2.931h0a.5.5,0,1,0,.594-.382.5.5,0,0,0-.594.382Zm-.636,2.932h0a.5.5,0,1,0,.6-.383.5.5,0,0,0-.6.383Zm-.635,2.933h0a.5.5,0,1,0,.594-.383.5.5,0,0,0-.594.383Zm-.636,2.931h0a.5.5,0,1,0,.6-.383.5.5,0,0,0-.6.383Zm-.635,2.932h0a.5.5,0,1,0,.594-.383.5.5,0,0,0-.594.383Zm-.636,2.932h0a.5.5,0,1,0,.6-.382.5.5,0,0,0-.6.382Zm-.635,2.932h0a.5.5,0,1,0,.594-.383.5.5,0,0,0-.594.383Zm-.636,2.932h0a.5.5,0,1,0,.6-.383.5.5,0,0,0-.6.383ZM566.623,753h0a.5.5,0,1,0,.6-.382.5.5,0,0,0-.6.382Zm-.635,2.933h0a.5.5,0,1,0,.594-.383.5.5,0,0,0-.594.383Zm-.636,2.932h0a.5.5,0,1,0,.6-.383.5.5,0,0,0-.6.383Zm-.635,2.931h0a.5.5,0,1,0,.6-.383.5.5,0,0,0-.6.383Zm-.635,2.933h0a.5.5,0,1,0,.594-.383.5.5,0,0,0-.594.383Zm-.636,2.932h0a.5.5,0,1,0,.6-.383.5.5,0,0,0-.6.383Zm-.635,2.931h0a.5.5,0,1,0,.594-.383.5.5,0,0,0-.594.383Zm-.636,2.932h0a.5.5,0,1,0,.6-.382.5.5,0,0,0-.6.382Zm-.635,2.932h0a.5.5,0,1,0,.594-.382.5.5,0,0,0-.594.382Zm-.636,2.932h0a.5.5,0,1,0,.6-.383.5.5,0,0,0-.6.383Zm-.635,2.932h0a.5.5,0,1,0,.594-.383.5.5,0,0,0-.594.383Zm-.636,2.932h0a.5.5,0,1,0,.6-.382.5.5,0,0,0-.6.382ZM559,788.184h0a.5.5,0,1,0,.6-.383.5.5,0,0,0-.6.383Zm-.635,2.932h0a.5.5,0,1,0,.594-.383.5.5,0,0,0-.594.383Zm-.636,2.932h0a.5.5,0,1,0,.6-.383.5.5,0,0,0-.6.383Zm-.635,2.932h0a.5.5,0,1,0,.6-.383.5.5,0,0,0-.6.383Zm-.635,2.932h0a.5.5,0,1,0,.594-.383.5.5,0,0,0-.594.383Zm-.636,2.931h0a.5.5,0,1,0,.6-.382.5.5,0,0,0-.6.382Zm-.635,2.933h0a.5.5,0,1,0,.594-.383.5.5,0,0,0-.594.383Zm-.636,2.931h0a.5.5,0,1,0,.6-.382.5.5,0,0,0-.6.382Zm-.635,2.932h0a.5.5,0,1,0,.594-.383.5.5,0,0,0-.594.383Zm-.636,2.933h0a.5.5,0,1,0,.6-.383.5.5,0,0,0-.6.383Zm-.635,2.931h0a.5.5,0,1,0,.594-.382.5.5,0,0,0-.594.382Zm-.636,2.932h0a.5.5,0,1,0,.6-.383.5.5,0,0,0-.6.383Zm-.635,2.933h0a.5.5,0,1,0,.6-.383.5.5,0,0,0-.6.383Zm-.635,2.931h0a.5.5,0,1,0,.594-.383.5.5,0,0,0-.594.383Zm-.636,2.932h0a.5.5,0,1,0,.6-.383.5.5,0,0,0-.6.383Zm-.635,2.932h0a.5.5,0,1,0,.6-.383.5.5,0,0,0-.6.383Zm-.635,2.932h0a.5.5,0,1,0,.594-.383.5.5,0,0,0-.594.383Zm-.636,2.932h0a.5.5,0,1,0,.6-.383.5.5,0,0,0-.6.383Zm-.635,2.931h0a.5.5,0,1,0,.594-.382.5.5,0,0,0-.594.382Zm-.636,2.933h0a.5.5,0,1,0,.6-.383.5.5,0,0,0-.6.383Zm-.635,2.932h0a.5.5,0,1,0,.594-.383.5.5,0,0,0-.594.383Zm-.636,2.931h0a.5.5,0,1,0,.6-.382.5.5,0,0,0-.6.382Zm-.635,2.932h0a.5.5,0,1,0,.594-.382.5.5,0,0,0-.594.382Zm-.636,2.933h0a.5.5,0,1,0,.6-.383.5.5,0,0,0-.6.383Zm-.635,2.931h0a.5.5,0,1,0,.6-.383.5.5,0,0,0-.6.383Zm-.635,2.932h0a.5.5,0,1,0,.594-.383.5.5,0,0,0-.594.383Zm-.636,2.932h0a.5.5,0,1,0,.6-.382.5.5,0,0,0-.6.382Zm-.635,2.932h0a.5.5,0,1,0,.594-.383.5.5,0,0,0-.594.383Zm-.635,2.932h0a.5.5,0,1,0,.594-.383.5.5,0,0,0-.594.383Zm-.636,2.931h0a.5.5,0,1,0,.6-.382.5.5,0,0,0-.6.382Zm-.635,2.933h0a.5.5,0,1,0,.594-.383.5.5,0,0,0-.594.383Zm-.636,2.932h0a.5.5,0,1,0,.6-.383.5.5,0,0,0-.6.383Zm-.635,2.931h0a.5.5,0,1,0,.594-.383.5.5,0,0,0-.594.383Zm-.636,2.933h0a.5.5,0,1,0,.6-.383.5.5,0,0,0-.6.383Zm-.635,2.932h0a.5.5,0,1,0,.594-.383.5.5,0,0,0-.594.383Zm-.636,2.931h0a.5.5,0,1,0,.6-.383.5.5,0,0,0-.6.383Zm-.635,2.932h0a.5.5,0,1,0,.594-.382.5.5,0,0,0-.594.382Zm-.636,2.932h0a.5.5,0,1,0,.595-.382.5.5,0,0,0-.595.382Zm-.635,2.932h0a.5.5,0,1,0,.6-.383.5.5,0,0,0-.6.383Zm-.635,2.932h0a.5.5,0,1,0,.594-.383.5.5,0,0,0-.594.383Zm-.636,2.932h0a.5.5,0,1,0,.6-.382.5.5,0,0,0-.6.382Zm-.635,2.932h0a.5.5,0,1,0,.6-.383.5.5,0,0,0-.6.383Zm-.635,2.932h0a.5.5,0,1,0,.594-.383.5.5,0,0,0-.594.383Zm-.636,2.932h0a.5.5,0,1,0,.6-.383.5.5,0,0,0-.6.383Zm-.635,2.932h0a.5.5,0,1,0,.594-.383.5.5,0,0,0-.594.383Zm-.636,2.932h0a.5.5,0,1,0,.6-.383.5.5,0,0,0-.6.383Zm-.635,2.931h0a.5.5,0,1,0,.594-.382.5.5,0,0,0-.594.382Zm-.636,2.933h0a.5.5,0,1,0,.6-.383.5.5,0,0,0-.6.383Zm-.635,2.931h0a.5.5,0,1,0,.594-.382.5.5,0,0,0-.594.382Zm-.636,2.932h0a.5.5,0,1,0,.595-.383.5.5,0,0,0-.595.383Z" fill="#869096"/>
    <path id="Path_46" data-name="Path 46" d="M527.878,933.638h0a.5.5,0,1,0,.5.5.5.5,0,0,0-.5-.5Zm-3,0h0a.5.5,0,1,0,.5.5.5.5,0,0,0-.5-.5Zm-3,0h0a.5.5,0,1,0,.5.5.5.5,0,0,0-.5-.5Zm-3,0h0a.5.5,0,1,0,.5.5.5.5,0,0,0-.5-.5Zm-3,0h0a.5.5,0,1,0,.5.5.5.5,0,0,0-.5-.5Zm-3,0h0a.5.5,0,1,0,.5.5.5.5,0,0,0-.5-.5Zm-3,0h0a.5.5,0,1,0,.5.5.5.5,0,0,0-.5-.5Z" fill="#869096"/>
    <path id="Path_47" data-name="Path 47" d="M504.482,936.9v.5a3.265,3.265,0,1,0-3.255-3.265,3.261,3.261,0,0,0,3.255,3.265v-1a2.266,2.266,0,1,1,2.256-2.265,2.263,2.263,0,0,1-2.256,2.265v.5Z" fill="#869096"/>
    <path id="Path_48" data-name="Path 48" d="M578.995,700.1h0a.5.5,0,1,0-.218.672.5.5,0,0,0,.218-.672Zm-1.364-2.672h0a.5.5,0,1,0-.218.672.5.5,0,0,0,.218-.672Zm-1.363-2.673h0a.5.5,0,1,0-.218.673.5.5,0,0,0,.218-.673Zm-1.364-2.672h0a.5.5,0,1,0-.218.673.5.5,0,0,0,.218-.673Zm-1.364-2.672h0a.5.5,0,1,0-.218.672.5.5,0,0,0,.218-.672Zm-1.363-2.672h0a.5.5,0,1,0-.218.672.5.5,0,0,0,.218-.672Zm-1.364-2.672h0a.5.5,0,1,0-.218.672.5.5,0,0,0,.218-.672Zm-1.364-2.673h0a.5.5,0,1,0-.217.673.5.5,0,0,0,.217-.673Zm-1.363-2.672h0a.5.5,0,1,0-.218.673.5.5,0,0,0,.218-.673Zm-1.364-2.672h0a.5.5,0,1,0-.218.672.5.5,0,0,0,.218-.672Zm-1.363-2.672h0a.5.5,0,1,0-.218.673.5.5,0,0,0,.218-.673Zm-1.364-2.673h0a.5.5,0,1,0-.218.673.5.5,0,0,0,.218-.673Zm-1.363-2.672h0a.5.5,0,1,0-.219.673.5.5,0,0,0,.219-.673Zm-1.364-2.672h0a.5.5,0,1,0-.218.673.5.5,0,0,0,.218-.673Zm-1.364-2.672h0a.5.5,0,1,0-.218.673.5.5,0,0,0,.218-.673Zm-1.363-2.672h0a.5.5,0,1,0-.219.673.5.5,0,0,0,.219-.673Zm-1.364-2.672h0a.5.5,0,1,0-.218.672.5.5,0,0,0,.218-.672Zm-1.363-2.672h0a.5.5,0,1,0-.219.672.5.5,0,0,0,.219-.672Zm-1.364-2.673h0a.5.5,0,1,0-.218.673.5.5,0,0,0,.218-.673Zm-1.364-2.672h0a.5.5,0,1,0-.218.673.5.5,0,0,0,.218-.673Zm-1.363-2.672h0a.5.5,0,1,0-.218.672.5.5,0,0,0,.218-.672Zm-1.364-2.672h0a.5.5,0,1,0-.218.673.5.5,0,0,0,.218-.673Zm-1.364-2.672h0a.5.5,0,1,0-.217.672.5.5,0,0,0,.217-.672Zm-1.363-2.673h0a.5.5,0,1,0-.218.673.5.5,0,0,0,.218-.673Zm-1.364-2.672h0a.5.5,0,1,0-.218.673.5.5,0,0,0,.218-.673ZM544.9,633.3h0a.5.5,0,1,0-.217.673.5.5,0,0,0,.217-.673Zm-1.363-2.672h0a.5.5,0,1,0-.218.673.5.5,0,0,0,.218-.673Zm-1.364-2.673h0a.5.5,0,1,0-.218.673.5.5,0,0,0,.218-.673Zm-1.363-2.671h0a.5.5,0,1,0-.218.672.5.5,0,0,0,.218-.672Zm-1.364-2.673h0a.5.5,0,1,0-.218.673.5.5,0,0,0,.218-.673Zm-1.363-2.672h0a.5.5,0,1,0-.219.673.5.5,0,0,0,.219-.673Zm-1.364-2.672h0a.5.5,0,1,0-.218.673.5.5,0,0,0,.218-.673Zm-1.363-2.672h0a.5.5,0,1,0-.219.672.5.5,0,0,0,.219-.672ZM534,611.923h0a.5.5,0,1,0-.218.672.5.5,0,0,0,.218-.672Zm-1.364-2.673h0a.5.5,0,1,0-.218.673.5.5,0,0,0,.218-.673Zm-1.363-2.672h0a.5.5,0,1,0-.219.673.5.5,0,0,0,.219-.673Zm-1.364-2.672h0a.5.5,0,1,0-.218.673.5.5,0,0,0,.218-.673Zm-1.364-2.672h0a.5.5,0,1,0-.218.673.5.5,0,0,0,.218-.673Zm-1.363-2.672h0a.5.5,0,1,0-.218.672.5.5,0,0,0,.218-.672Zm-1.364-2.672h0a.5.5,0,1,0-.218.672.5.5,0,0,0,.218-.672Zm-1.363-2.673h0a.5.5,0,1,0-.218.673.5.5,0,0,0,.218-.673Zm-1.364-2.672h0a.5.5,0,1,0-.218.673.5.5,0,0,0,.218-.673Zm-1.364-2.672h0a.5.5,0,1,0-.217.673.5.5,0,0,0,.217-.673ZM520.36,585.2h0a.5.5,0,1,0-.218.672.5.5,0,0,0,.218-.672Z" fill="#869096"/>
    <path id="Path_49" data-name="Path 49" d="M518.681,582.512h0a.5.5,0,1,0,.5.5.5.5,0,0,0-.5-.5Zm-3,0h0a.5.5,0,1,0,.5.5.5.5,0,0,0-.5-.5Zm-3,0h0a.5.5,0,1,0,.5.5.5.5,0,0,0-.5-.5Zm-3,0h0a.5.5,0,1,0,.5.5.5.5,0,0,0-.5-.5Zm-3,0h0a.5.5,0,1,0,.5.5.5.5,0,0,0-.5-.5Zm-3,0h0a.5.5,0,1,0,.5.5.5.5,0,0,0-.5-.5Zm-3,0h0a.5.5,0,1,0,.5.5.5.5,0,0,0-.5-.5Zm-3,0h0a.5.5,0,1,0,.5.5.5.5,0,0,0-.5-.5Zm-3,0h0a.5.5,0,1,0,.5.5.5.5,0,0,0-.5-.5Zm-3,0h0a.5.5,0,1,0,.5.5.5.5,0,0,0-.5-.5Zm-3,0h0a.5.5,0,1,0,.5.5.5.5,0,0,0-.5-.5Zm-3,0h0a.5.5,0,1,0,.5.5.5.5,0,0,0-.5-.5Zm-3,0h0a.5.5,0,1,0,.5.5.5.5,0,0,0-.5-.5Zm-3,0h0a.5.5,0,1,0,.5.5.5.5,0,0,0-.5-.5Zm-3,0h0a.5.5,0,1,0,.5.5.5.5,0,0,0-.5-.5Zm-3,0h0a.5.5,0,1,0,.5.5.5.5,0,0,0-.5-.5Zm-3,0h0a.5.5,0,1,0,.5.5.5.5,0,0,0-.5-.5Zm-3,0h0a.5.5,0,1,0,.5.5.5.5,0,0,0-.5-.5Zm-3,0h0a.5.5,0,1,0,.5.5.5.5,0,0,0-.5-.5Zm-3,0h0a.5.5,0,1,0,.5.5.5.5,0,0,0-.5-.5Zm-3,0h0a.5.5,0,1,0,.5.5.5.5,0,0,0-.5-.5Zm-3,0h0a.5.5,0,1,0,.5.5.5.5,0,0,0-.5-.5Zm-3,0h0a.5.5,0,1,0,.5.5.5.5,0,0,0-.5-.5Zm-3,0h0a.5.5,0,1,0,.5.5.5.5,0,0,0-.5-.5Z" fill="#869096"/>
    <path id="Path_51" data-name="Path 51" d="M578.1,700.1h0a.5.5,0,1,0,.673-.217.5.5,0,0,0-.673.217Zm-1.368,2.67h0a.5.5,0,1,0,.673-.217.5.5,0,0,0-.673.217Zm-1.368,2.67h0a.5.5,0,1,0,.673-.217.5.5,0,0,0-.673.217ZM574,708.115h0a.5.5,0,1,0,.673-.218.5.5,0,0,0-.673.218Zm-1.368,2.67h0a.5.5,0,1,0,.673-.217.5.5,0,0,0-.673.217Zm-1.368,2.67h0a.5.5,0,1,0,.673-.217.5.5,0,0,0-.673.217Zm-1.367,2.669h0a.5.5,0,1,0,.672-.216.5.5,0,0,0-.672.216Zm-1.368,2.671h0a.5.5,0,1,0,.673-.217.5.5,0,0,0-.673.217Zm-1.368,2.67h0a.5.5,0,1,0,.673-.218.5.5,0,0,0-.673.218Zm-1.367,2.67h0a.5.5,0,1,0,.672-.217.5.5,0,0,0-.672.217Zm-1.368,2.67h0a.5.5,0,1,0,.673-.217.5.5,0,0,0-.673.217Zm-1.368,2.67h0a.5.5,0,1,0,.674-.217.5.5,0,0,0-.674.217Zm-1.367,2.671h0a.5.5,0,1,0,.673-.218.5.5,0,0,0-.673.218Zm-1.368,2.67h0A.5.5,0,1,0,561,734.6a.5.5,0,0,0-.673.218Zm-1.367,2.67h0a.5.5,0,1,0,.673-.217.5.5,0,0,0-.673.217Zm-1.368,2.67h0a.5.5,0,1,0,.673-.217.5.5,0,0,0-.673.217Zm-1.368,2.67h0a.5.5,0,1,0,.673-.217.5.5,0,0,0-.673.217Zm-1.367,2.671h0a.5.5,0,1,0,.673-.218.5.5,0,0,0-.673.218Zm-1.368,2.669h0a.5.5,0,1,0,.673-.216.5.5,0,0,0-.673.216Zm-1.368,2.67h0a.5.5,0,1,0,.673-.216.5.5,0,0,0-.673.216Zm-1.367,2.67h0a.5.5,0,1,0,.673-.217.5.5,0,0,0-.673.217Zm-1.368,2.67h0a.5.5,0,1,0,.673-.217.5.5,0,0,0-.673.217Zm-1.368,2.671h0a.5.5,0,1,0,.673-.218.5.5,0,0,0-.673.218Zm-1.367,2.67h0a.5.5,0,1,0,.673-.217.5.5,0,0,0-.673.217Zm-1.368,2.67h0a.5.5,0,1,0,.673-.217.5.5,0,0,0-.673.217Zm-1.368,2.67h0a.5.5,0,1,0,.674-.217.5.5,0,0,0-.674.217Zm-1.367,2.67h0a.5.5,0,1,0,.673-.217.5.5,0,0,0-.673.217Zm-1.368,2.671h0a.5.5,0,1,0,.673-.218.5.5,0,0,0-.673.218Zm-1.367,2.67h0a.5.5,0,1,0,.673-.217.5.5,0,0,0-.673.217Zm-1.368,2.67h0a.5.5,0,1,0,.673-.217.5.5,0,0,0-.673.217Zm-1.368,2.669h0a.5.5,0,1,0,.673-.216.5.5,0,0,0-.673.216Zm-1.367,2.67h0a.5.5,0,1,0,.673-.216.5.5,0,0,0-.673.216Zm-1.368,2.671h0a.5.5,0,1,0,.673-.218.5.5,0,0,0-.673.218Zm-1.368,2.67h0a.5.5,0,1,0,.673-.217.5.5,0,0,0-.673.217Zm-1.367,2.67h0a.5.5,0,1,0,.673-.217.5.5,0,0,0-.673.217Zm-1.368,2.67h0a.5.5,0,1,0,.673-.217.5.5,0,0,0-.673.217Zm-1.368,2.67h0a.5.5,0,1,0,.674-.217.5.5,0,0,0-.674.217ZM527.5,798.9h0a.5.5,0,1,0,.673-.218.5.5,0,0,0-.673.218Zm-1.368,2.67h0a.5.5,0,1,0,.673-.217.5.5,0,0,0-.673.217Zm-1.367,2.67h0a.5.5,0,1,0,.673-.217.5.5,0,0,0-.673.217Zm-1.368,2.67h0a.5.5,0,1,0,.673-.217.5.5,0,0,0-.673.217Zm-1.368,2.67h0a.5.5,0,1,0,.673-.217.5.5,0,0,0-.673.217Zm-1.367,2.67h0a.5.5,0,1,0,.673-.217.5.5,0,0,0-.673.217Zm-1.368,2.67h0a.5.5,0,1,0,.673-.216.5.5,0,0,0-.673.216Z" fill="#869096"/>
    <path id="Path_52" data-name="Path 52" d="M518.681,816.716h0a.5.5,0,1,0,.5.5.5.5,0,0,0-.5-.5Zm-3,0h0a.5.5,0,1,0,.5.5.5.5,0,0,0-.5-.5Zm-3,0h0a.5.5,0,1,0,.5.5.5.5,0,0,0-.5-.5Zm-3,0h0a.5.5,0,1,0,.5.5.5.5,0,0,0-.5-.5Zm-3,0h0a.5.5,0,1,0,.5.5.5.5,0,0,0-.5-.5Zm-3,0h0a.5.5,0,1,0,.5.5.5.5,0,0,0-.5-.5Zm-3,0h0a.5.5,0,1,0,.5.5.5.5,0,0,0-.5-.5Zm-3,0h0a.5.5,0,1,0,.5.5.5.5,0,0,0-.5-.5Zm-3,0h0a.5.5,0,1,0,.5.5.5.5,0,0,0-.5-.5Zm-3,0h0a.5.5,0,1,0,.5.5.5.5,0,0,0-.5-.5Zm-3,0h0a.5.5,0,1,0,.5.5.5.5,0,0,0-.5-.5Zm-3,0h0a.5.5,0,1,0,.5.5.5.5,0,0,0-.5-.5Zm-3,0h0a.5.5,0,1,0,.5.5.5.5,0,0,0-.5-.5Zm-3,0h0a.5.5,0,1,0,.5.5.5.5,0,0,0-.5-.5Zm-3,0h0a.5.5,0,1,0,.5.5.5.5,0,0,0-.5-.5Zm-3,0h0a.5.5,0,1,0,.5.5.5.5,0,0,0-.5-.5Zm-3,0h0a.5.5,0,1,0,.5.5.5.5,0,0,0-.5-.5Zm-3,0h0a.5.5,0,1,0,.5.5.5.5,0,0,0-.5-.5Zm-3,0h0a.5.5,0,1,0,.5.5.5.5,0,0,0-.5-.5Zm-3,0h0a.5.5,0,1,0,.5.5.5.5,0,0,0-.5-.5Zm-3,0h0a.5.5,0,1,0,.5.5.5.5,0,0,0-.5-.5Zm-3,0h0a.5.5,0,1,0,.5.5.5.5,0,0,0-.5-.5Zm-3,0h0a.5.5,0,1,0,.5.5.5.5,0,0,0-.5-.5Zm-3,0h0a.5.5,0,1,0,.5.5.5.5,0,0,0-.5-.5Z" fill="#869096"/>
    <path id="Path_53" data-name="Path 53" d="M578.545,699.832h0a.5.5,0,1,0,.505.5.5.5,0,0,0-.505-.5Zm-3,.027h0a.5.5,0,1,0,.505.5.5.5,0,0,0-.505-.5Zm-3,.028h0a.5.5,0,1,0,.505.495.5.5,0,0,0-.505-.495Zm-3,.027h0a.5.5,0,1,0,.505.5.5.5,0,0,0-.505-.5Zm-3,.028h0a.5.5,0,1,0,.5.495.5.5,0,0,0-.5-.495Zm-3,.028h0a.5.5,0,1,0,.5.5.5.5,0,0,0-.5-.5Zm-3,.027h0a.5.5,0,1,0,.5.5.5.5,0,0,0-.5-.5Zm-3,.028h0a.5.5,0,1,0,.5.495.5.5,0,0,0-.5-.495Zm-3,.027h0a.5.5,0,1,0,.5.5.5.5,0,0,0-.5-.5Zm-3,.028h0a.5.5,0,1,0,.5.495.5.5,0,0,0-.5-.495Zm-3,.027h0a.5.5,0,1,0,.5.5.5.5,0,0,0-.5-.5Zm-3,.028h0a.5.5,0,1,0,.505.495.5.5,0,0,0-.505-.495Zm-3,.028h0a.5.5,0,1,0,.5.495.5.5,0,0,0-.5-.495Zm-3,.027h0a.5.5,0,1,0,.5.495.5.5,0,0,0-.5-.495Zm-3,.028h0a.5.5,0,1,0,.5.495.5.5,0,0,0-.5-.495Zm-3,.027h0a.5.5,0,1,0,.5.5.5.5,0,0,0-.5-.5Zm-3,.028h0a.5.5,0,1,0,.5.495.5.5,0,0,0-.5-.495Zm-3,.027h0a.5.5,0,1,0,.5.5.5.5,0,0,0-.5-.5Zm-3,.028h0a.5.5,0,1,0,.505.495.5.5,0,0,0-.505-.495Zm-3,.027h0a.5.5,0,1,0,.5.5.5.5,0,0,0-.5-.5Zm-3,.028h0a.5.5,0,1,0,.5.495.5.5,0,0,0-.5-.495Zm-3,.028h0a.5.5,0,1,0,.5.495.5.5,0,0,0-.5-.495Zm-3,.027h0a.5.5,0,1,0,.5.495.5.5,0,0,0-.5-.495Zm-3,.027h0a.5.5,0,1,0,.5.5.5.5,0,0,0-.5-.5Z" fill="#869096"/>
    <path id="Path_54" data-name="Path 54" d="M504.482,698.231v.5a2.256,2.256,0,1,1-2.255,2.256,2.258,2.258,0,0,1,2.255-2.256v-1a3.256,3.256,0,1,0,3.256,3.256,3.255,3.255,0,0,0-3.256-3.256v.5Z" fill="#869096"/>
    <path id="Path_55" data-name="Path 55" d="M578.1,700.1h0a.5.5,0,1,0,.673-.217.5.5,0,0,0-.673.217Zm-1.368,2.67h0a.5.5,0,1,0,.673-.217.5.5,0,0,0-.673.217Zm-1.368,2.67h0a.5.5,0,1,0,.673-.217.5.5,0,0,0-.673.217ZM574,708.115h0a.5.5,0,1,0,.673-.218.5.5,0,0,0-.673.218Zm-1.368,2.67h0a.5.5,0,1,0,.673-.217.5.5,0,0,0-.673.217Zm-1.368,2.67h0a.5.5,0,1,0,.673-.217.5.5,0,0,0-.673.217Zm-1.367,2.669h0a.5.5,0,1,0,.672-.216.5.5,0,0,0-.672.216Zm-1.368,2.671h0a.5.5,0,1,0,.673-.217.5.5,0,0,0-.673.217Zm-1.368,2.67h0a.5.5,0,1,0,.673-.218.5.5,0,0,0-.673.218Zm-1.367,2.67h0a.5.5,0,1,0,.672-.217.5.5,0,0,0-.672.217Zm-1.368,2.67h0a.5.5,0,1,0,.673-.217.5.5,0,0,0-.673.217Zm-1.368,2.67h0a.5.5,0,1,0,.674-.217.5.5,0,0,0-.674.217Zm-1.367,2.671h0a.5.5,0,1,0,.673-.218.5.5,0,0,0-.673.218Zm-1.368,2.67h0A.5.5,0,1,0,561,734.6a.5.5,0,0,0-.673.218Zm-1.367,2.67h0a.5.5,0,1,0,.673-.217.5.5,0,0,0-.673.217Zm-1.368,2.67h0a.5.5,0,1,0,.673-.217.5.5,0,0,0-.673.217Zm-1.368,2.67h0a.5.5,0,1,0,.673-.217.5.5,0,0,0-.673.217Zm-1.367,2.671h0a.5.5,0,1,0,.673-.218.5.5,0,0,0-.673.218Zm-1.368,2.669h0a.5.5,0,1,0,.673-.216.5.5,0,0,0-.673.216Zm-1.368,2.67h0a.5.5,0,1,0,.673-.216.5.5,0,0,0-.673.216Zm-1.367,2.67h0a.5.5,0,1,0,.673-.217.5.5,0,0,0-.673.217Zm-1.368,2.67h0a.5.5,0,1,0,.673-.217.5.5,0,0,0-.673.217Zm-1.368,2.671h0a.5.5,0,1,0,.673-.218.5.5,0,0,0-.673.218Zm-1.367,2.67h0a.5.5,0,1,0,.673-.217.5.5,0,0,0-.673.217Zm-1.368,2.67h0a.5.5,0,1,0,.673-.217.5.5,0,0,0-.673.217Zm-1.368,2.67h0a.5.5,0,1,0,.674-.217.5.5,0,0,0-.674.217Zm-1.367,2.67h0a.5.5,0,1,0,.673-.217.5.5,0,0,0-.673.217Zm-1.368,2.671h0a.5.5,0,1,0,.673-.218.5.5,0,0,0-.673.218Zm-1.367,2.67h0a.5.5,0,1,0,.673-.217.5.5,0,0,0-.673.217Zm-1.368,2.67h0a.5.5,0,1,0,.673-.217.5.5,0,0,0-.673.217Zm-1.368,2.669h0a.5.5,0,1,0,.673-.216.5.5,0,0,0-.673.216Zm-1.367,2.67h0a.5.5,0,1,0,.673-.216.5.5,0,0,0-.673.216Zm-1.368,2.671h0a.5.5,0,1,0,.673-.218.5.5,0,0,0-.673.218Zm-1.368,2.67h0a.5.5,0,1,0,.673-.217.5.5,0,0,0-.673.217Zm-1.367,2.67h0a.5.5,0,1,0,.673-.217.5.5,0,0,0-.673.217Zm-1.368,2.67h0a.5.5,0,1,0,.673-.217.5.5,0,0,0-.673.217Zm-1.368,2.67h0a.5.5,0,1,0,.674-.217.5.5,0,0,0-.674.217ZM527.5,798.9h0a.5.5,0,1,0,.673-.218.5.5,0,0,0-.673.218Zm-1.368,2.67h0a.5.5,0,1,0,.673-.217.5.5,0,0,0-.673.217Zm-1.367,2.67h0a.5.5,0,1,0,.673-.217.5.5,0,0,0-.673.217Zm-1.368,2.67h0a.5.5,0,1,0,.673-.217.5.5,0,0,0-.673.217Zm-1.368,2.67h0a.5.5,0,1,0,.673-.217.5.5,0,0,0-.673.217Zm-1.367,2.67h0a.5.5,0,1,0,.673-.217.5.5,0,0,0-.673.217Zm-1.368,2.67h0a.5.5,0,1,0,.673-.216.5.5,0,0,0-.673.216Z" fill="#869096"/>
  </g>
</svg>
