<svg width="908" height="290" viewBox="0 0 908 290" fill="none" xmlns="http://www.w3.org/2000/svg">
<g clip-path="url(#clip0_1999_1092)">
<path d="M139 254.114H42.866V271.438H23.98L23.98 211.372H42.866V228.554H139V254.114ZM139 186.62H23.98V161.202H70.556L70.556 143.452H23.98V117.892H139V143.452H88.732L88.732 161.202H139V186.62ZM139 86.1757H23.98V34.4877H41.304V60.7577H69.846V40.7357H87.454V60.7577H121.818L121.818 34.2037H139L139 86.1757Z" fill="white"/>
<path d="M196.614 150.639C187.674 150.639 180.572 148.95 175.307 145.573C170.142 142.196 166.516 137.527 164.43 131.567C162.344 125.508 161.301 118.505 161.301 110.558V67.199C161.301 58.855 162.344 51.703 164.43 45.743C166.516 39.6837 170.142 35.015 175.307 31.737C180.572 28.459 187.674 26.82 196.614 26.82C205.256 26.82 212.011 28.2603 216.878 31.141C221.845 34.0217 225.321 38.0943 227.308 43.359C229.394 48.6237 230.437 54.7327 230.437 61.686V71.818H206.597V60.494C206.597 57.7127 206.448 55.13 206.15 52.746C205.852 50.2627 205.008 48.276 203.617 46.786C202.326 45.1967 200.041 44.402 196.763 44.402C193.485 44.402 191.101 45.1967 189.611 46.786C188.121 48.3753 187.177 50.4613 186.78 53.044C186.383 55.5273 186.184 58.3087 186.184 61.388V116.22C186.184 119.597 186.432 122.577 186.929 125.16C187.525 127.643 188.568 129.58 190.058 130.971C191.647 132.262 193.882 132.908 196.763 132.908C199.942 132.908 202.177 132.163 203.468 130.673C204.859 129.084 205.703 126.998 206.001 124.415C206.398 121.832 206.597 119.101 206.597 116.22V104.449H230.437V114.432C230.437 121.485 229.444 127.743 227.457 133.206C225.47 138.57 222.043 142.841 217.176 146.02C212.309 149.099 205.455 150.639 196.614 150.639ZM245.446 149V28.31H270.031V132.312H298.341V149H245.446ZM341.834 150.639C332.994 150.639 325.991 149.05 320.825 145.871C315.66 142.692 311.935 138.173 309.65 132.312C307.465 126.352 306.372 119.25 306.372 111.005V66.007C306.372 57.7623 307.465 50.7097 309.65 44.849C311.935 38.9883 315.66 34.5183 320.825 31.439C325.991 28.3597 332.994 26.82 341.834 26.82C350.774 26.82 357.827 28.4093 362.992 31.588C368.257 34.6673 371.982 39.1373 374.167 44.998C376.452 50.7593 377.594 57.7623 377.594 66.007V111.005C377.594 119.25 376.452 126.352 374.167 132.312C371.982 138.173 368.257 142.692 362.992 145.871C357.827 149.05 350.774 150.639 341.834 150.639ZM341.834 132.908C345.013 132.908 347.347 132.213 348.837 130.822C350.327 129.332 351.321 127.395 351.817 125.011C352.314 122.528 352.562 119.895 352.562 117.114V60.047C352.562 57.2657 352.314 54.683 351.817 52.299C351.321 49.915 350.327 48.0277 348.837 46.637C347.347 45.147 345.013 44.402 341.834 44.402C338.854 44.402 336.619 45.147 335.129 46.637C333.639 48.0277 332.646 49.915 332.149 52.299C331.653 54.683 331.404 57.2657 331.404 60.047V117.114C331.404 119.895 331.603 122.528 332 125.011C332.497 127.395 333.49 129.332 334.98 130.822C336.47 132.213 338.755 132.908 341.834 132.908ZM427.982 150.639C418.843 150.639 411.741 149.099 406.675 146.02C401.609 142.841 398.033 138.322 395.947 132.461C393.96 126.501 392.967 119.299 392.967 110.856V28.31H417.254V114.283C417.254 117.263 417.453 120.193 417.85 123.074C418.347 125.955 419.34 128.289 420.83 130.077C422.419 131.865 424.803 132.759 427.982 132.759C431.26 132.759 433.644 131.865 435.134 130.077C436.723 128.289 437.717 125.955 438.114 123.074C438.511 120.193 438.71 117.263 438.71 114.283V28.31H462.997V110.856C462.997 119.299 461.954 126.501 459.868 132.461C457.881 138.322 454.355 142.841 449.289 146.02C444.223 149.099 437.121 150.639 427.982 150.639ZM480.151 149V28.31H509.653C519.884 28.31 527.831 29.651 533.493 32.333C539.254 34.9157 543.327 39.038 545.711 44.7C548.095 50.2627 549.287 57.4147 549.287 66.156V110.111C549.287 119.051 548.095 126.402 545.711 132.163C543.327 137.924 539.304 142.196 533.642 144.977C528.079 147.659 520.281 149 510.249 149H480.151ZM504.736 131.865H509.951C514.52 131.865 517.748 131.17 519.636 129.779C521.622 128.289 522.864 126.153 523.361 123.372C523.857 120.491 524.106 116.965 524.106 112.793V63.027C524.106 58.855 523.758 55.5273 523.063 53.044C522.467 50.4613 521.175 48.574 519.189 47.382C517.301 46.19 514.172 45.594 509.802 45.594H504.736V131.865ZM636.339 150.639C627.399 150.639 620.296 148.95 615.032 145.573C609.866 142.196 606.241 137.527 604.155 131.567C602.069 125.508 601.026 118.505 601.026 110.558V67.199C601.026 58.855 602.069 51.703 604.155 45.743C606.241 39.6837 609.866 35.015 615.032 31.737C620.296 28.459 627.399 26.82 636.339 26.82C644.981 26.82 651.735 28.2603 656.603 31.141C661.569 34.0217 665.046 38.0943 667.033 43.359C669.119 48.6237 670.162 54.7327 670.162 61.686V71.818H646.322V60.494C646.322 57.7127 646.173 55.13 645.875 52.746C645.577 50.2627 644.732 48.276 643.342 46.786C642.05 45.1967 639.766 44.402 636.488 44.402C633.21 44.402 630.826 45.1967 629.336 46.786C627.846 48.3753 626.902 50.4613 626.505 53.044C626.107 55.5273 625.909 58.3087 625.909 61.388V116.22C625.909 119.597 626.157 122.577 626.654 125.16C627.25 127.643 628.293 129.58 629.783 130.971C631.372 132.262 633.607 132.908 636.488 132.908C639.666 132.908 641.901 132.163 643.193 130.673C644.583 129.084 645.428 126.998 645.726 124.415C646.123 121.832 646.322 119.101 646.322 116.22V104.449H670.162V114.432C670.162 121.485 669.168 127.743 667.182 133.206C665.195 138.57 661.768 142.841 656.901 146.02C652.033 149.099 645.179 150.639 636.339 150.639ZM685.469 149V28.31H709.905V149H685.469ZM759.677 150.639C752.227 150.639 746.019 149.298 741.052 146.616C736.085 143.835 732.311 139.712 729.728 134.249C727.245 128.686 725.804 121.634 725.407 113.091L746.565 109.515C746.764 114.482 747.26 118.654 748.055 122.031C748.949 125.309 750.24 127.792 751.929 129.481C753.717 131.07 755.902 131.865 758.485 131.865C761.664 131.865 763.799 130.872 764.892 128.885C766.084 126.898 766.68 124.614 766.68 122.031C766.68 116.965 765.438 112.743 762.955 109.366C760.571 105.889 757.392 102.413 753.419 98.936L740.903 88.059C736.433 84.2843 732.758 80.013 729.877 75.245C727.096 70.477 725.705 64.6163 725.705 57.663C725.705 47.7297 728.586 40.1307 734.347 34.866C740.208 29.502 748.204 26.82 758.336 26.82C764.395 26.82 769.362 27.8133 773.236 29.8C777.11 31.7867 780.09 34.4687 782.176 37.846C784.361 41.124 785.851 44.7497 786.646 48.723C787.54 52.597 788.086 56.471 788.285 60.345L767.276 63.474C767.077 59.7987 766.73 56.5703 766.233 53.789C765.836 51.0077 764.942 48.8223 763.551 47.233C762.26 45.6437 760.273 44.849 757.591 44.849C754.71 44.849 752.575 45.9417 751.184 48.127C749.793 50.213 749.098 52.5473 749.098 55.13C749.098 59.4013 750.042 62.9277 751.929 65.709C753.916 68.391 756.598 71.222 759.975 74.202L772.193 84.93C777.259 89.3007 781.58 94.317 785.156 99.979C788.831 105.542 790.669 112.445 790.669 120.69C790.669 126.352 789.378 131.468 786.795 136.037C784.212 140.606 780.587 144.182 775.918 146.765C771.349 149.348 765.935 150.639 759.677 150.639ZM837.288 150.639C828.448 150.639 821.445 149.05 816.279 145.871C811.114 142.692 807.389 138.173 805.104 132.312C802.919 126.352 801.826 119.25 801.826 111.005V66.007C801.826 57.7623 802.919 50.7097 805.104 44.849C807.389 38.9883 811.114 34.5183 816.279 31.439C821.445 28.3597 828.448 26.82 837.288 26.82C846.228 26.82 853.281 28.4093 858.446 31.588C863.711 34.6673 867.436 39.1373 869.621 44.998C871.906 50.7593 873.048 57.7623 873.048 66.007V111.005C873.048 119.25 871.906 126.352 869.621 132.312C867.436 138.173 863.711 142.692 858.446 145.871C853.281 149.05 846.228 150.639 837.288 150.639ZM837.288 132.908C840.467 132.908 842.801 132.213 844.291 130.822C845.781 129.332 846.775 127.395 847.271 125.011C847.768 122.528 848.016 119.895 848.016 117.114V60.047C848.016 57.2657 847.768 54.683 847.271 52.299C846.775 49.915 845.781 48.0277 844.291 46.637C842.801 45.147 840.467 44.402 837.288 44.402C834.308 44.402 832.073 45.147 830.583 46.637C829.093 48.0277 828.1 49.915 827.603 52.299C827.107 54.683 826.858 57.2657 826.858 60.047V117.114C826.858 119.895 827.057 122.528 827.454 125.011C827.951 127.395 828.944 129.332 830.434 130.822C831.924 132.213 834.209 132.908 837.288 132.908Z" fill="white"/>
<path d="M173.804 264V176.52H191.408C197.24 176.52 202.064 177.312 205.88 178.896C209.696 180.408 212.504 182.892 214.304 186.348C216.176 189.732 217.112 194.196 217.112 199.74C217.112 203.124 216.752 206.22 216.032 209.028C215.312 211.764 214.16 214.104 212.576 216.048C210.992 217.92 208.904 219.288 206.312 220.152L218.732 264H206.96L195.512 222.96H186.008V264H173.804ZM186.008 214.212H190.652C194.108 214.212 196.916 213.78 199.076 212.916C201.236 212.052 202.82 210.576 203.828 208.488C204.836 206.4 205.34 203.484 205.34 199.74C205.34 194.628 204.404 190.956 202.532 188.724C200.66 186.42 196.952 185.268 191.408 185.268H186.008V214.212ZM230.456 264V176.52H242.444V264H230.456ZM277.225 264.972C272.185 264.972 267.973 263.892 264.589 261.732C261.277 259.572 258.757 256.584 257.029 252.768C255.301 248.952 254.293 244.524 254.005 239.484L264.805 236.568C265.021 239.664 265.489 242.652 266.209 245.532C267.001 248.412 268.261 250.788 269.989 252.66C271.717 254.46 274.129 255.36 277.225 255.36C280.393 255.36 282.769 254.496 284.353 252.768C286.009 250.968 286.837 248.412 286.837 245.1C286.837 241.14 285.937 237.972 284.137 235.596C282.337 233.148 280.069 230.7 277.333 228.252L262.645 215.292C259.765 212.772 257.641 210.036 256.273 207.084C254.905 204.06 254.221 200.352 254.221 195.96C254.221 189.552 256.057 184.584 259.729 181.056C263.401 177.528 268.405 175.764 274.741 175.764C278.197 175.764 281.221 176.232 283.813 177.168C286.477 178.032 288.673 179.4 290.401 181.272C292.201 183.144 293.605 185.52 294.613 188.4C295.693 191.208 296.413 194.52 296.773 198.336L286.405 201.144C286.189 198.264 285.757 195.636 285.109 193.26C284.461 190.812 283.309 188.868 281.653 187.428C280.069 185.916 277.765 185.16 274.741 185.16C271.717 185.16 269.341 185.988 267.613 187.644C265.957 189.228 265.129 191.604 265.129 194.772C265.129 197.436 265.561 199.632 266.425 201.36C267.361 203.088 268.837 204.852 270.853 206.652L285.649 219.612C288.961 222.492 291.877 225.948 294.397 229.98C296.917 233.94 298.177 238.656 298.177 244.128C298.177 248.448 297.277 252.192 295.477 255.36C293.677 258.456 291.193 260.832 288.025 262.488C284.929 264.144 281.329 264.972 277.225 264.972ZM307.644 264V176.52H319.848V217.776L339.936 176.52H351.276L333.996 215.076L354.084 264H342.204L325.464 222.96L319.848 233.112V264H307.644ZM404.156 264.972C400.196 264.972 396.776 264.144 393.896 262.488C391.088 260.76 388.928 258.42 387.416 255.468C385.976 252.516 385.256 249.132 385.256 245.316C385.256 239.772 386.48 234.984 388.928 230.952C391.448 226.848 394.472 223.212 398 220.044C396.704 217.452 395.3 214.86 393.788 212.268C392.348 209.604 391.088 206.868 390.008 204.06C389 201.18 388.496 198.192 388.496 195.096C388.496 191.208 389.252 187.824 390.764 184.944C392.276 182.064 394.436 179.832 397.244 178.248C400.052 176.592 403.364 175.764 407.18 175.764C410.708 175.764 413.84 176.412 416.576 177.708C419.384 179.004 421.616 180.876 423.272 183.324C424.928 185.7 425.756 188.58 425.756 191.964C425.756 195.78 424.856 199.452 423.056 202.98C421.328 206.436 419.204 209.676 416.684 212.7C414.164 215.652 411.716 218.28 409.34 220.584L422.516 241.32C423.308 239.808 423.956 238.116 424.46 236.244C425.036 234.3 425.504 232.248 425.864 230.088C426.296 227.928 426.62 225.84 426.836 223.824H438.284C438.284 226.632 437.852 229.584 436.988 232.68C436.196 235.776 435.152 238.728 433.856 241.536C432.56 244.272 431.228 246.612 429.86 248.556C430.796 249.708 432.02 250.752 433.532 251.688C435.044 252.552 436.664 252.984 438.392 252.984V264.864C438.104 264.864 437.816 264.864 437.528 264.864C437.312 264.864 437.096 264.864 436.88 264.864C434.792 264.792 432.92 264.324 431.264 263.46C429.608 262.524 428.096 261.408 426.728 260.112C425.432 258.816 424.172 257.592 422.948 256.44C421.004 258.888 418.448 260.94 415.28 262.596C412.184 264.18 408.476 264.972 404.156 264.972ZM404.156 255.36C406.892 255.36 409.196 254.712 411.068 253.416C412.94 252.048 414.56 250.536 415.928 248.88L402.536 228.252C400.808 230.484 399.404 233.112 398.324 236.136C397.316 239.088 396.812 242.148 396.812 245.316C396.812 246.972 397.028 248.592 397.46 250.176C397.892 251.688 398.648 252.948 399.728 253.956C400.808 254.892 402.284 255.36 404.156 255.36ZM405.344 214.32C406.856 212.52 408.26 210.396 409.556 207.948C410.924 205.5 412.04 202.908 412.904 200.172C413.768 197.364 414.2 194.628 414.2 191.964C414.2 189.876 413.552 188.256 412.256 187.104C410.96 185.88 409.268 185.268 407.18 185.268C404.588 185.268 402.752 186.276 401.672 188.292C400.592 190.308 400.052 192.576 400.052 195.096C400.052 198.408 400.592 201.72 401.672 205.032C402.824 208.272 404.048 211.368 405.344 214.32ZM471.22 264L489.796 176.52H501.568L520.252 264H508.696L504.7 241.968H486.88L482.668 264H471.22ZM488.5 233.22H503.08L495.736 193.8L488.5 233.22ZM529.128 264V176.52H548.136C554.616 176.52 559.728 177.528 563.472 179.544C567.288 181.488 569.988 184.44 571.572 188.4C573.228 192.36 574.056 197.292 574.056 203.196V235.38C574.056 241.572 573.228 246.792 571.572 251.04C569.988 255.288 567.36 258.528 563.688 260.76C560.088 262.92 555.228 264 549.108 264H529.128ZM541.332 255.252H548.244C552.708 255.252 555.876 254.388 557.748 252.66C559.62 250.932 560.736 248.412 561.096 245.1C561.528 241.788 561.744 237.792 561.744 233.112V204.708C561.744 200.172 561.456 196.5 560.88 193.692C560.304 190.884 559.044 188.832 557.1 187.536C555.156 186.24 552.096 185.592 547.92 185.592H541.332V255.252ZM601.309 264L581.761 176.52H593.209L607.033 240.996L620.209 176.52H631.333L612.001 264H601.309ZM641.257 264V176.52H653.245V264H641.257ZM688.026 264.972C682.986 264.972 678.774 263.892 675.39 261.732C672.078 259.572 669.558 256.584 667.83 252.768C666.102 248.952 665.094 244.524 664.806 239.484L675.606 236.568C675.822 239.664 676.29 242.652 677.01 245.532C677.802 248.412 679.062 250.788 680.79 252.66C682.518 254.46 684.93 255.36 688.026 255.36C691.194 255.36 693.57 254.496 695.154 252.768C696.81 250.968 697.638 248.412 697.638 245.1C697.638 241.14 696.738 237.972 694.938 235.596C693.138 233.148 690.87 230.7 688.134 228.252L673.446 215.292C670.566 212.772 668.442 210.036 667.074 207.084C665.706 204.06 665.022 200.352 665.022 195.96C665.022 189.552 666.858 184.584 670.53 181.056C674.202 177.528 679.206 175.764 685.542 175.764C688.998 175.764 692.022 176.232 694.614 177.168C697.278 178.032 699.474 179.4 701.202 181.272C703.002 183.144 704.406 185.52 705.414 188.4C706.494 191.208 707.214 194.52 707.574 198.336L697.206 201.144C696.99 198.264 696.558 195.636 695.91 193.26C695.262 190.812 694.11 188.868 692.454 187.428C690.87 185.916 688.566 185.16 685.542 185.16C682.518 185.16 680.142 185.988 678.414 187.644C676.758 189.228 675.93 191.604 675.93 194.772C675.93 197.436 676.362 199.632 677.226 201.36C678.162 203.088 679.638 204.852 681.654 206.652L696.45 219.612C699.762 222.492 702.678 225.948 705.198 229.98C707.718 233.94 708.978 238.656 708.978 244.128C708.978 248.448 708.078 252.192 706.278 255.36C704.478 258.456 701.994 260.832 698.826 262.488C695.73 264.144 692.13 264.972 688.026 264.972ZM740.801 264.972C734.897 264.972 730.181 263.82 726.653 261.516C723.125 259.212 720.605 255.936 719.093 251.688C717.581 247.368 716.825 242.328 716.825 236.568V203.412C716.825 197.652 717.581 192.72 719.093 188.616C720.677 184.44 723.197 181.272 726.653 179.112C730.181 176.88 734.897 175.764 740.801 175.764C746.705 175.764 751.385 176.88 754.841 179.112C758.297 181.344 760.781 184.512 762.293 188.616C763.877 192.72 764.669 197.652 764.669 203.412V236.676C764.669 242.364 763.877 247.332 762.293 251.58C760.781 255.828 758.297 259.14 754.841 261.516C751.385 263.82 746.705 264.972 740.801 264.972ZM740.801 255.36C744.041 255.36 746.489 254.712 748.145 253.416C749.801 252.048 750.917 250.176 751.493 247.8C752.069 245.352 752.357 242.508 752.357 239.268V200.928C752.357 197.688 752.069 194.916 751.493 192.612C750.917 190.236 749.801 188.436 748.145 187.212C746.489 185.916 744.041 185.268 740.801 185.268C737.561 185.268 735.077 185.916 733.349 187.212C731.693 188.436 730.577 190.236 730.001 192.612C729.425 194.916 729.137 197.688 729.137 200.928V239.268C729.137 242.508 729.425 245.352 730.001 247.8C730.577 250.176 731.693 252.048 733.349 253.416C735.077 254.712 737.561 255.36 740.801 255.36ZM776.663 264V176.52H794.267C800.099 176.52 804.923 177.312 808.739 178.896C812.555 180.408 815.363 182.892 817.163 186.348C819.035 189.732 819.971 194.196 819.971 199.74C819.971 203.124 819.611 206.22 818.891 209.028C818.171 211.764 817.019 214.104 815.435 216.048C813.851 217.92 811.763 219.288 809.171 220.152L821.591 264H809.819L798.371 222.96H788.867V264H776.663ZM788.867 214.212H793.511C796.967 214.212 799.775 213.78 801.935 212.916C804.095 212.052 805.679 210.576 806.687 208.488C807.695 206.4 808.199 203.484 808.199 199.74C808.199 194.628 807.263 190.956 805.391 188.724C803.519 186.42 799.811 185.268 794.267 185.268H788.867V214.212ZM846.059 264V233.112L827.159 176.52H838.499L851.891 218.748L865.067 176.52H876.515L857.723 233.112V264H846.059Z" fill="white"/>
</g>
<defs>
<clipPath id="clip0_1999_1092">
<rect width="908" height="290" fill="white"/>
</clipPath>
</defs>
</svg>
